<?xml version="1.0" encoding="utf-8"?>
<!-- Generator: Adobe Illustrator 26.5.0, SVG Export Plug-In . SVG Version: 6.00 Build 0)  -->
<svg version="1.1" id="Layer_1" xmlns="http://www.w3.org/2000/svg" xmlns:xlink="http://www.w3.org/1999/xlink" x="0px" y="0px"
	 viewBox="0 0 150 150" style="enable-background:new 0 0 150 150;" xml:space="preserve">
<style type="text/css">
	.st0{fill:#0E1817;}
	.st1{fill:#FF904F;}
	.st2{fill:#C75733;}
	.st3{filter:url(#Adobe_OpacityMaskFilter);}
	.st4{filter:url(#Adobe_OpacityMaskFilter_00000057870990667063349050000008534393473299224758_);}
	.st5{mask:url(#SVGID_1_);fill:url(#SVGID_00000048487304967339328230000006723277792032092812_);}
	.st6{fill:url(#SVGID_00000067937704875564936040000007137095421123838642_);}
	.st7{filter:url(#Adobe_OpacityMaskFilter_00000025412935929886431730000016102505000306733440_);}
	.st8{filter:url(#Adobe_OpacityMaskFilter_00000145028609102509677450000007517830190667392441_);}
	
		.st9{mask:url(#SVGID_00000068650164861672801620000004566912960294160547_);fill:url(#SVGID_00000054227309509899501260000011358221832288919459_);}
	.st10{fill:url(#SVGID_00000077306918652124979250000006960083135139006086_);}
	.st11{fill:#010101;}
	.st12{fill:url(#SVGID_00000005255762133115102570000005673726911584694972_);}
	.st13{fill:#EF2940;}
	.st14{fill:#968489;}
	.st15{fill:#7C7977;}
	.st16{fill:#818181;}
	.st17{filter:url(#Adobe_OpacityMaskFilter_00000163759630884788848330000016371857938232688550_);}
	.st18{filter:url(#Adobe_OpacityMaskFilter_00000040571321625023711840000015306909522213565316_);}
	
		.st19{mask:url(#SVGID_00000054227889411649281860000002183939541538460824_);fill:url(#SVGID_00000088131601185360727440000006740414422742844290_);}
	.st20{opacity:0.54;fill:url(#SVGID_00000120541815443631993530000009382690465238756542_);}
	.st21{opacity:0.54;}
	.st22{fill:#B4B4B4;}
</style>
<g>
	<g>
		<path class="st0" d="M56,11.3v126.2c0,3.9,8.5,9.7,19,9.7c10.5,0,19-5.9,19-9.7V11.3H56z"/>
		<path class="st1" d="M56,11.3v42c0,6.5,8.5,11.8,19,11.8c10.5,0,19-5.3,19-11.8v-42H56z"/>
		<ellipse class="st2" cx="75" cy="11.3" rx="19" ry="8.6"/>
		<defs>
			<filter id="Adobe_OpacityMaskFilter" filterUnits="userSpaceOnUse" x="56" y="11.3" width="38" height="136">
				<feFlood  style="flood-color:white;flood-opacity:1" result="back"/>
				<feBlend  in="SourceGraphic" in2="back" mode="normal"/>
			</filter>
		</defs>
		<mask maskUnits="userSpaceOnUse" x="56" y="11.3" width="38" height="136" id="SVGID_1_">
			<g class="st3">
				<defs>
					
						<filter id="Adobe_OpacityMaskFilter_00000033337615475622827810000013152618159045432479_" filterUnits="userSpaceOnUse" x="56" y="11.3" width="38" height="136">
						<feFlood  style="flood-color:white;flood-opacity:1" result="back"/>
						<feBlend  in="SourceGraphic" in2="back" mode="normal"/>
					</filter>
				</defs>
				<mask maskUnits="userSpaceOnUse" x="56" y="11.3" width="38" height="136" id="SVGID_1_">
					<g style="filter:url(#Adobe_OpacityMaskFilter_00000033337615475622827810000013152618159045432479_);">
					</g>
				</mask>
				
					<linearGradient id="SVGID_00000004525323539482128900000001133290617012588455_" gradientUnits="userSpaceOnUse" x1="56" y1="79.3169" x2="94" y2="79.3169">
					<stop  offset="1.351350e-02" style="stop-color:#000000"/>
					<stop  offset="0.127" style="stop-color:#333333"/>
					<stop  offset="0.1576" style="stop-color:#2E2E2E"/>
					<stop  offset="0.1936" style="stop-color:#202020"/>
					<stop  offset="0.2323" style="stop-color:#080808"/>
					<stop  offset="0.2432" style="stop-color:#000000"/>
					<stop  offset="0.6216" style="stop-color:#000000"/>
					<stop  offset="0.7243" style="stop-color:#4D4D4D"/>
					<stop  offset="0.827" style="stop-color:#000000"/>
				</linearGradient>
				<path style="mask:url(#SVGID_1_);fill:url(#SVGID_00000004525323539482128900000001133290617012588455_);" d="M75,20
					c-10.5,0-19-3.9-19-8.6v126.2c0,3.9,8.5,9.7,19,9.7c10.5,0,19-5.9,19-9.7V11.3C94,16.1,85.5,20,75,20z"/>
			</g>
		</mask>
		
			<linearGradient id="SVGID_00000005987523734267349370000010828707955816427190_" gradientUnits="userSpaceOnUse" x1="56" y1="79.3169" x2="94" y2="79.3169">
			<stop  offset="1.351350e-02" style="stop-color:#FF7D32"/>
			<stop  offset="5.371168e-02" style="stop-color:#FFAC7C"/>
			<stop  offset="0.127" style="stop-color:#FFFFFF"/>
			<stop  offset="0.1408" style="stop-color:#FFFCFA"/>
			<stop  offset="0.1571" style="stop-color:#FFF3EC"/>
			<stop  offset="0.1746" style="stop-color:#FFE4D4"/>
			<stop  offset="0.1931" style="stop-color:#FFCFB3"/>
			<stop  offset="0.2122" style="stop-color:#FFB388"/>
			<stop  offset="0.2317" style="stop-color:#FF9354"/>
			<stop  offset="0.2432" style="stop-color:#FF7D32"/>
			<stop  offset="0.6216" style="stop-color:#FF7D32"/>
			<stop  offset="0.658" style="stop-color:#FFAC7C"/>
			<stop  offset="0.7243" style="stop-color:#FFFFFF"/>
			<stop  offset="0.7661" style="stop-color:#FFCCAE"/>
			<stop  offset="0.827" style="stop-color:#FF7D32"/>
		</linearGradient>
		<path style="fill:url(#SVGID_00000005987523734267349370000010828707955816427190_);" d="M75,20c-10.5,0-19-3.9-19-8.6v126.2
			c0,3.9,8.5,9.7,19,9.7c10.5,0,19-5.9,19-9.7V11.3C94,16.1,85.5,20,75,20z"/>
		<defs>
			
				<filter id="Adobe_OpacityMaskFilter_00000023997911652058763740000010560665713901740683_" filterUnits="userSpaceOnUse" x="56" y="11.3" width="38" height="136">
				<feFlood  style="flood-color:white;flood-opacity:1" result="back"/>
				<feBlend  in="SourceGraphic" in2="back" mode="normal"/>
			</filter>
		</defs>
		
			<mask maskUnits="userSpaceOnUse" x="56" y="11.3" width="38" height="136" id="SVGID_00000041286589005426815180000018057472318656473259_">
			<g style="filter:url(#Adobe_OpacityMaskFilter_00000023997911652058763740000010560665713901740683_);">
				<defs>
					
						<filter id="Adobe_OpacityMaskFilter_00000183954477793414730550000006874096699882925467_" filterUnits="userSpaceOnUse" x="56" y="11.3" width="38" height="136">
						<feFlood  style="flood-color:white;flood-opacity:1" result="back"/>
						<feBlend  in="SourceGraphic" in2="back" mode="normal"/>
					</filter>
				</defs>
				
					<mask maskUnits="userSpaceOnUse" x="56" y="11.3" width="38" height="136" id="SVGID_00000041286589005426815180000018057472318656473259_">
					<g style="filter:url(#Adobe_OpacityMaskFilter_00000183954477793414730550000006874096699882925467_);">
					</g>
				</mask>
				
					<linearGradient id="SVGID_00000016766241101975614280000010092197327852710840_" gradientUnits="userSpaceOnUse" x1="56" y1="79.3169" x2="94" y2="79.3169">
					<stop  offset="0.1054" style="stop-color:#000000"/>
					<stop  offset="0.2162" style="stop-color:#808080"/>
					<stop  offset="0.2379" style="stop-color:#797979"/>
					<stop  offset="0.2692" style="stop-color:#656565"/>
					<stop  offset="0.3064" style="stop-color:#464646"/>
					<stop  offset="0.3478" style="stop-color:#1B1B1B"/>
					<stop  offset="0.3703" style="stop-color:#000000"/>
				</linearGradient>
				
					<path style="mask:url(#SVGID_00000041286589005426815180000018057472318656473259_);fill:url(#SVGID_00000016766241101975614280000010092197327852710840_);" d="
					M75,20c-10.5,0-19-3.9-19-8.6v126.2c0,3.9,8.5,9.7,19,9.7c10.5,0,19-5.9,19-9.7V11.3C94,16.1,85.5,20,75,20z"/>
			</g>
		</mask>
		
			<linearGradient id="SVGID_00000150070858096913257840000010904677934942729112_" gradientUnits="userSpaceOnUse" x1="56" y1="79.3169" x2="94" y2="79.3169">
			<stop  offset="0.1054" style="stop-color:#FF7D32"/>
			<stop  offset="0.2162" style="stop-color:#DE6F44"/>
			<stop  offset="0.2694" style="stop-color:#E47241"/>
			<stop  offset="0.3461" style="stop-color:#F77A36"/>
			<stop  offset="0.3703" style="stop-color:#FF7D32"/>
		</linearGradient>
		<path style="fill:url(#SVGID_00000150070858096913257840000010904677934942729112_);" d="M75,20c-10.5,0-19-3.9-19-8.6v126.2
			c0,3.9,8.5,9.7,19,9.7c10.5,0,19-5.9,19-9.7V11.3C94,16.1,85.5,20,75,20z"/>
		<path class="st11" d="M89.1,11.3c0,3.5-6.3,6.4-14.1,6.4c-7.8,0-14.1-2.9-14.1-6.4c0-3.5,6.3-6.4,14.1-6.4
			C82.8,4.9,89.1,7.8,89.1,11.3z"/>
		<path class="st0" d="M75,65.1c-10.5,0-19-5.3-19-11.8v84.3c0,3.9,8.5,9.7,19,9.7c10.5,0,19-5.9,19-9.7V53.3
			C94,59.8,85.5,65.1,75,65.1z"/>
		
			<linearGradient id="SVGID_00000175286780173778784810000012243237709042828445_" gradientUnits="userSpaceOnUse" x1="61.0686" y1="74.6115" x2="61.4301" y2="126.5558">
			<stop  offset="0" style="stop-color:#03939B"/>
			<stop  offset="1" style="stop-color:#70CDDD"/>
		</linearGradient>
		<path style="fill:url(#SVGID_00000175286780173778784810000012243237709042828445_);" d="M62.5,130.9c-1.2,0.3-2.4-1.9-2.4-1.9
			V74.3c0,0,1.6-0.6,2.4,1.3V130.9z"/>
		<path class="st13" d="M60.1,104.8V129c0,0,1.2,2.2,2.4,1.9v-24.8C61.6,105.8,60.9,105.3,60.1,104.8z"/>
		<g>
			<g>
				<path class="st14" d="M56,64.4v2.1c1.3,3.7,4.2,5.4,7.7,7.2c0,5.8,0,53.6,0,60.9c-5.4-1.9-7.7-5.4-7.7-7.2v2.7
					c1.2,3.3,5.4,5.2,8.1,6.1c0.2,0.1,0.4-0.3,0.4-0.7c0-62.6,0-62.9,0-62.9C60.7,70.8,57.7,68.4,56,64.4z"/>
			</g>
		</g>
		<path class="st15" d="M87.8,11.3c0,3.1-5.7,5.6-12.8,5.6c-7.1,0-12.8-2.5-12.8-5.6c0-3.1,5.7-5.6,12.8-5.6
			C82.1,5.7,87.8,8.2,87.8,11.3z"/>
	</g>
	<g>
		<path class="st16" d="M66.4,6.7v4.3c0,0,0,0,0,0c0,1.8,3.9,3.3,8.6,3.3c4.8,0,8.6-1.5,8.6-3.3l0,0V6.7H66.4z"/>
		<defs>
			
				<filter id="Adobe_OpacityMaskFilter_00000148655148602008307370000014174153392286396317_" filterUnits="userSpaceOnUse" x="66.4" y="6.7" width="17.3" height="7.7">
				<feFlood  style="flood-color:white;flood-opacity:1" result="back"/>
				<feBlend  in="SourceGraphic" in2="back" mode="normal"/>
			</filter>
		</defs>
		
			<mask maskUnits="userSpaceOnUse" x="66.4" y="6.7" width="17.3" height="7.7" id="SVGID_00000127007249669174355490000007504869435815267467_">
			<g style="filter:url(#Adobe_OpacityMaskFilter_00000148655148602008307370000014174153392286396317_);">
				<defs>
					
						<filter id="Adobe_OpacityMaskFilter_00000108290878193978985320000013019277193069266069_" filterUnits="userSpaceOnUse" x="66.4" y="6.7" width="17.3" height="7.7">
						<feFlood  style="flood-color:white;flood-opacity:1" result="back"/>
						<feBlend  in="SourceGraphic" in2="back" mode="normal"/>
					</filter>
				</defs>
				
					<mask maskUnits="userSpaceOnUse" x="66.4" y="6.7" width="17.3" height="7.7" id="SVGID_00000127007249669174355490000007504869435815267467_">
					<g style="filter:url(#Adobe_OpacityMaskFilter_00000108290878193978985320000013019277193069266069_);">
					</g>
				</mask>
				
					<linearGradient id="SVGID_00000007395839120155605540000002771214964083614873_" gradientUnits="userSpaceOnUse" x1="66.3717" y1="10.583" x2="83.6283" y2="10.583">
					<stop  offset="0" style="stop-color:#000000"/>
					<stop  offset="7.589243e-02" style="stop-color:#494949"/>
					<stop  offset="0.2162" style="stop-color:#CCCCCC"/>
					<stop  offset="0.2684" style="stop-color:#C5C5C5"/>
					<stop  offset="0.3437" style="stop-color:#B2B2B2"/>
					<stop  offset="0.4331" style="stop-color:#939393"/>
					<stop  offset="0.5324" style="stop-color:#676767"/>
					<stop  offset="0.5865" style="stop-color:#4D4D4D"/>
					<stop  offset="1" style="stop-color:#000000"/>
				</linearGradient>
				
					<path style="mask:url(#SVGID_00000127007249669174355490000007504869435815267467_);fill:url(#SVGID_00000007395839120155605540000002771214964083614873_);" d="
					M66.4,6.7v4.3c0,0,0,0,0,0c0,1.8,3.9,3.3,8.6,3.3c4.8,0,8.6-1.5,8.6-3.3l0,0V6.7H66.4z"/>
			</g>
		</mask>
		
			<linearGradient id="SVGID_00000083771353298097539730000005228561637967095224_" gradientUnits="userSpaceOnUse" x1="66.3717" y1="10.583" x2="83.6283" y2="10.583">
			<stop  offset="0" style="stop-color:#676767"/>
			<stop  offset="1.627593e-02" style="stop-color:#6F6E6E"/>
			<stop  offset="0.2162" style="stop-color:#F3F3F3"/>
			<stop  offset="0.2698" style="stop-color:#EAEAEA"/>
			<stop  offset="0.3471" style="stop-color:#D5D4D4"/>
			<stop  offset="0.4389" style="stop-color:#B6B5B5"/>
			<stop  offset="0.541" style="stop-color:#919091"/>
			<stop  offset="0.5865" style="stop-color:#818181"/>
			<stop  offset="1" style="stop-color:#818181"/>
		</linearGradient>
		<path style="opacity:0.54;fill:url(#SVGID_00000083771353298097539730000005228561637967095224_);" d="M66.4,6.7v4.3c0,0,0,0,0,0
			c0,1.8,3.9,3.3,8.6,3.3c4.8,0,8.6-1.5,8.6-3.3l0,0V6.7H66.4z"/>
		<g class="st21">
			
				<image style="overflow:visible;" width="73" height="18" xlink:href="86A896D1.png"  transform="matrix(0.24 0 0 0.24 66.24 11.04)">
			</image>
		</g>
		<path class="st22" d="M83.6,6.7c0,1.8-3.9,3.2-8.6,3.2c-4.8,0-8.6-1.4-8.6-3.2c0-1.8,3.9-3.2,8.6-3.2C79.8,3.6,83.6,5,83.6,6.7z"
			/>
	</g>
</g>
</svg>
