<?xml version="1.0" encoding="utf-8"?>
<!-- Generator: Adobe Illustrator 26.5.0, SVG Export Plug-In . SVG Version: 6.00 Build 0)  -->
<svg version="1.1" id="Layer_1" xmlns="http://www.w3.org/2000/svg" xmlns:xlink="http://www.w3.org/1999/xlink" x="0px" y="0px"
	 viewBox="0 0 150 150" style="enable-background:new 0 0 150 150;" xml:space="preserve">
<style type="text/css">
	.st0{fill:#ECECEC;}
	.st1{fill:#707070;}
	.st2{fill:#1D1D1B;}
	.st3{fill:#DAD9D8;}
	.st4{fill:#DDEFF1;}
	.st5{fill:#B1B1B1;}
	.st6{fill:#CDE8EA;}
</style>
<g>
	<path class="st0" d="M145.7,90.8c0,0.2,0,0.4,0,0.6c-0.1,0-0.2,0-0.3-0.1c-4.9-0.6-10.6,0.6-15.4,0.9h0c-1.7-4-5.6-7.2-10.2-7.7
		c-7.8-0.9-16.7,5.6-16.7,13.8c-18.8-0.4-38-1.3-56.8,0c-0.9-8.2-5.1-14.8-14.4-14.6c-5.3,0.1-10.1,3.2-12.5,7.7
		c-0.1-0.1-0.2-0.2-0.3-0.2c-2.6-0.2-5.2-0.1-7.8-0.2c-2,0-4.3-0.3-6.3,0.1c0,0,0,0,0,0c0-0.7,0-1.4,0-2.2c1.3,0,2.7,0.4,3.9-0.4
		c1-0.7,1.4-2.1,1.3-3.3c0-2.2-1.8-4.5-4-4.4c2.2-3.8,6.1-4,10.5-4.7c7.1-1,14.1-1.9,21.2-2.6c0.3,0,0.5-0.3,0.5-0.5
		c0.1,0,0.1-0.1,0.2-0.1c4.9-7.1,9.5-14.5,14.6-21.5c3.9-5.4,5.7-8.3,12.9-9c4.8-0.5,9.7-0.4,14.5-0.5c4.4-0.1,8.8-0.1,13.3,0
		c1.9,0,4.2-0.3,6,0.1c5.2,1.2,5.6,3,7.4,6.6c0.9,1.9,9.6,19.7,12.2,24.6c0.1,0.5,0.3,0.9,0.5,1.4c0,0,0,0.1,0,0.1
		c-0.2,0.4,0,1,0.6,0.8c0.1,0,0.2-0.1,0.3-0.1c0,0,0.1-0.1,0.1-0.1c5.1,1.6,10.5,2.6,15.7,3.7c2.2,0.5,5.2,0.6,7.1,1.9
		c-2.3,1.1-4.8,3.1-4.2,5.9C139.9,89.8,143.3,90.5,145.7,90.8z M116.8,78.6c0.2-0.1,0.3-0.4,0.1-0.6c-1.4-1.5-3.5-2.3-5.6-2
		c-1.2,0.2-3.8,1.2-3,2.8c-0.2,0.1-0.2,0.5,0.1,0.5c2.6,0.1,5.3,0.1,8-0.2C116.7,79.1,116.9,78.8,116.8,78.6z M115.6,73.4
		c0.7,0,0.7-1.1,0-1.1c0,0,0,0,0,0c-0.3-0.5-0.5-0.9-0.8-1.4c-1.4-3.7-2.9-7.5-4.5-11.1c-1.8-4.1-3.5-9.3-6.5-12.7
		c-4.5-5-12.5-3.6-18.4-2.9c-0.2,0-0.4,0.2-0.4,0.4c-0.3,0-0.5,0.2-0.5,0.6c0.2,8.9-0.1,17.9,0.8,26.8c0,0.2,0.1,0.2,0.2,0.3
		c-0.3,0.2-0.1,0.8,0.3,0.8C95.7,73.9,105.7,73.7,115.6,73.4z M81.7,72.2c1.6-8.8,0.6-18.1-0.3-26.9c0-0.2-0.1-0.3-0.2-0.4
		c0-0.2-0.2-0.4-0.5-0.5c-6.9-0.3-16.4-1-21.4,4.6c-5.9,6.6-11.1,15.4-15.4,23.1c-0.2,0.3,0.1,0.6,0.4,0.6c0,0.2,0,0.4,0.3,0.4
		c12,1.5,24.7,0.7,36.8,0C81.8,73,81.9,72.5,81.7,72.2z M81.2,79.4c0.2,0,0.5-0.3,0.3-0.6c-1.5-3.6-8.7-3.8-10,0.1
		c-0.1,0.2,0.1,0.3,0.2,0.4c0,0.1,0.1,0.1,0.1,0.1c3,0.3,6,0.3,9,0.2C81,79.6,81.1,79.5,81.2,79.4z"/>
	<path class="st1" d="M112.8,76.7c1.4,0.1,2.6,0.7,3.5,1.7c-2.5,0.1-5,0.2-7.4,0.3C108.4,77,111.7,76.6,112.8,76.7z"/>
	<path class="st1" d="M80.6,78.9c-2.8-0.1-5.6,0-8.4,0.2c1-1.6,2.6-2.2,4.5-2.1C78.1,77,79.8,77.4,80.6,78.9z"/>
	<path class="st2" d="M146.7,91.7c1.6,0.6,2.3,2.1,2.1,4.1c-0.3,2.8-2,4.2-4.6,4.7c-4.5,0.8-9.8,0.2-14.3-0.1
		c-0.2,0-0.2-0.1-0.3-0.2c-0.3-0.1-0.5-0.4-0.5-0.8c1.3-6.9-3.6-13.7-10.9-13.7c-7.1,0-13.6,5.8-14.2,12.8c0.4,0.4,0.3,1.3-0.5,1.3
		c-19.1-0.4-38.2,0.3-57.3-0.5c-0.1,0.6-1.1,0.6-1.2-0.1c-0.8-8.5-5.5-15.2-14.8-14.1c-7.2,0.9-11,6.9-12,13.6
		c0.1,0.2,0,0.6-0.4,0.7c-4.1,0.5-8.9,0.9-13,0.1c-2.1-0.4-4-1.6-4-3.9c0-2,1.4-3.5,3.2-4.1c-0.3-5.8-1.7-12.8,4.9-14.9
		c8.8-2.7,19.5-2.9,28.7-3.9c0,0,0,0,0,0c5.2-9.3,11.5-19.5,18.7-27.5c2.2-2.4,3.9-3.1,7-3.5c6.3-0.8,12.9-0.6,19.3-0.7
		c5.7-0.1,13.2-1.2,18.7,0.3c3,0.8,3.9,2.2,5.5,4.9c3.2,5.6,5.8,11.5,8.6,17.2c1.3,2.6,4,6.2,5,9.4c0.5,0.7,1,1.5,1.6,2.1
		c0,0,0.1,0.1,0.1,0.2c3.2,0.5,6.4,1.3,9.6,2c3.8,0.8,8.1,1.3,11.7,2.6C148.1,81.2,147,87.9,146.7,91.7
		C146.7,91.7,146.7,91.7,146.7,91.7z M144.9,99.1c2.6-1,3.2-2.5,1.9-4.5c0.1-1.8-0.7-2.5-2.3-2.2c-0.7,0-1.5,0.1-2.2,0.1
		c-1.4,0.1-2.7,0.2-4.1,0.3c-2.6,0.2-5.2,0.3-7.8,0.5c0.6,2,0.7,4.1,0.1,6.3c2.8-0.2,5.6-0.2,8.4-0.2c1.2,0,2.4,0,3.6,0
		C143.3,99.5,144.1,99.4,144.9,99.1z M145.8,88.4c0.1-2-0.1-4.1-0.8-5.6c-1,0.7-2.3,1.2-2.4,2.6C142.4,87.3,144.3,88.2,145.8,88.4z
		 M145.8,90.1c0-0.3,0-0.6,0-0.9c-1.9,0-3.8-1.1-4.1-3.1c-0.3-2,1.2-3.3,2.9-4c-0.1-0.1-0.2-0.3-0.3-0.4c-0.1-0.1-0.2-0.1-0.3-0.2
		c-1.6,1.2-3.5,2.4-3.8,4.5C139.8,89,143.4,89.8,145.8,90.1z M145.7,91.4c0-0.2,0-0.4,0-0.6c-2.4-0.3-5.8-1.1-6.3-3.8
		c-0.6-2.9,1.9-4.8,4.2-5.9c-1.9-1.3-4.9-1.4-7.1-1.9c-5.2-1.2-10.6-2.1-15.7-3.7c0,0-0.1,0.1-0.1,0.1c-0.1,0-0.2,0.1-0.3,0.1
		c-0.5,0.2-0.8-0.4-0.6-0.8c0,0,0-0.1,0-0.1c-0.2-0.4-0.4-0.9-0.5-1.4c-2.6-4.8-11.3-22.7-12.2-24.6c-1.8-3.6-2.2-5.4-7.4-6.6
		c-1.9-0.4-4.1-0.1-6-0.1c-4.4-0.1-8.8-0.1-13.3,0c-4.8,0.1-9.7,0-14.5,0.5c-7.2,0.7-9,3.6-12.9,9c-5.1,7-9.7,14.4-14.6,21.5
		c0,0.1-0.1,0.1-0.2,0.1c0,0.2-0.2,0.5-0.5,0.5c-7.1,0.7-14.2,1.6-21.2,2.6C12.2,77,8.3,77.2,6,81c2.2,0,4,2.2,4,4.4
		c0,1.2-0.3,2.6-1.3,3.3c-1.1,0.8-2.6,0.4-3.9,0.4c0,0.8,0,1.5,0,2.2c0,0,0,0,0,0c2-0.4,4.3-0.1,6.3-0.1c2.6,0,5.2,0,7.8,0.2
		c0.2,0,0.3,0.1,0.3,0.2c2.5-4.5,7.2-7.6,12.5-7.7c9.3-0.2,13.6,6.3,14.4,14.6c18.8-1.3,38-0.4,56.8,0c0-8.1,8.8-14.7,16.7-13.8
		c4.6,0.5,8.5,3.7,10.2,7.7h0c4.9-0.3,10.6-1.5,15.4-0.9C145.5,91.4,145.6,91.4,145.7,91.4z M17.6,98.5c0-2.3,0.5-4.4,1.4-6.4
		c-2.6,0.2-5.2,0.1-7.8,0.1c-1.3,0-2.6-0.1-3.9,0c-0.4,0-0.7,0-1.1,0c-3.1,0-3.9,1.2-2.4,3.5c0.9,2.8,1.2,2.5,3.7,2.6
		c1,0,2,0,3.1,0.1C12.9,98.4,15.2,98.4,17.6,98.5z M9.2,86c0.3-2.4-1.3-4.1-3.6-4.1c-0.1,0.2-0.2,0.4-0.2,0.6
		c1.6,0.2,3.4,1.3,3.2,3.2c-0.2,1.9-2.2,2.1-3.8,1.8c0,0.4,0,0.7,0,1.1c0.6-0.1,1.3,0,2,0C8.3,88.5,9,87.5,9.2,86z M7.9,85.9
		c0.3-1.7-1.4-2.4-2.8-2.5c-0.3,1.1-0.4,2.5-0.3,3.9C5.9,87.3,7.6,87.3,7.9,85.9z"/>
	<path class="st3" d="M146.8,94.7c1.3,2,0.7,3.5-1.9,4.5c-0.8,0.2-1.6,0.3-2.4,0.3c-1.2,0.1-2.4,0-3.6,0c-2.8,0-5.6,0-8.4,0.2
		c0.6-2.1,0.5-4.3-0.1-6.3c2.6-0.2,5.2-0.3,7.8-0.5c1.4-0.1,2.7-0.2,4.1-0.3c0.7,0,1.5-0.1,2.2-0.1
		C146.1,92.2,146.8,92.9,146.8,94.7z"/>
	<path class="st4" d="M145,82.8c0.7,1.5,0.9,3.6,0.8,5.6c-1.6-0.2-3.4-1.1-3.2-3C142.7,84,144,83.5,145,82.8z"/>
	<path class="st4" d="M145.8,89.2c0,0.3,0,0.6,0,0.9c-2.4-0.3-6-1.1-5.6-4.1c0.3-2.1,2.2-3.3,3.8-4.5c0.1,0.1,0.2,0.1,0.3,0.2
		c0.1,0.1,0.2,0.3,0.3,0.4c-1.7,0.7-3.2,2.1-2.9,4C142,88.1,143.9,89.2,145.8,89.2z"/>
	<path class="st2" d="M117.6,87.6c5.6,0.5,10.5,5.5,10.1,11.2c-0.4,5.8-5.5,9.5-10.9,9.2c-0.1,0.2-0.3,0.3-0.5,0.3
		c-6.4-0.1-11.6-4.2-10.3-11C106.9,91.9,111.9,87.1,117.6,87.6z M116.2,107.1c5.4,0.2,10.6-3.6,10.2-9.5c-0.2-4.2-3.9-7.8-8-8.5
		c-4.3-0.8-8.3,1.8-10.3,5.6C104.9,101,109.3,106.9,116.2,107.1z"/>
	<path class="st2" d="M126.4,97.6c0.3,5.9-4.8,9.6-10.2,9.5c-6.9-0.1-11.3-6.1-8-12.5c1.9-3.7,5.9-6.4,10.3-5.6
		C122.5,89.8,126.1,93.4,126.4,97.6z M118.1,101.9c1.8-0.7,3-2.6,2.1-4.5c-0.7-1.5-2.8-2.6-4.3-1.7c-2-0.5-3.6,1.8-3.1,3.7
		C113.4,101.6,116,102.7,118.1,101.9z"/>
	<path class="st2" d="M120.2,97.4c0.9,1.9-0.4,3.8-2.1,4.5c-2.1,0.8-4.7-0.2-5.3-2.5c-0.5-1.9,1.1-4.2,3.1-3.7
		C117.4,94.8,119.5,95.9,120.2,97.4z M117.8,100.7c1.1-0.5,1.9-1.8,1.2-2.9c-0.6-1.1-1.8-1.4-2.9-0.9c-0.3,0.1-0.6,0-0.8-0.2
		c-1.5,0.5-2,2.3-0.8,3.6C115.4,101,116.7,101.2,117.8,100.7z"/>
	<path class="st5" d="M119.1,97.7c0.7,1.2-0.1,2.4-1.2,2.9c-1.1,0.5-2.4,0.3-3.3-0.6c-1.2-1.3-0.7-3.1,0.8-3.6
		c0.1,0.2,0.5,0.4,0.8,0.2C117.3,96.3,118.4,96.7,119.1,97.7z"/>
	<path class="st2" d="M116.9,78c0.2,0.2,0.1,0.5-0.1,0.6c0.1,0.2,0,0.5-0.3,0.6c-2.6,0.3-5.3,0.3-8,0.2c-0.3,0-0.3-0.4-0.1-0.5
		c-0.8-1.6,1.8-2.6,3-2.8C113.4,75.7,115.5,76.5,116.9,78z M116.3,78.4c-1-1-2.1-1.6-3.5-1.7c-1-0.1-4.3,0.3-3.9,2
		C111.3,78.6,113.8,78.5,116.3,78.4z"/>
	<path class="st2" d="M115.6,72.3c0.7,0,0.7,1.1,0,1.1c-9.9,0.3-20,0.5-29.8-0.4c-0.5,0-0.6-0.6-0.3-0.8c-0.1-0.1-0.2-0.1-0.2-0.3
		c-0.9-8.8-0.6-17.9-0.8-26.8c0-0.4,0.2-0.5,0.5-0.6c0-0.2,0.1-0.4,0.4-0.4c5.9-0.7,13.9-2.1,18.4,2.9c3,3.4,4.7,8.6,6.5,12.7
		c1.6,3.7,3.1,7.4,4.5,11.1C115.1,71.4,115.3,71.8,115.6,72.3C115.6,72.3,115.6,72.3,115.6,72.3z M86,72.1c9.4,0,18.8,0.4,28.2,0.2
		c-2.6-6.8-5.3-13.6-8.6-20.1c-2.2-4.3-5.5-7.3-10.4-7.5c-3.2-0.1-6.4,0.2-9.6,0.2c0,0,0,0.1,0,0.2c0.2,8.9,0.9,17.9,0.4,26.8
		C86.1,72,86,72,86,72.1z"/>
	<path class="st6" d="M114.2,72.3c-9.4,0.1-18.8-0.2-28.2-0.2c0-0.1,0.1-0.1,0.1-0.2c0.5-8.9-0.2-17.9-0.4-26.8c0-0.1,0-0.1,0-0.2
		c3.2,0,6.4-0.3,9.6-0.2c5,0.2,8.3,3.1,10.4,7.5C108.9,58.7,111.6,65.5,114.2,72.3z"/>
	<path class="st2" d="M81.4,45.3c0.9,8.8,1.9,18.1,0.3,26.9c0.2,0.3,0.1,0.8-0.4,0.9c-12.1,0.7-24.7,1.5-36.8,0
		c-0.2,0-0.3-0.2-0.3-0.4c-0.3,0-0.5-0.3-0.4-0.6c4.3-7.7,9.5-16.5,15.4-23.1c5-5.6,14.5-4.8,21.4-4.6c0.3,0,0.5,0.2,0.5,0.5
		C81.3,44.9,81.4,45.1,81.4,45.3z M80.9,72c0.2-8.9,0.2-17.6-0.6-26.5c-3.8-0.1-7.7-0.1-11.5,0.4c-5.9,0.7-9.3,4.5-12.5,9.2
		c-4,5.7-7.8,11.6-11.7,17.4C56.7,71.9,68.8,72.5,80.9,72z"/>
	<path class="st2" d="M81.5,78.8c0.1,0.3-0.1,0.6-0.3,0.6c0,0.1-0.1,0.2-0.3,0.2c-3,0.1-6,0-9-0.2c-0.1,0-0.1,0-0.1-0.1
		c-0.2,0-0.3-0.2-0.2-0.4C72.8,75,79.9,75.2,81.5,78.8z M72.1,79.1c2.8-0.2,5.6-0.3,8.4-0.2c-0.7-1.4-2.4-1.8-3.9-1.9
		C74.8,76.9,73.1,77.4,72.1,79.1z"/>
	<path class="st6" d="M80.3,45.5c0.9,8.9,0.8,17.6,0.6,26.5c-12.1,0.6-24.2,0-36.3,0.5c3.9-5.8,7.7-11.7,11.7-17.4
		c3.2-4.6,6.7-8.5,12.5-9.2C72.6,45.4,76.5,45.4,80.3,45.5z"/>
	<path class="st2" d="M41.5,91.3c1.6,3,2.3,6.2,1.3,9.5c-2,6.2-8.7,9.9-14.8,7.3c-3.3-1.4-7.7-6-7.3-10c0,0,0,0,0-0.1
		c0-0.6,0.1-1.2,0.3-1.7c0-0.1,0-0.2,0-0.4c-0.5-6.1,6.6-9.5,12.3-9.3C37.2,86.8,39.6,87.7,41.5,91.3z M41.2,101.4
		c2.6-6.1-1.2-12.7-7.9-13.4c-4.8-0.4-10.1,2.2-10.8,6.9c0.2,0.1,0.3,0.2,0.2,0.4c-0.1,0.2-0.2,0.3-0.3,0.5c0,0.6,0,1.2,0.2,1.8
		c0.1,0.5-0.4,0.8-0.8,0.7c0.1,4.1,4.6,8.3,8.1,9.1C34.7,108.7,39.3,105.8,41.2,101.4z"/>
	<path class="st2" d="M33.2,88c6.8,0.6,10.6,7.2,7.9,13.4c-1.9,4.4-6.5,7.3-11.3,6.1c-3.5-0.9-8.1-5-8.1-9.1
		c0.4,0.1,0.9-0.2,0.8-0.7c-0.1-0.6-0.2-1.2-0.2-1.8c0.1-0.2,0.2-0.3,0.3-0.5c0.1-0.2,0-0.4-0.2-0.4C23.1,90.2,28.4,87.6,33.2,88z
		 M32.6,101.5c1.9-0.3,3.6-2,3-4c-0.4-1.5-1.9-2.8-3.5-2.9c0-0.2-0.1-0.4-0.4-0.4c-2.1,0-3.5,2.2-3.3,4.2
		C28.6,100.5,30.6,101.8,32.6,101.5z"/>
	<path class="st2" d="M35.6,97.5c0.5,2-1.1,3.8-3,4c-2,0.3-4-1-4.1-3.1c-0.1-1.9,1.3-4.1,3.3-4.2c0.3,0,0.4,0.2,0.4,0.4
		C33.7,94.7,35.3,96,35.6,97.5z M32.2,100.4c1.3-0.1,2.6-1,2.3-2.4c-0.3-1.5-1.8-2.3-3.2-2c-0.2,0.1-0.4,0-0.6-0.2
		c-0.7,0.6-1.1,1.4-1.1,2.4C29.7,99.6,30.8,100.4,32.2,100.4z"/>
	<path class="st5" d="M34.5,97.9c0.3,1.4-1.1,2.4-2.3,2.4c-1.3,0.1-2.5-0.8-2.5-2.2c0-1,0.4-1.8,1.1-2.4c0.1,0.1,0.3,0.2,0.6,0.2
		C32.7,95.6,34.2,96.4,34.5,97.9z"/>
	<path class="st3" d="M19,92.1c-0.9,1.9-1.5,4.1-1.4,6.4c-2.3-0.1-4.6,0-7-0.1c-1,0-2,0-3.1-0.1c-2.6-0.1-2.9,0.2-3.7-2.6
		c-1.6-2.3-0.8-3.5,2.4-3.5c0.4,0,0.7,0,1.1,0c1.3-0.1,2.6,0,3.9,0C13.8,92.3,16.4,92.3,19,92.1z"/>
	<path class="st4" d="M5.6,81.9c2.3,0,3.9,1.7,3.6,4.1c-0.2,1.4-0.9,2.4-2.4,2.5c-0.7,0-1.3,0-2,0c0-0.4,0-0.7,0-1.1
		c1.5,0.3,3.5,0.1,3.8-1.8c0.2-1.9-1.5-3-3.2-3.2C5.4,82.4,5.5,82.1,5.6,81.9z"/>
	<path class="st4" d="M5.1,83.3c1.4,0.1,3.1,0.9,2.8,2.5c-0.3,1.4-1.9,1.4-3.1,1.3C4.7,85.8,4.7,84.4,5.1,83.3z"/>
</g>
</svg>
