<?xml version="1.0" encoding="utf-8"?>
<!-- Generator: Adobe Illustrator 26.5.0, SVG Export Plug-In . SVG Version: 6.00 Build 0)  -->
<svg version="1.1" id="Layer_1" xmlns="http://www.w3.org/2000/svg" xmlns:xlink="http://www.w3.org/1999/xlink" x="0px" y="0px"
	 viewBox="0 0 150 150" style="enable-background:new 0 0 150 150;" xml:space="preserve">
<style type="text/css">
	.st0{fill:#919191;}
	.st1{fill:#B5B6B6;}
	.st2{fill:#989898;}
	.st3{opacity:0.46;fill:#FFFFFF;}
	.st4{fill:#50A7D3;}
	.st5{fill:#4897B6;}
	.st6{fill:#3A8F43;}
	.st7{opacity:0.38;fill:#FFFFFF;}
</style>
<g>
	<rect x="74.7" y="87" class="st0" width="1.9" height="57.1"/>
	<g>
		<g>
			<path class="st1" d="M75.9,35c-8.4,0-15.3-6.8-15.3-15.3c0-8.4,6.8-15.3,15.3-15.3c8.4,0,15.3,6.8,15.3,15.3
				C91.1,28.2,84.3,35,75.9,35z M75.9,6.7c-7.2,0-13.1,5.9-13.1,13.1c0,7.2,5.9,13.1,13.1,13.1S88.9,27,88.9,19.8
				C88.9,12.6,83.1,6.7,75.9,6.7z"/>
		</g>
		<g>
			<path class="st2" d="M66.2,28.6c-2.1-2.3-3.4-5.4-3.4-8.8c0-7.2,5.9-13.1,13.1-13.1c3.4,0,6.5,1.3,8.8,3.4
				c-2.4-2.6-5.8-4.3-9.6-4.3C67.8,5.9,62,11.8,62,19C62,22.8,63.6,26.2,66.2,28.6z"/>
			<path class="st2" d="M86.2,8.6c2.5,2.7,4.1,6.4,4.1,10.4c0,8.4-6.8,15.3-15.3,15.3c-4,0-7.7-1.6-10.4-4.1c2.8,3,6.8,4.9,11.2,4.9
				c8.4,0,15.3-6.8,15.3-15.3C91.1,15.4,89.2,11.4,86.2,8.6z"/>
		</g>
	</g>
	<g>
		<g>
			<path class="st1" d="M75.1,41.2c-1.9,0-3.5-1.6-3.5-3.5c0-1.9,1.6-3.5,3.5-3.5c1.9,0,3.5,1.6,3.5,3.5
				C78.6,39.6,77,41.2,75.1,41.2z M75.1,35.3c-1.3,0-2.3,1-2.3,2.3c0,1.3,1,2.3,2.3,2.3c1.3,0,2.3-1,2.3-2.3
				C77.4,36.4,76.4,35.3,75.1,35.3z"/>
		</g>
		<path class="st1" d="M75.1,37.4L75.1,37.4c-0.7,0-1.3-0.6-1.3-1.3v-3.4c0-0.7,0.6-1.3,1.3-1.3l0,0c0.7,0,1.3,0.6,1.3,1.3v3.4
			C76.4,36.9,75.8,37.4,75.1,37.4z"/>
		<path class="st2" d="M75.3,31.5c0.2,0.2,0.3,0.5,0.3,0.8v3.4c0,0.7-0.6,1.3-1.3,1.3c-0.1,0-0.2,0-0.2,0c0.2,0.3,0.6,0.4,1,0.4l0,0
			c0.7,0,1.3-0.6,1.3-1.3v-3.4C76.4,32.2,75.9,31.6,75.3,31.5z"/>
		<g>
			<path class="st1" d="M75.1,48.6c-1.9,0-3.5-1.6-3.5-3.5c0-1.9,1.6-3.5,3.5-3.5c1.9,0,3.5,1.6,3.5,3.5C78.6,47,77,48.6,75.1,48.6z
				 M75.1,42.7c-1.3,0-2.3,1-2.3,2.3c0,1.3,1,2.3,2.3,2.3c1.3,0,2.3-1,2.3-2.3C77.4,43.8,76.4,42.7,75.1,42.7z"/>
		</g>
		<path class="st1" d="M75.1,44.9L75.1,44.9c-0.7,0-1.3-0.6-1.3-1.3v-3.4c0-0.7,0.6-1.3,1.3-1.3l0,0c0.7,0,1.3,0.6,1.3,1.3v3.4
			C76.4,44.3,75.8,44.9,75.1,44.9z"/>
		<path class="st2" d="M75.3,39c0.2,0.2,0.3,0.5,0.3,0.8v3.4c0,0.7-0.6,1.3-1.3,1.3c-0.1,0-0.2,0-0.2,0c0.2,0.3,0.6,0.4,1,0.4l0,0
			c0.7,0,1.3-0.6,1.3-1.3v-3.4C76.4,39.6,75.9,39.1,75.3,39z"/>
		<path class="st3" d="M74.3,33.6c0,0.4,0.1,0.8,0.1,1.1c0,0.1,0,0.2,0.1,0.2c0.1,0.1,0.2,0,0.3,0c0.3-0.2,0.3-0.6,0.3-1
			c0-0.4,0.3-1.8-0.3-1.9C74.1,31.8,74.3,33.2,74.3,33.6z"/>
		<path class="st3" d="M74.3,41.7c0,0.4,0.1,0.8,0.1,1.1c0,0.1,0,0.2,0.1,0.2c0.1,0.1,0.2,0,0.3,0c0.3-0.2,0.3-0.6,0.3-1
			c0-0.4,0.3-1.8-0.3-1.9C74.1,39.9,74.3,41.3,74.3,41.7z"/>
		<g>
			<path class="st1" d="M75.2,56c-1.9,0-3.5-1.6-3.5-3.5c0-1.9,1.6-3.5,3.5-3.5c1.9,0,3.5,1.6,3.5,3.5C78.7,54.5,77.1,56,75.2,56z
				 M75.2,50.2c-1.3,0-2.3,1-2.3,2.3c0,1.3,1,2.3,2.3,2.3c1.3,0,2.3-1,2.3-2.3C77.5,51.2,76.5,50.2,75.2,50.2z"/>
		</g>
		<path class="st1" d="M75.2,52.3L75.2,52.3c-0.7,0-1.3-0.6-1.3-1.3v-3.4c0-0.7,0.6-1.3,1.3-1.3l0,0c0.7,0,1.3,0.6,1.3,1.3v3.4
			C76.5,51.8,75.9,52.3,75.2,52.3z"/>
		<path class="st2" d="M75.4,46.4c0.2,0.2,0.3,0.5,0.3,0.8v3.4c0,0.7-0.6,1.3-1.3,1.3c-0.1,0-0.2,0-0.2,0c0.2,0.3,0.6,0.4,1,0.4l0,0
			c0.7,0,1.3-0.6,1.3-1.3v-3.4C76.5,47.1,76,46.5,75.4,46.4z"/>
		<path class="st3" d="M74.5,49.1c0,0.4,0.1,0.8,0.1,1.1c0,0.1,0,0.2,0.1,0.2c0.1,0.1,0.2,0,0.3,0c0.3-0.2,0.3-0.6,0.3-1
			c0-0.4,0.3-1.8-0.3-1.9C74.2,47.4,74.4,48.8,74.5,49.1z"/>
		<g>
			<path class="st1" d="M75.3,63.5c-1.9,0-3.5-1.6-3.5-3.5c0-1.9,1.6-3.5,3.5-3.5c1.9,0,3.5,1.6,3.5,3.5
				C78.8,61.9,77.3,63.5,75.3,63.5z M75.3,57.7c-1.3,0-2.3,1-2.3,2.3c0,1.3,1,2.3,2.3,2.3c1.3,0,2.3-1,2.3-2.3
				C77.7,58.7,76.6,57.7,75.3,57.7z"/>
		</g>
		<path class="st1" d="M75.3,59.8L75.3,59.8c-0.7,0-1.3-0.6-1.3-1.3v-3.4c0-0.7,0.6-1.3,1.3-1.3l0,0c0.7,0,1.3,0.6,1.3,1.3v3.4
			C76.6,59.2,76,59.8,75.3,59.8z"/>
		<path class="st2" d="M75.6,53.9c0.2,0.2,0.3,0.5,0.3,0.8v3.4c0,0.7-0.6,1.3-1.3,1.3c-0.1,0-0.2,0-0.2,0c0.2,0.3,0.6,0.4,1,0.4l0,0
			c0.7,0,1.3-0.6,1.3-1.3v-3.4C76.6,54.5,76.2,54,75.6,53.9z"/>
		<path class="st3" d="M74.6,56.6c0,0.4,0.1,0.8,0.1,1.1c0,0.1,0,0.2,0.1,0.2c0.1,0.1,0.2,0,0.3,0c0.3-0.2,0.3-0.6,0.3-1
			c0-0.4,0.3-1.8-0.3-1.9C74.4,54.9,74.5,56.3,74.6,56.6z"/>
		<g>
			<path class="st1" d="M75.4,70.7c-1.9,0-3.5-1.6-3.5-3.5c0-1.9,1.6-3.5,3.5-3.5c1.9,0,3.5,1.6,3.5,3.5
				C78.9,69.1,77.3,70.7,75.4,70.7z M75.4,64.9c-1.3,0-2.3,1-2.3,2.3c0,1.3,1,2.3,2.3,2.3c1.3,0,2.3-1,2.3-2.3
				C77.7,65.9,76.6,64.9,75.4,64.9z"/>
		</g>
		<path class="st1" d="M75.4,67L75.4,67c-0.7,0-1.3-0.6-1.3-1.3v-3.4c0-0.7,0.6-1.3,1.3-1.3l0,0c0.7,0,1.3,0.6,1.3,1.3v3.4
			C76.6,66.4,76.1,67,75.4,67z"/>
		<path class="st2" d="M75.6,61.1c0.2,0.2,0.3,0.5,0.3,0.8v3.4c0,0.7-0.6,1.3-1.3,1.3c-0.1,0-0.2,0-0.2,0c0.2,0.3,0.6,0.4,1,0.4l0,0
			c0.7,0,1.3-0.6,1.3-1.3v-3.4C76.6,61.7,76.2,61.2,75.6,61.1z"/>
		<path class="st3" d="M74.6,63.8c0,0.4,0.1,0.8,0.1,1.1c0,0.1,0,0.2,0.1,0.2c0.1,0.1,0.2,0,0.3,0c0.3-0.2,0.3-0.6,0.3-1
			c0-0.4,0.3-1.8-0.3-1.9C74.4,62,74.6,63.4,74.6,63.8z"/>
		<g>
			<path class="st1" d="M75.5,78.2c-1.9,0-3.5-1.6-3.5-3.5c0-1.9,1.6-3.5,3.5-3.5c1.9,0,3.5,1.6,3.5,3.5
				C79,76.6,77.5,78.2,75.5,78.2z M75.5,72.4c-1.3,0-2.3,1-2.3,2.3c0,1.3,1,2.3,2.3,2.3c1.3,0,2.3-1,2.3-2.3
				C77.8,73.4,76.8,72.4,75.5,72.4z"/>
		</g>
		<path class="st1" d="M75.5,74.5L75.5,74.5c-0.7,0-1.3-0.6-1.3-1.3v-3.4c0-0.7,0.6-1.3,1.3-1.3l0,0c0.7,0,1.3,0.6,1.3,1.3v3.4
			C76.8,73.9,76.2,74.5,75.5,74.5z"/>
		<path class="st2" d="M75.8,68.6c0.2,0.2,0.3,0.5,0.3,0.8v3.4c0,0.7-0.6,1.3-1.3,1.3c-0.1,0-0.2,0-0.2,0c0.2,0.3,0.6,0.4,1,0.4l0,0
			c0.7,0,1.3-0.6,1.3-1.3v-3.4C76.8,69.2,76.3,68.7,75.8,68.6z"/>
		<path class="st3" d="M74.8,71.3c0,0.4,0.1,0.8,0.1,1.1c0,0.1,0,0.2,0.1,0.2c0.1,0.1,0.2,0,0.3,0c0.3-0.2,0.3-0.6,0.3-1
			c0-0.4,0.3-1.8-0.3-1.9C74.6,69.5,74.7,70.9,74.8,71.3z"/>
		<g>
			<path class="st1" d="M75.7,85.5c-1.9,0-3.5-1.6-3.5-3.5c0-1.9,1.6-3.5,3.5-3.5c1.9,0,3.5,1.6,3.5,3.5
				C79.2,83.9,77.6,85.5,75.7,85.5z M75.7,79.7c-1.3,0-2.3,1-2.3,2.3c0,1.3,1,2.3,2.3,2.3c1.3,0,2.3-1,2.3-2.3
				C78,80.7,77,79.7,75.7,79.7z"/>
		</g>
		<path class="st1" d="M75.7,81.8L75.7,81.8c-0.7,0-1.3-0.6-1.3-1.3v-3.4c0-0.7,0.6-1.3,1.3-1.3l0,0c0.7,0,1.3,0.6,1.3,1.3v3.4
			C76.9,81.2,76.4,81.8,75.7,81.8z"/>
		<path class="st2" d="M75.9,75.9c0.2,0.2,0.3,0.5,0.3,0.8v3.4c0,0.7-0.6,1.3-1.3,1.3c-0.1,0-0.2,0-0.2,0c0.2,0.3,0.6,0.4,1,0.4l0,0
			c0.7,0,1.3-0.6,1.3-1.3v-3.4C76.9,76.5,76.5,76,75.9,75.9z"/>
		<path class="st3" d="M74.9,78.6c0,0.4,0.1,0.8,0.1,1.1c0,0.1,0,0.2,0.1,0.2c0.1,0.1,0.2,0,0.3,0c0.3-0.2,0.3-0.6,0.3-1
			c0-0.4,0.3-1.8-0.3-1.9C74.7,76.9,74.9,78.3,74.9,78.6z"/>
	</g>
	<g>
		<path class="st1" d="M75,146c-16.8,0-30.5-13.7-30.5-30.5S58.2,85,75,85s30.5,13.7,30.5,30.5S91.8,146,75,146z M75,88.5
			c-14.9,0-27,12.1-27,27c0,14.9,12.1,27,27,27c14.9,0,27-12.1,27-27C102,100.6,89.9,88.5,75,88.5z"/>
	</g>
	<g>
		<path class="st0" d="M98.2,95.7c4.1,5.2,6.5,11.7,6.5,18.8c0,16.8-13.7,30.5-30.5,30.5c-9.3,0-17.6-4.1-23.2-10.7
			c5.6,7.1,14.3,11.7,24,11.7c16.8,0,30.5-13.7,30.5-30.5C105.5,107.9,102.7,101,98.2,95.7z"/>
		<path class="st0" d="M74.2,87.5c-14.9,0-27,12.1-27,27c0,6.7,2.5,12.9,6.6,17.6c-3.6-4.6-5.7-10.3-5.7-16.6c0-14.9,12.1-27,27-27
			c8.1,0,15.5,3.6,20.4,9.4C90.5,91.6,82.8,87.5,74.2,87.5z"/>
	</g>
	
		<ellipse transform="matrix(0.1701 -0.9854 0.9854 0.1701 -51.8559 170.0203)" class="st4" cx="75" cy="115.8" rx="23.5" ry="23.5"/>
	<path class="st5" d="M86.8,95.5c4.7,4.3,7.6,10.5,7.6,17.3c0,13-10.5,23.5-23.5,23.5c-4.3,0-8.3-1.2-11.8-3.2
		c4.2,3.8,9.7,6.1,15.8,6.1c13,0,23.5-10.5,23.5-23.5C98.5,107.1,93.8,99.6,86.8,95.5z"/>
	<path class="st6" d="M98.3,113.1c-0.5-4.4-2.3-8.5-4.9-11.8c-0.6,0.1-1.2,0-1.9-0.3c-0.9-0.4-1.8-1-2.7-1.3
		c-0.9-0.2-1.9-0.1-2.8,0.1c-2.3,0.4-4.7,1-6.9,1.6c-0.3,0.1-0.7,0.2-1,0c-0.5-0.2-0.4-1.1,0.1-1.3c-0.1-0.3-0.5-0.4-0.8-0.3
		s-0.6,0.4-0.9,0.5c-0.3,0.1-0.5,0-0.8,0c-2.8-0.4-5.8,0.8-7.5,3.1c-0.8,1.1-1.3,2.4-1.2,3.7c0.1,1.3,0.9,2.6,2.2,3.1
		c2,0.7,4.4-0.9,6.4,0c0.5,0.2,1,0.6,1.5,0.9c0.9,0.5,2.1,0.5,3,0.1c0.3-0.1,0.6-0.3,0.9-0.3c0.3,0.1,0.6,0.3,0.7,0.6
		c0.2,0.3,0.3,0.5,0.4,0.8c0.1,0.9-0.9,1.7-1.8,1.8c-1.4,0.2-2.7-0.5-4-0.9c-1.3-0.4-2.9-0.7-4,0.2c-0.6,0.4-0.9,1.1-1.3,1.6
		c-1.2,1.8-2.8,3.4-3.4,5.4c-0.2,0.5-0.3,1.1-0.1,1.7c0.2,0.5,0.6,0.8,0.9,1.1c3,2.7,6.5,5.3,7.7,9.1c0.2,0.8,0.4,1.6,0.7,2.4
		c0.4,0.7,1,1.4,1.8,1.6c0.2,0,0.5,0,0.7-0.1c0.3-0.2,0.5-0.5,0.6-0.8c0.7-1.8,0.8-3.8,0.8-5.8c0-0.8,0-1.6,0.4-2.2
		c0.6-1.1,2.1-1.4,3.3-1.7c2.1-0.5,4.2-1.6,5.5-3.4c1.3-1.8,1.5-4.4,0.1-6.1c-0.5-0.7-1.4-1.3-1.2-2.2c0.1-0.9,1.2-1.3,2.1-1.2
		c0.9,0.1,1.7,0.6,2.3,1.3c0.5,0.6,0.7,1.4,1.1,2.1c0.4,0.7,1.1,1.3,1.9,1.3c0.6,0,1.1-0.4,1.3-0.9c0.3-0.6,0.1-1.3,0.2-2
		C97.6,114.1,98,113.6,98.3,113.1z"/>
	<path class="st6" d="M51.6,115.7c0,6.9,3,13.1,7.7,17.3c0.1-0.5,0.3-0.9,0.5-1.4c0.3-0.6,0.7-1.1,0.9-1.8c0.2-0.6,0.3-1.4-0.2-1.9
		c-0.3-0.4-0.8-0.6-1.3-0.8c-1-0.6-1.6-1.9-1.1-2.9c0.5-1,1.9-1.4,2.3-2.4c0.6-1.2-0.4-2.5-1.3-3.5c-0.8-0.9-1.8-1.9-3-2.1
		c-0.6-0.1-1.3,0.1-1.8-0.3c-0.7-0.4-0.7-1.4-0.6-2.2c1-0.6,2.4,0.4,3.5,0c0.9-0.3,1.2-1.3,1.2-2.3c-0.1-0.9-0.5-1.7-0.8-2.6
		c-0.1-0.2-0.1-0.4,0-0.6c0.1-0.3,0.3-0.4,0.5-0.6c1.2-1,2.5-2.1,4.1-2.5c0.9-0.3,1.9-0.4,2.7-0.9c0.8-0.6,1.2-1.7,1.3-2.7
		c0.1-1.9-1-3.8-2.7-4.7c-0.6-0.3-1.1-0.5-1.7-0.6C55.6,100.6,51.6,107.7,51.6,115.7z"/>
	<path class="st7" d="M58.4,103.4c-2.6,3.6-3.6,8.4-2.2,12.7c0.2,0.7,0.7,1.4,1.4,1.3c0.3,0,0.6-0.3,0.8-0.5
		c0.7-0.8,1.1-1.9,1.4-2.9c0.5-2.1,0.4-4.3,1.1-6.3c1-2.9,3.6-5.3,6.6-6c1-0.2,1.9-0.3,2.9-0.5c1-0.2,1.9-0.6,2.6-1.3
		c0.6-0.7,0.9-1.9,0.4-2.7c-0.3-0.5-0.7-0.8-1.2-1c-2.6-1.4-5.1,0.3-7.4,1.6C62.4,99.1,60.1,101,58.4,103.4z"/>
	<path class="st7" d="M77.9,99.2c1.1,1,2.6,1.4,4.1,1.4c0.6,0,1.2,0,1.8-0.3c0.5-0.3,1-0.8,0.9-1.4c0-0.2-0.1-0.4-0.2-0.6
		c-0.4-0.8-1.1-1.5-1.9-1.9c-0.8-0.5-1.7-0.8-2.5-1.1c-1.2-0.4-2.7-0.8-3.2,0.6C76.6,97,77.1,98.4,77.9,99.2z"/>
</g>
</svg>
