<?xml version="1.0" encoding="utf-8"?>
<!-- Generator: Adobe Illustrator 26.5.0, SVG Export Plug-In . SVG Version: 6.00 Build 0)  -->
<svg version="1.1" id="Layer_1" xmlns="http://www.w3.org/2000/svg" xmlns:xlink="http://www.w3.org/1999/xlink" x="0px" y="0px"
	 viewBox="0 0 150 150" style="enable-background:new 0 0 150 150;" xml:space="preserve">
<style type="text/css">
	.st0{fill:#BCBABD;}
	.st1{fill:#333333;}
	.st2{clip-path:url(#SVGID_00000128445235209467137640000010283342901945942657_);}
</style>
<g>
	<path class="st0" d="M134.4,9.2c-8.4-2-22.2-2-30.7,0c-8.4,2-15.3,13.2-15.3,25c0,11.8,6.9,23,15.3,25c2.2,0.5,3.6,0.9,6.3,1.1
		v76.4c0,3,2.5,5.5,5.5,5.5h6.2c3,0,5.5-2.5,5.5-5.5V60.4c3-0.2,4.8-0.6,7.2-1.2c8.4-2,15.3-13.2,15.3-25
		C149.7,22.5,142.8,11.2,134.4,9.2z M127,28.1h-16c-2.7,0-5-2.2-5-5c0-2.7,2.2-5,5-5h16c2.7,0,5,2.2,5,5
		C132,25.9,129.8,28.1,127,28.1z"/>
	<g>
		<path class="st1" d="M119,58.6c-5.2,0-10-0.5-13.7-1.3C97.4,55.4,91,45.1,91,34.2c0-10.8,6.4-21.2,14.3-23
			c3.7-0.9,8.5-1.3,13.7-1.3c5.2,0,10,0.5,13.7,1.3c7.9,1.9,14.3,12.2,14.3,23c0,10.8-6.4,21.2-14.3,23
			C129.1,58.1,124.2,58.6,119,58.6z M119,12.1c-5,0-9.7,0.5-13.2,1.3c-7,1.6-12.6,11-12.6,20.9c0,9.9,5.7,19.2,12.6,20.9
			c3.5,0.8,8.2,1.3,13.2,1.3c5,0,9.7-0.5,13.2-1.3c7-1.6,12.6-11,12.6-20.9c0-9.9-5.7-19.2-12.6-20.9C128.7,12.6,124,12.1,119,12.1z
			"/>
	</g>
	<rect x="105.5" y="34.2" class="st1" width="27" height="12.3"/>
	<g>
		<defs>
			<path id="SVGID_1_" d="M134.4,9.2c-8.4-2-22.2-2-30.7,0c-8.4,2-15.3,13.2-15.3,25c0,11.8,6.9,23,15.3,25c2.2,0.5,3.6,0.9,6.3,1.1
				v76.4c0,3,2.5,5.5,5.5,5.5h6.2c3,0,5.5-2.5,5.5-5.5V60.4c3-0.2,4.8-0.6,7.2-1.2c8.4-2,15.3-13.2,15.3-25
				C149.7,22.5,142.8,11.2,134.4,9.2z M127,28.1h-16c-2.7,0-5-2.2-5-5c0-2.7,2.2-5,5-5h16c2.7,0,5,2.2,5,5
				C132,25.9,129.8,28.1,127,28.1z"/>
		</defs>
		<clipPath id="SVGID_00000061466725427722662320000012035211762416112311_">
			<use xlink:href="#SVGID_1_"  style="overflow:visible;"/>
		</clipPath>
		<g style="clip-path:url(#SVGID_00000061466725427722662320000012035211762416112311_);">
			<path class="st1" d="M115.5,66.3c-0.8,0-1.5,0.7-1.5,1.5V143c0.8,0.5,1.7,0.7,2.7,0.7h0.3V67.8C117,67,116.4,66.3,115.5,66.3z"/>
			<g>
				<path class="st1" d="M123.8,74.7c0,1-0.8,1.8-1.8,1.8c-1,0-1.8-0.8-1.8-1.8c0-1,0.8-1.8,1.8-1.8C123,72.9,123.8,73.7,123.8,74.7
					z"/>
				<path class="st1" d="M123.8,85.1c0,1.1-0.9,2-2,2c-1.1,0-2-0.9-2-2c0-1.1,0.9-2,2-2C122.9,83.1,123.8,84,123.8,85.1z"/>
				<path class="st1" d="M123.8,93.2c0,1-0.8,1.8-1.8,1.8c-1,0-1.8-0.8-1.8-1.8c0-1,0.8-1.8,1.8-1.8C123,91.4,123.8,92.2,123.8,93.2
					z"/>
				<path class="st1" d="M124.1,108.2c0,1.1-0.9,2-2,2c-1.1,0-2-0.9-2-2c0-1.1,0.9-2,2-2C123.1,106.1,124.1,107,124.1,108.2z"/>
				<path class="st1" d="M123.8,116.3c0,1-0.8,1.8-1.8,1.8c-1,0-1.8-0.8-1.8-1.8c0-1,0.8-1.8,1.8-1.8
					C123,114.5,123.8,115.3,123.8,116.3z"/>
				<path class="st1" d="M124.1,130.2c0,1.1-0.9,2-2,2c-1.1,0-2-0.9-2-2c0-1.1,0.9-2,2-2C123.1,128.2,124.1,129.1,124.1,130.2z"/>
			</g>
		</g>
	</g>
</g>
<g>
	<path class="st0" d="M63.7,37.2c0-17.1-13.9-31-31-31c-17.1,0-31,13.9-31,31c0,14.3,9.7,26.3,22.8,29.9v69.3l8.6,7.2
		c0.3,0.3,0.7,0.2,1.2-0.4l5.1-6.3c0.8-1,1.4-2.8,1.4-4v-3.8c0-1.2-0.9-2.8-2-3.4l-0.1,0c-1.1-0.6-1.4-2-0.8-3.1l1.7-2.9
		c0.6-1.1,1.1-3,1.1-4.2v-1.5c0-1.2-0.7-2.9-1.6-3.8l-0.7-0.7c-0.9-0.8-1-2.3-0.1-3.2l0.9-1c0.8-0.9,1.5-2.7,1.5-3.9v-4.7
		c0-1.2-0.8-2.9-1.8-3.6l-0.4-0.3c-1-0.7-0.9-1.9,0.2-2.5l0.1,0c1.1-0.6,2-2.1,2-3.4V67.1C54.1,63.5,63.7,51.5,63.7,37.2z
		 M32.7,35.7c-5.2,0-9.5-4.2-9.5-9.5c0-5.2,4.2-9.5,9.5-9.5c5.2,0,9.5,4.2,9.5,9.5C42.2,31.5,38,35.7,32.7,35.7z"/>
	<g>
		<path class="st1" d="M32.7,66C16.9,66,4,53.1,4,37.2C4,21.4,16.9,8.5,32.7,8.5c15.9,0,28.7,12.9,28.7,28.7
			C61.5,53.1,48.6,66,32.7,66z M32.7,10.8c-14.6,0-26.5,11.9-26.5,26.5c0,14.6,11.9,26.5,26.5,26.5c14.6,0,26.5-11.9,26.5-26.5
			C59.2,22.6,47.3,10.8,32.7,10.8z"/>
	</g>
	<path class="st1" d="M30.7,128.8c0,0.9-0.8,1.7-1.7,1.7l0,0c-0.9,0-1.7-0.8-1.7-1.7V59.2c0-0.9,0.8-1.7,1.7-1.7l0,0
		c0.9,0,1.7,0.8,1.7,1.7V128.8z"/>
	<path class="st1" d="M39.2,86c0,0.9-0.8,1.7-1.7,1.7l0,0c-0.9,0-1.7-0.8-1.7-1.7V59.2c0-0.9,0.8-1.7,1.7-1.7l0,0
		c0.9,0,1.7,0.8,1.7,1.7V86z"/>
</g>
</svg>
