<?xml version="1.0" encoding="utf-8"?>
<!-- Generator: Adobe Illustrator 26.5.0, SVG Export Plug-In . SVG Version: 6.00 Build 0)  -->
<svg version="1.1" xmlns="http://www.w3.org/2000/svg" xmlns:xlink="http://www.w3.org/1999/xlink" x="0px" y="0px"
	 viewBox="0 0 150 150" style="enable-background:new 0 0 150 150;" xml:space="preserve">
<g id="Layer_1">
	<g>
		
			<image style="overflow:visible;" width="96" height="96" xlink:href="9E10BD0F.png"  transform="matrix(0.24 0 0 0.24 74.88 2.88)">
		</image>
		
			<image style="overflow:visible;" width="191" height="191" xlink:href="9E10BD0D.png"  transform="matrix(0.24 0 0 0.24 52.08 2.88)">
		</image>
	</g>
	<g>
		
			<image style="overflow:visible;" width="23" height="34" xlink:href="9E10BD13.png"  transform="matrix(0.24 0 0 0.24 74.88 50.4)">
		</image>
		
			<image style="overflow:visible;" width="45" height="57" xlink:href="9E10BD15.png"  transform="matrix(0.24 0 0 0.24 69.6 50.4)">
		</image>
	</g>
	<g>
		
			<image style="overflow:visible;" width="33" height="33" xlink:href="9E10BD17.png"  transform="matrix(0.24 0 0 0.24 71.04 87.84)">
		</image>
	</g>
	<g>
		
			<image style="overflow:visible;" width="23" height="34" xlink:href="9E10BD14.png"  transform="matrix(0.24 0 0 0.24 74.88 68.16)">
		</image>
		
			<image style="overflow:visible;" width="45" height="57" xlink:href="9E10BD1C.png"  transform="matrix(0.24 0 0 0.24 69.6 68.16)">
		</image>
	</g>
	<g>
		<g>
			<image style="overflow:visible;" width="15" height="53" xlink:href="9E10BD1D.png"  transform="matrix(0.24 0 0 0.24 73.2 78)">
			</image>
		</g>
	</g>
	<g>
		<g>
			
				<image style="overflow:visible;" width="15" height="53" xlink:href="9E10BD1F.png"  transform="matrix(0.24 0 0 0.24 73.2 59.28)">
			</image>
		</g>
	</g>
	<g>
		<g>
			
				<image style="overflow:visible;" width="15" height="53" xlink:href="D86B533C.png"  transform="matrix(0.24 0 0 0.24 73.2 41.52)">
			</image>
		</g>
	</g>
	<image style="overflow:visible;" width="25" height="24" xlink:href="D86B533B.png"  transform="matrix(0.24 0 0 0.24 72 93.12)">
	</image>
	
		<image style="overflow:visible;" width="209" height="209" xlink:href="D86B5334.png"  transform="matrix(0.24 0 0 0.24 49.92 96.96)">
	</image>
</g>
<g id="Layer_2">
</g>
</svg>
