<?xml version="1.0" encoding="utf-8"?>
<!-- Generator: Adobe Illustrator 26.5.0, SVG Export Plug-In . SVG Version: 6.00 Build 0)  -->
<svg version="1.1" id="Layer_1" xmlns="http://www.w3.org/2000/svg" xmlns:xlink="http://www.w3.org/1999/xlink" x="0px" y="0px"
	 viewBox="0 0 150 150" style="enable-background:new 0 0 150 150;" xml:space="preserve">
<style type="text/css">
	.st0{clip-path:url(#SVGID_00000011735168575009341010000013808149877039085441_);}
	.st1{fill:url(#SVGID_00000075882240666887412610000011582224699352869524_);}
	.st2{opacity:0.5;}
	.st3{fill:#1D1D1E;}
	.st4{fill:#303031;}
	.st5{fill:#403F41;}
	.st6{fill:#48484A;}
	.st7{fill:#4F5052;}
	.st8{fill:#57575A;}
	.st9{fill:#5E5F61;}
	.st10{fill:#656668;}
	.st11{fill:#6B6C6F;}
	.st12{fill:#717376;}
	.st13{fill:#78797C;}
	.st14{fill:#7E8082;}
	.st15{fill:#848688;}
	.st16{fill:#8A8C8F;}
	.st17{fill:#909295;}
	.st18{fill:#96989B;}
	.st19{fill:#9D9FA1;}
	.st20{fill:#A3A5A8;}
	.st21{fill:#AAACAE;}
	.st22{fill:#B0B2B5;}
	.st23{fill:#B7B9BB;}
	.st24{fill:#BEC0C2;}
	.st25{fill:#C5C7C9;}
	.st26{fill:#CCCDCF;}
	.st27{fill:#D3D4D6;}
	.st28{fill:#D9DBDC;}
	.st29{fill:#E0E1E2;}
	.st30{fill:#E7E8E9;}
	.st31{fill:#EEEFEF;}
	.st32{fill:#F5F5F6;}
	.st33{fill:#FFFFFF;}
	.st34{clip-path:url(#SVGID_00000106836218327750950260000008048038469950456448_);}
	.st35{clip-path:url(#SVGID_00000080917294968819604360000006028622158705807017_);}
	.st36{clip-path:url(#SVGID_00000133529658916285868040000017789289102164433045_);}
	.st37{clip-path:url(#SVGID_00000160910063474212426360000002855628946114531217_);}
	.st38{clip-path:url(#SVGID_00000028309780371506909100000005441820426392589464_);}
	.st39{clip-path:url(#SVGID_00000142157814092474617490000011115401403367865787_);}
</style>
<g>
	<g>
		<g>
			<g>
				<defs>
					<path id="SVGID_1_" d="M75,77.6c-7.5,0-13.7,6.2-13.7,13.7v38.5c0,7.5,6.2,13.7,13.7,13.7c7.5,0,13.7-6.2,13.7-13.7V91.3
						C88.7,83.8,82.5,77.6,75,77.6z M75,84.8c-1.5,0-2.7-1.2-2.7-2.7c0-1.5,1.2-2.7,2.7-2.7c1.5,0,2.7,1.2,2.7,2.7
						C77.7,83.6,76.5,84.8,75,84.8z"/>
				</defs>
				<clipPath id="SVGID_00000137817396627766320780000010642087571735593885_">
					<use xlink:href="#SVGID_1_"  style="overflow:visible;"/>
				</clipPath>
				<g style="clip-path:url(#SVGID_00000137817396627766320780000010642087571735593885_);">
					
						<image style="overflow:visible;" width="115" height="276" xlink:href="1A3B1AD8.png"  transform="matrix(0.24 0 0 0.24 61.2 77.52)">
					</image>
				</g>
				<g style="clip-path:url(#SVGID_00000137817396627766320780000010642087571735593885_);">
					
						<image style="overflow:visible;" width="117" height="278" xlink:href="1A3B1ADF.png"  transform="matrix(0.24 0 0 0.24 60.96 77.28)">
					</image>
				</g>
				<g style="clip-path:url(#SVGID_00000137817396627766320780000010642087571735593885_);">
					
						<image style="overflow:visible;" width="117" height="278" xlink:href="1A3B1AD5.png"  transform="matrix(0.24 0 0 0.24 60.96 77.28)">
					</image>
				</g>
				<g style="clip-path:url(#SVGID_00000137817396627766320780000010642087571735593885_);">
					
						<image style="overflow:visible;" width="31" height="32" xlink:href="1A3B1AD6.png"  transform="matrix(0.24 0 0 0.24 71.28 78.24)">
					</image>
				</g>
				<g style="clip-path:url(#SVGID_00000137817396627766320780000010642087571735593885_);">
					
						<image style="overflow:visible;" width="31" height="32" xlink:href="1A3B1AD7.png"  transform="matrix(0.24 0 0 0.24 71.28 78.24)">
					</image>
				</g>
			</g>
			
				<image style="overflow:visible;" width="79" height="181" xlink:href="1A3B1AE6.png"  transform="matrix(0.24 0 0 0.24 65.52 87.6)">
			</image>
			
				<linearGradient id="SVGID_00000075120120728926177480000009563692616409939593_" gradientUnits="userSpaceOnUse" x1="90.0714" y1="86.9858" x2="58.7343" y2="133.4053">
				<stop  offset="0" style="stop-color:#FFFFFF"/>
				<stop  offset="1" style="stop-color:#E0E1E0"/>
			</linearGradient>
			<path style="fill:url(#SVGID_00000075120120728926177480000009563692616409939593_);" d="M83.9,129.6c0,0.5-0.4,0.9-0.9,0.9H67
				c-0.5,0-0.9-0.4-0.9-0.9V89c0-0.5,0.4-0.9,0.9-0.9H83c0.5,0,0.9,0.4,0.9,0.9V129.6z"/>
			<g class="st2">
				<path d="M83.9,129.6c0,0.5-0.4,0.9-0.9,0.9H67c-0.5,0-0.9-0.4-0.9-0.9V89c0-0.5,0.4-0.9,0.9-0.9H83c0.5,0,0.9,0.4,0.9,0.9V129.6
					z"/>
				<path class="st3" d="M83.9,129.6c0,0.5-0.4,0.9-0.9,0.9H67.1c-0.5,0-0.9-0.4-0.9-0.9V89c0-0.5,0.4-0.9,0.9-0.9H83
					c0.5,0,0.9,0.4,0.9,0.9V129.6z"/>
				<path class="st4" d="M83.9,129.6c0,0.5-0.4,0.9-0.9,0.9H67.1c-0.5,0-0.9-0.4-0.9-0.9V89.1c0-0.5,0.4-0.9,0.9-0.9H83
					c0.5,0,0.9,0.4,0.9,0.9V129.6z"/>
				<path class="st5" d="M83.9,129.5c0,0.5-0.4,0.9-0.9,0.9H67.1c-0.5,0-0.9-0.4-0.9-0.9V89.1c0-0.5,0.4-0.9,0.9-0.9H83
					c0.5,0,0.9,0.4,0.9,0.9V129.5z"/>
				<path class="st6" d="M83.9,129.5c0,0.5-0.4,0.9-0.9,0.9H67.1c-0.5,0-0.9-0.4-0.9-0.9V89.1c0-0.5,0.4-0.9,0.9-0.9H83
					c0.5,0,0.9,0.4,0.9,0.9V129.5z"/>
				<path class="st7" d="M83.9,129.5c0,0.5-0.4,0.9-0.9,0.9H67.2c-0.5,0-0.9-0.4-0.9-0.9V89.1c0-0.5,0.4-0.9,0.9-0.9H83
					c0.5,0,0.9,0.4,0.9,0.9V129.5z"/>
				<path class="st8" d="M83.9,129.5c0,0.5-0.4,0.9-0.9,0.9H67.2c-0.5,0-0.9-0.4-0.9-0.9V89.1c0-0.5,0.4-0.9,0.9-0.9H83
					c0.5,0,0.9,0.4,0.9,0.9V129.5z"/>
				<path class="st9" d="M83.9,129.5c0,0.5-0.4,0.9-0.9,0.9H67.2c-0.5,0-0.9-0.4-0.9-0.9V89.1c0-0.5,0.4-0.9,0.9-0.9H83
					c0.5,0,0.9,0.4,0.9,0.9V129.5z"/>
				<path class="st10" d="M83.9,129.5c0,0.5-0.4,0.9-0.9,0.9H67.2c-0.5,0-0.9-0.4-0.9-0.9V89.1c0-0.5,0.4-0.9,0.9-0.9H83
					c0.5,0,0.9,0.4,0.9,0.9V129.5z"/>
				<path class="st11" d="M83.9,129.5c0,0.5-0.4,0.9-0.9,0.9H67.3c-0.5,0-0.9-0.4-0.9-0.9V89.2c0-0.5,0.4-0.9,0.9-0.9H83
					c0.5,0,0.9,0.4,0.9,0.9V129.5z"/>
				<path class="st12" d="M83.9,129.4c0,0.5-0.4,0.9-0.9,0.9H67.3c-0.5,0-0.9-0.4-0.9-0.9V89.2c0-0.5,0.4-0.9,0.9-0.9H83
					c0.5,0,0.9,0.4,0.9,0.9V129.4z"/>
				<path class="st13" d="M83.9,129.4c0,0.5-0.4,0.9-0.9,0.9H67.3c-0.5,0-0.9-0.4-0.9-0.9V89.2c0-0.5,0.4-0.9,0.9-0.9H83
					c0.5,0,0.9,0.4,0.9,0.9V129.4z"/>
				<path class="st14" d="M83.9,129.4c0,0.5-0.4,0.9-0.9,0.9H67.3c-0.5,0-0.9-0.4-0.9-0.9V89.2c0-0.5,0.4-0.9,0.9-0.9H83
					c0.5,0,0.9,0.4,0.9,0.9V129.4z"/>
				<path class="st15" d="M83.9,129.4c0,0.5-0.4,0.9-0.9,0.9H67.4c-0.5,0-0.9-0.4-0.9-0.9V89.2c0-0.5,0.4-0.9,0.9-0.9H83
					c0.5,0,0.9,0.4,0.9,0.9V129.4z"/>
				<path class="st16" d="M83.9,129.4c0,0.5-0.4,0.9-0.9,0.9H67.4c-0.5,0-0.9-0.4-0.9-0.9V89.2c0-0.5,0.4-0.9,0.9-0.9H83
					c0.5,0,0.9,0.4,0.9,0.9V129.4z"/>
				<path class="st17" d="M83.9,129.4c0,0.5-0.4,0.9-0.9,0.9H67.4c-0.5,0-0.9-0.4-0.9-0.9V89.2c0-0.5,0.4-0.9,0.9-0.9H83
					c0.5,0,0.9,0.4,0.9,0.9V129.4z"/>
				<path class="st18" d="M83.9,129.4c0,0.5-0.4,0.9-0.9,0.9H67.4c-0.5,0-0.9-0.4-0.9-0.9V89.3c0-0.5,0.4-0.9,0.9-0.9H83
					c0.5,0,0.9,0.4,0.9,0.9V129.4z"/>
				<path class="st19" d="M83.9,129.3c0,0.5-0.4,0.9-0.9,0.9H67.5c-0.5,0-0.9-0.4-0.9-0.9V89.3c0-0.5,0.4-0.9,0.9-0.9H83
					c0.5,0,0.9,0.4,0.9,0.9V129.3z"/>
				<path class="st20" d="M83.9,129.3c0,0.5-0.4,0.9-0.9,0.9H67.5c-0.5,0-0.9-0.4-0.9-0.9v-40c0-0.5,0.4-0.9,0.9-0.9H83
					c0.5,0,0.9,0.4,0.9,0.9V129.3z"/>
				<path class="st21" d="M83.9,129.3c0,0.5-0.4,0.9-0.9,0.9H67.5c-0.5,0-0.9-0.4-0.9-0.9v-40c0-0.5,0.4-0.9,0.9-0.9H83
					c0.5,0,0.9,0.4,0.9,0.9V129.3z"/>
				<path class="st22" d="M83.9,129.3c0,0.5-0.4,0.9-0.9,0.9H67.6c-0.5,0-0.9-0.4-0.9-0.9v-40c0-0.5,0.4-0.9,0.9-0.9H83
					c0.5,0,0.9,0.4,0.9,0.9V129.3z"/>
				<path class="st23" d="M83.9,129.3c0,0.5-0.4,0.9-0.9,0.9H67.6c-0.5,0-0.9-0.4-0.9-0.9v-40c0-0.5,0.4-0.9,0.9-0.9H83
					c0.5,0,0.9,0.4,0.9,0.9V129.3z"/>
				<path class="st24" d="M83.9,129.3c0,0.5-0.4,0.9-0.9,0.9H67.6c-0.5,0-0.9-0.4-0.9-0.9V89.3c0-0.5,0.4-0.9,0.9-0.9H83
					c0.5,0,0.9,0.4,0.9,0.9V129.3z"/>
				<path class="st25" d="M83.9,129.3c0,0.5-0.4,0.9-0.9,0.9H67.6c-0.5,0-0.9-0.4-0.9-0.9V89.4c0-0.5,0.4-0.9,0.9-0.9H83
					c0.5,0,0.9,0.4,0.9,0.9V129.3z"/>
				<path class="st26" d="M83.9,129.2c0,0.5-0.4,0.9-0.9,0.9H67.7c-0.5,0-0.9-0.4-0.9-0.9V89.4c0-0.5,0.4-0.9,0.9-0.9H83
					c0.5,0,0.9,0.4,0.9,0.9V129.2z"/>
				<path class="st27" d="M83.9,129.2c0,0.5-0.4,0.9-0.9,0.9H67.7c-0.5,0-0.9-0.4-0.9-0.9V89.4c0-0.5,0.4-0.9,0.9-0.9H83
					c0.5,0,0.9,0.4,0.9,0.9V129.2z"/>
				<path class="st28" d="M83.9,129.2c0,0.5-0.4,0.9-0.9,0.9H67.7c-0.5,0-0.9-0.4-0.9-0.9V89.4c0-0.5,0.4-0.9,0.9-0.9H83
					c0.5,0,0.9,0.4,0.9,0.9V129.2z"/>
				<path class="st29" d="M83.9,129.2c0,0.5-0.4,0.9-0.9,0.9H67.7c-0.5,0-0.9-0.4-0.9-0.9V89.4c0-0.5,0.4-0.9,0.9-0.9H83
					c0.5,0,0.9,0.4,0.9,0.9V129.2z"/>
				<path class="st30" d="M83.9,129.2c0,0.5-0.4,0.9-0.9,0.9H67.8c-0.5,0-0.9-0.4-0.9-0.9V89.4c0-0.5,0.4-0.9,0.9-0.9H83
					c0.5,0,0.9,0.4,0.9,0.9V129.2z"/>
				<path class="st31" d="M83.9,129.2c0,0.5-0.4,0.9-0.9,0.9H67.8c-0.5,0-0.9-0.4-0.9-0.9V89.5c0-0.5,0.4-0.9,0.9-0.9H83
					c0.5,0,0.9,0.4,0.9,0.9V129.2z"/>
				<path class="st32" d="M83.9,129.2c0,0.5-0.4,0.9-0.9,0.9H67.8c-0.5,0-0.9-0.4-0.9-0.9V89.5c0-0.5,0.4-0.9,0.9-0.9H83
					c0.5,0,0.9,0.4,0.9,0.9V129.2z"/>
				<path class="st33" d="M83.9,129.1c0,0.5-0.4,0.9-0.9,0.9H67.8c-0.5,0-0.9-0.4-0.9-0.9V89.5c0-0.5,0.4-0.9,0.9-0.9H83
					c0.5,0,0.9,0.4,0.9,0.9V129.1z"/>
			</g>
		</g>
		<g>
			<g>
				<defs>
					<path id="SVGID_00000018932687810447235660000014660342627952935861_" d="M80.3,77.1c-0.2,0.8-3,2.1-3.3,2.6
						c-0.4,0.4-1.6,1-2.2,1c-0.6,0-1.6-0.6-1.6-0.6s0.4-0.4,1.1-0.6c0.1,0,0.4-0.1,0.4-0.1l-2.3-1.5l-0.9,0.2c0,0-2.1-0.3-0.9-2.7
						c1.2-2.4,2.1-6.6,5.1-5.9c3,0.7,4.8,1.4,5,3.5C80.9,75,80.3,77.1,80.3,77.1z"/>
				</defs>
				<clipPath id="SVGID_00000121269143422376931270000008207618926008196244_">
					<use xlink:href="#SVGID_00000018932687810447235660000014660342627952935861_"  style="overflow:visible;"/>
				</clipPath>
				<g style="clip-path:url(#SVGID_00000121269143422376931270000008207618926008196244_);">
					
						<image style="overflow:visible;" width="32" height="36" xlink:href="1A3B1AE9.png"  transform="matrix(0.24 0 0 0.24 71.04 71.52)">
					</image>
				</g>
			</g>
			<g>
				<g>
					
						<image style="overflow:visible;" width="100" height="100" xlink:href="1A3B1AEA.png"  transform="matrix(0.24 0 0 0.24 62.88 6.24)">
					</image>
				</g>
				<g>
					<defs>
						<path id="SVGID_00000075865140720303711910000005970149314651255960_" d="M75,28.3c0,0-1.2,0-1.9-0.2
							c-0.6-0.1-1.2-1.2,1.1-1.2c2.3,0,5,1.2,4.9,2.3c-0.1,1.2,0.2,5.9-0.9,7.7c-1.1,1.8-1.3,2.6-2.9,2.6c-1.6-0.1-2.8,0.7-3.2-0.5
							c-0.4-1.2-0.4-8.1-0.2-8.4c0.2-0.3,0.7-0.8,0.7-0.8s0.8,0.1,1.1,0.2C74,30,75,28.3,75,28.3z"/>
					</defs>
					<clipPath id="SVGID_00000003069826568142523090000015142853343499462575_">
						<use xlink:href="#SVGID_00000075865140720303711910000005970149314651255960_"  style="overflow:visible;"/>
					</clipPath>
					<g style="clip-path:url(#SVGID_00000003069826568142523090000015142853343499462575_);">
						
							<image style="overflow:visible;" width="20" height="45" xlink:href="1A3B1AE8.png"  transform="matrix(0.24 0 0 0.24 72.48 27.36)">
						</image>
					</g>
				</g>
				<g>
					<defs>
						<path id="SVGID_00000041998776282172728290000013986605859404895375_" d="M75,37.2c0,0,0.6,0,1-0.7c0.3-0.5,1.9-0.8-0.4-0.8
							s-5,1.2-4.9,2.3c0.1,1.2-0.2,5.9,0.9,7.7c1.1,1.8,1.3,2.6,2.9,2.6c1.6-0.1,2.8,0.7,3.2-0.5c0.4-1.2,0.4-8.1,0.2-8.4
							c-0.2-0.3-1.2-2.3-1.2-2.3s-0.3,0.5-0.9,0.8C75.6,38.1,75,37.2,75,37.2z"/>
					</defs>
					<clipPath id="SVGID_00000051379348480920599440000008287974660423609995_">
						<use xlink:href="#SVGID_00000041998776282172728290000013986605859404895375_"  style="overflow:visible;"/>
					</clipPath>
					<g style="clip-path:url(#SVGID_00000051379348480920599440000008287974660423609995_);">
						
							<image style="overflow:visible;" width="20" height="46" xlink:href="CA8AE1DD.png"  transform="matrix(0.24 0 0 0.24 72.48 36)">
						</image>
					</g>
				</g>
				<g>
					<defs>
						<path id="SVGID_00000029046985663002290780000011705799823489245848_" d="M74.9,46.1c0,0-0.7,0.1-1.2-0.8
							c-0.3-0.5-1.8-0.8,0.5-0.8c2.3,0,5,1.2,4.9,2.3c-0.1,1.2,0.2,5.9-0.9,7.7c-1.1,1.8-1.3,2.6-2.9,2.6c-1.6-0.1-2.8,0.7-3.2-0.5
							c-0.4-1.2-0.4-8.1-0.2-8.4c0.2-0.3,1.2-2.1,1.2-2.1s0.3,0.4,0.8,0.7C74.2,46.9,74.9,46.1,74.9,46.1z"/>
					</defs>
					<clipPath id="SVGID_00000180338841792973999620000005034601861613072798_">
						<use xlink:href="#SVGID_00000029046985663002290780000011705799823489245848_"  style="overflow:visible;"/>
					</clipPath>
					<g style="clip-path:url(#SVGID_00000180338841792973999620000005034601861613072798_);">
						
							<image style="overflow:visible;" width="20" height="46" xlink:href="CA8AE1D3.png"  transform="matrix(0.24 0 0 0.24 72.48 44.88)">
						</image>
					</g>
				</g>
				<g>
					<defs>
						<path id="SVGID_00000176725916200957873510000012156333120952999332_" d="M75,54.8c0,0,0.6,0,1-0.7c0.3-0.5,1.9-0.8-0.4-0.8
							c-2.3,0-5,1.2-4.9,2.3c0.1,1.2-0.2,5.9,0.9,7.7c1.1,1.8,1.3,2.6,2.9,2.6c1.6-0.1,2.8,0.7,3.2-0.5c0.4-1.2,0.4-8.1,0.2-8.4
							c-0.2-0.3-1.2-2.3-1.2-2.3s-0.3,0.5-0.9,0.8C75.6,55.6,75,54.8,75,54.8z"/>
					</defs>
					<clipPath id="SVGID_00000182499168965392029790000013632858309143437984_">
						<use xlink:href="#SVGID_00000176725916200957873510000012156333120952999332_"  style="overflow:visible;"/>
					</clipPath>
					<g style="clip-path:url(#SVGID_00000182499168965392029790000013632858309143437984_);">
						
							<image style="overflow:visible;" width="20" height="45" xlink:href="CA8AE1D5.png"  transform="matrix(0.24 0 0 0.24 72.48 53.76)">
						</image>
					</g>
				</g>
				<g>
					<defs>
						<path id="SVGID_00000104689015734399741500000013267007782963800482_" d="M74.9,63.6c0,0-0.7,0.1-1.2-0.8
							c-0.3-0.5-1.8-0.8,0.5-0.8c2.3,0,5,1.2,4.9,2.3c-0.1,1.2,0.2,5.9-0.9,7.7c-1.1,1.8-2.4,1.3-4,1.3c-1.6-0.1-1.7,2-2.1,0.8
							c-0.1-0.3,0.7-0.8,1.3-1.4c0,0,0.6-0.4,1.4-0.4c0.2,0-0.6-0.6-0.8-0.6c-0.4,0.1-0.8,0.3-1.1,0.5c-0.7,0.5-1.2-6.3-1-6.5
							c0.2-0.3,1.2-2.1,1.2-2.1s0.3,0.4,0.8,0.7C74.2,64.5,74.9,63.6,74.9,63.6z"/>
					</defs>
					<clipPath id="SVGID_00000013897609747570607690000010388902549753669033_">
						<use xlink:href="#SVGID_00000104689015734399741500000013267007782963800482_"  style="overflow:visible;"/>
					</clipPath>
					<g style="clip-path:url(#SVGID_00000013897609747570607690000010388902549753669033_);">
						
							<image style="overflow:visible;" width="20" height="46" xlink:href="CA8AE1D7.png"  transform="matrix(0.24 0 0 0.24 72.48 62.4)">
						</image>
					</g>
				</g>
			</g>
		</g>
	</g>
</g>
</svg>
