<?xml version="1.0" encoding="utf-8"?>
<!-- Generator: Adobe Illustrator 26.5.0, SVG Export Plug-In . SVG Version: 6.00 Build 0)  -->
<svg version="1.1" id="Layer_1" xmlns="http://www.w3.org/2000/svg" xmlns:xlink="http://www.w3.org/1999/xlink" x="0px" y="0px"
	 viewBox="0 0 300 110" style="enable-background:new 0 0 300 110;" xml:space="preserve">
<style type="text/css">
	.st0{fill:#BCBBBD;}
	.st1{fill:none;stroke:#1A1A1A;stroke-width:0.4378;stroke-miterlimit:10;}
	.st2{fill:none;stroke:#1A1A1A;stroke-width:0.1751;stroke-miterlimit:10;}
	.st3{fill:#1A1A1A;}
</style>
<g>
	<g>
		<polygon class="st0" points="269.6,12.3 262.9,12.3 262.9,3.3 248.5,3.3 248.5,21.2 257,21.2 257,27.9 248.5,27.9 248.5,45.7 
			284.3,45.7 284.3,27.9 276.4,27.9 276.4,21.2 284.3,21.2 284.3,3.3 269.6,3.3 		"/>
		<path class="st0" d="M295.6,50.8v8.4c0,2.8-2.3,5.1-5.1,5.1H98V45.7h192.6C293.3,45.7,295.6,48,295.6,50.8z"/>
		<g>
			<path class="st0" d="M31.9,28.3c0,5,1.4,9.7,3.7,13.8c-3.3-3.3-7.8-5.3-12.9-5.3C12.6,36.8,4.4,45,4.4,55.2
				c0,10.1,8.2,18.4,18.4,18.4c5.1,0,9.8-2.1,13.1-5.5c-2.3,4-3.7,8.7-3.7,13.7c0,15.2,12.4,27.6,27.6,27.6
				c15.2,0,27.6-12.4,27.6-27.6c0-4-0.9-7.9-2.5-11.3c1.2-1.6,5.4-6.1,12.3-6.1V46c-7.4,0-11.7-5.3-12.5-6.4
				c1.5-3.4,2.4-7.2,2.4-11.3c0-15.2-12.4-27.6-27.6-27.6S31.9,13.1,31.9,28.3z M13.6,55.2c0-5,4.1-9.1,9.1-9.1c5,0,9.1,4.1,9.1,9.1
				s-4.1,9.1-9.1,9.1C17.7,64.3,13.6,60.2,13.6,55.2z M79.6,47.1c1.6,2.9,6.2,6.9,11,7.6c-4.8,0.8-9.4,4.7-11,7.6l-2.3-1.9l0.4-11.6
				c0.6-0.5,1.1-1,1.6-1.5L79.6,47.1z M77.8,28.3c0,8.9-6.4,16.4-14.9,18c3.3,1.3,5.6,4.3,5.9,7.9c2.5-0.9,4.8-2.2,6.9-3.7v8.8
				c-2.1-1.5-4.4-2.7-6.9-3.6c-0.3,3.6-2.6,6.7-5.9,8c8.6,1.5,15.1,9,15.1,18c0,10.1-8.2,18.3-18.3,18.3c-10.1,0-18.3-8.2-18.3-18.3
				c0-8.9,6.3-16.3,14.7-17.9c-3.5-1.4-6.1-4.8-6.1-8.8c0-4,2.5-7.4,6-8.8c-8.5-1.6-14.9-9-14.9-18c0-10.1,8.2-18.3,18.3-18.3
				C69.6,10,77.8,18.2,77.8,28.3z"/>
			<path class="st0" d="M41.4,54.8c0,10,8.1,18.1,18.1,18.1c10,0,18.1-8.1,18.1-18.1c0-10-8.1-18.1-18.1-18.1
				C49.5,36.6,41.4,44.8,41.4,54.8z M50.5,54.8c0-4.9,4-9,9-9s9,4,9,9c0,4.9-4,9-9,9S50.5,59.7,50.5,54.8"/>
		</g>
	</g>
	<g>
		<g>
			<g>
				<g>
					<path class="st1" d="M98.8,53.1c-0.5-0.5-1.3-1.6-1.6-2.2"/>
					<path class="st1" d="M99.8,53c-0.9-1.2-1.7-2.4-2.5-3.7"/>
					<path class="st1" d="M100.9,53c-0.9-1.5-3-4.4-4-5.9"/>
					<path class="st1" d="M102.1,52.8c-1.5-2-2.9-4.1-4.2-6.2"/>
					<path class="st1" d="M103.3,53c-1.6-2.2-3-4.5-4.4-6.8"/>
					<path class="st1" d="M104.5,53.1c-1.5-2.2-3-4.4-4.4-6.7"/>
					<path class="st1" d="M105.5,53.1c-1.5-2.4-3.1-4.7-4.7-6.9"/>
					<path class="st1" d="M106.5,53c-1.5-2.1-2.9-4.2-4.3-6.3"/>
					<path class="st1" d="M107.4,52.9c-1.4-2.2-2.8-4.4-4.3-6.5"/>
					<path class="st1" d="M108.5,52.9c-1.4-2.1-2.7-4.1-4.1-6.2"/>
					<path class="st1" d="M109.6,52.9c-1.4-2.2-2.8-4.3-4.2-6.4"/>
					<path class="st1" d="M110.8,53c-1.5-2.1-2.9-4.3-4.3-6.5"/>
					<path class="st1" d="M112.1,53.2c-0.3-0.3-0.5-0.6-0.7-0.9c-1.3-1.9-2.6-3.9-3.9-5.8"/>
					<path class="st1" d="M112.9,53.1c-1.3-2.2-2.6-4.3-4-6.5"/>
					<path class="st1" d="M113.9,53.1c-1.4-2.1-2.7-4.3-3.8-6.5"/>
					<path class="st1" d="M115.1,53c-0.4-0.7-0.8-1.3-1.3-2c-0.9-1.4-1.7-2.8-2.4-4.2"/>
					<path class="st1" d="M116.4,53.2c-1.4-2.2-2.9-4.5-4.3-6.7"/>
					<path class="st1" d="M117.4,53c-0.2-0.1-0.4-0.2-0.5-0.4c-1.3-2.1-2.6-4.2-3.9-6.4"/>
					<path class="st1" d="M118.4,53c-1.3-2-2.5-4-3.8-6"/>
					<path class="st1" d="M119.4,53c-1.4-2.1-2.8-4.2-4.1-6.3"/>
					<path class="st1" d="M120.4,53.1c-1.4-2.2-2.7-4.5-4-6.8"/>
					<path class="st1" d="M121.3,52.9c-1.2-1.9-2.4-3.9-3.6-5.8"/>
					<path class="st1" d="M122.5,53.1c-1.5-2.4-3-4.8-4.5-7.2"/>
					<path class="st1" d="M123.4,53.1c-1.2-2.1-2.4-4.1-3.8-6.1"/>
					<path class="st1" d="M124.4,53.1c-0.9-2.2-2.6-4.1-3.7-6.2"/>
					<path class="st1" d="M125.5,53.2c-1.3-2.1-2.6-4.2-3.9-6.3"/>
					<path class="st1" d="M126.6,53.3c-1.3-2.3-2.6-4.6-3.9-6.8"/>
					<path class="st1" d="M127.5,53.1c-1.4-2.1-2.7-4.3-3.9-6.5"/>
					<path class="st1" d="M128.6,53.1c-1.5-2.2-2.9-4.4-4.1-6.8"/>
					<path class="st1" d="M129.7,53C129.7,53,129.8,53.1,129.7,53C129.7,53.1,129.7,53.1,129.7,53c-1.4-2-2.7-4-4-6"/>
					<path class="st1" d="M130.7,53.1c-1.2-2.1-2.5-4.1-3.9-6.1"/>
					<path class="st1" d="M131.7,53.3c-1.3-2.1-2.6-4.3-3.9-6.4"/>
					<path class="st1" d="M132.6,53c-1.3-2-2.6-4-3.9-6"/>
					<path class="st1" d="M133.7,53.1c-1.4-2.2-2.7-4.4-4.1-6.6"/>
					<path class="st1" d="M134.7,53c-1.3-2.1-2.6-4.2-3.9-6.3"/>
					<path class="st1" d="M135.7,52.9c-1.2-2.1-2.5-4.1-3.8-6.1"/>
					<path class="st1" d="M136.8,53c-1.4-2.1-2.8-4.3-4.1-6.5"/>
					<path class="st1" d="M137.9,53.1c-1.2-2-2.5-4.1-3.7-6.1"/>
					<path class="st1" d="M139,52.8c-1.3-2.1-2.7-4.2-4-6.4"/>
					<path class="st1" d="M140.3,53.2c-1.6-2.5-3.1-5.1-4.7-7.6"/>
					<path class="st1" d="M141.1,53.1c-1.2-2-2.4-4-3.7-5.9"/>
					<path class="st1" d="M142.3,53.1c-1.3-2.2-2.7-4.3-4-6.5"/>
					<path class="st1" d="M143.4,53c-1.5-2.2-2.9-4.5-4.1-6.9"/>
					<path class="st1" d="M144.4,53.1c-1.1-2-2.4-3.9-3.8-5.8"/>
					<path class="st1" d="M145.5,53c-1.3-2.2-2.7-4.4-4-6.6"/>
					<path class="st1" d="M146.4,53.1c-1.3-2.1-2.5-4.2-3.8-6.3"/>
					<path class="st1" d="M147.4,53.1c-1.2-2.2-2.6-4.4-3.9-6.5"/>
					<path class="st1" d="M148.6,53c-1.2-2-2.4-4.1-3.7-6.1"/>
					<path class="st1" d="M149.8,53c-1.4-2.4-2.8-4.7-4.2-7.1"/>
					<path class="st1" d="M151,53c-1.3-2-2.5-4.1-3.7-6.2"/>
					<path class="st1" d="M151.9,52.9c-1.4-2-2.7-4-3.9-6.1"/>
					<path class="st1" d="M153,53c-1.2-2.1-2.6-4.2-4-6.2"/>
					<path class="st1" d="M154.3,53.2c-1.3-2.2-2.7-4.4-3.9-6.6"/>
					<path class="st1" d="M155.1,53c-1.4-1.9-2.6-3.8-3.7-5.8"/>
					<path class="st1" d="M156,52.9c-1.1-2-2.4-4-3.8-5.9"/>
					<path class="st1" d="M157.1,53c-1.4-2.1-2.7-4.3-4.1-6.4"/>
					<path class="st1" d="M158.4,53c-1.5-2-3-4.1-4.3-6.3"/>
					<path class="st1" d="M159.4,53c-1.3-2-2.6-4-3.8-6.1"/>
					<path class="st1" d="M160.5,53.1c-1.5-2-2.9-4-4.1-6.1"/>
					<path class="st1" d="M161.7,53.1c-1.2-2-2.5-4-4-5.9"/>
					<path class="st1" d="M162.4,52.8c-1.4-2.1-2.7-4.2-4.1-6.3"/>
					<path class="st1" d="M163.6,53c-1.6-2.2-3.2-4.4-4.6-6.7"/>
					<path class="st1" d="M164.7,53.1c-1.5-2.2-3-4.5-4.6-6.7"/>
					<path class="st1" d="M165.8,53.1c-1.4-2.2-2.8-4.3-4.2-6.5"/>
					<path class="st1" d="M166.9,53c-1.6-2.3-3.1-4.7-4.4-7.1"/>
					<path class="st1" d="M168.1,52.9c-1.3-2-2.7-4-4-6"/>
					<path class="st1" d="M169.5,53c-0.2,0-0.3-0.2-0.4-0.3c-1.4-2.2-2.9-4.4-4.3-6.5"/>
					<path class="st1" d="M170.3,52.8c-1.2-2.1-2.5-4.1-3.7-6.2"/>
					<path class="st1" d="M171.4,53.1c-1.3-2.1-2.6-4.3-4-6.4"/>
					<path class="st1" d="M172.4,53.1c-1.4-2.1-2.8-4.3-4.2-6.4"/>
					<path class="st1" d="M173.3,53.2c-1-2.4-3-4.3-4.3-6.6"/>
					<path class="st1" d="M174.2,53c-1.2-2-2.5-4-3.9-6"/>
					<path class="st1" d="M175.3,53.2c-1.4-2.3-2.9-4.5-4.3-6.8"/>
					<path class="st1" d="M176.3,53.1c-1.5-2.1-2.8-4.2-4-6.4"/>
					<path class="st1" d="M177.4,53.1c-1.3-2.1-2.7-4.2-3.9-6.3"/>
					<path class="st1" d="M178.4,53.1c-1.4-2.1-2.8-4.1-4.2-6.2"/>
					<path class="st1" d="M179.6,53.2c-1.5-2.2-3-4.3-4.5-6.5"/>
					<path class="st1" d="M180.7,53.1c-1.5-2-2.9-4.1-4.2-6.2"/>
					<path class="st1" d="M181.8,53.1c-1.5-2.1-2.8-4.2-4.1-6.4"/>
					<path class="st1" d="M182.9,53C182.8,53,182.9,53.1,182.9,53C183,53,182.9,52.9,182.9,53c-1.4-2.2-2.8-4.3-4.2-6.3"/>
					<path class="st1" d="M184,53c-1.3-2-2.6-4-3.9-6"/>
					<path class="st1" d="M185,52.9c-1.4-2.1-2.7-4.1-4-6.2"/>
					<path class="st1" d="M186.1,53c-1.4-2.1-2.8-4.2-4.1-6.3"/>
					<path class="st1" d="M187.2,53.1c-0.2-0.3-0.4-0.6-0.6-0.9c-1.3-2-2.6-4-3.9-5.9"/>
					<path class="st1" d="M188.5,53c-1.5-2.2-3.1-4.4-4.6-6.6"/>
					<path class="st1" d="M189.5,53c-0.2-0.4-0.5-0.7-0.7-1.1c-1.2-1.7-2.3-3.5-3.5-5.2"/>
					<path class="st1" d="M190.5,52.9c-1.4-2-2.8-4.1-4.1-6.2"/>
					<path class="st1" d="M191.5,53c-1.4-2.1-2.8-4.3-4.3-6.4"/>
					<path class="st1" d="M192.7,52.9c-1.9-1.9-2.8-4.5-4.5-6.6"/>
					<path class="st1" d="M193.7,53.2c-1.4-2.2-2.8-4.4-4.2-6.6"/>
					<path class="st1" d="M194.7,53.2c-1.4-2.2-2.9-4.4-4.4-6.6"/>
					<path class="st1" d="M195.7,53.1c-1.4-1.9-2.7-4-4-6"/>
					<path class="st1" d="M196.9,53.2c-1.8-1.8-2.6-4.3-4.2-6.3"/>
					<path class="st1" d="M198.1,53.2c-1.6-2.2-3.1-4.5-4.4-6.9"/>
					<path class="st1" d="M199.1,53c-1.4-2.1-2.9-4.2-4.3-6.3"/>
					<path class="st1" d="M199.9,53.1c-1.4-2.2-2.8-4.4-4.4-6.5"/>
					<path class="st1" d="M200.8,53c0-0.4-0.2-0.7-0.4-1c-1.2-1.7-2.3-3.5-3.5-5.2"/>
					<path class="st1" d="M202,53.1c-1.4-2-2.7-4.1-3.9-6.2"/>
					<path class="st1" d="M203.3,53.2c-1.6-2.1-3-4.3-4.2-6.6"/>
					<path class="st1" d="M204.4,53.2c-1.4-2.2-2.8-4.4-4.2-6.7"/>
					<path class="st1" d="M205.3,53.2c-1.4-2.3-2.8-4.6-4.2-6.9"/>
					<path class="st1" d="M206.3,53c-1.2-2.2-2.5-4.4-3.9-6.5"/>
					<path class="st1" d="M207.5,53.2c-1.5-2.1-2.9-4.3-4.1-6.6"/>
					<path class="st1" d="M208.5,53.1c-1.5-2.2-2.9-4.5-4.2-6.8"/>
					<path class="st1" d="M209.5,53.1c-1.5-2.2-3-4.5-4.4-6.7"/>
					<path class="st1" d="M210.5,53.2c-1.2-2.1-2.5-4.1-3.7-6.2"/>
					<path class="st1" d="M211.8,53.1c-0.2,0-0.3-0.2-0.4-0.3c-1.6-1.9-2.5-4.2-4.1-6.2"/>
					<path class="st1" d="M212.5,53.2c-0.1-0.3-0.2-0.5-0.3-0.7c-1.2-1.9-2.4-3.7-3.6-5.6"/>
					<path class="st1" d="M213.6,53c-0.2,0-0.4-0.2-0.5-0.4c-1.1-1.7-3-4.8-4.1-6.6"/>
					<path class="st1" d="M214.5,53.2c-1.2-2.1-2.5-4.1-3.8-6.1"/>
					<path class="st1" d="M215.7,53.1c-1.3-2.1-2.6-4.3-3.8-6.5"/>
					<path class="st1" d="M216.7,53C216.6,53,216.7,53,216.7,53c0.1,0,0-0.1,0-0.1c-0.3-0.4-0.6-0.9-0.9-1.3
						c-1.1-1.7-2.2-3.4-3.2-5.2"/>
					<path class="st1" d="M217.7,53c0,0.1,0.1,0.1,0.2,0.1c-1.3-2.2-2.7-4.3-4.1-6.4"/>
					<path class="st1" d="M218.8,53.1c-1.1-2.1-2.4-4.2-3.7-6.2"/>
					<path class="st1" d="M220,53.1C219.9,53.1,220,53.1,220,53.1C220,53.1,220,53.1,220,53.1c-1.4-2.3-2.7-4.5-4.1-6.8"/>
					<path class="st1" d="M221.2,53.1c-1.4-2-2.8-4.2-3.9-6.3"/>
					<path class="st1" d="M222.4,53.1c-1.5-2.1-2.9-4.3-4.2-6.5"/>
					<path class="st1" d="M223.4,53c-1.4-2.1-2.9-4.3-4.4-6.4"/>
					<path class="st1" d="M224.4,53c-1.3-2.1-2.7-4.2-4.2-6.2"/>
					<path class="st1" d="M225.3,53.1c-1.3-2.2-2.6-4.4-4.1-6.5"/>
					<path class="st1" d="M226.3,53c-1.4-2-2.8-4.1-4-6.3"/>
					<path class="st1" d="M227.5,52.9c-1.5-2-2.9-4.2-4.1-6.3"/>
					<path class="st1" d="M228.6,53.1c-1.5-2.3-3.2-4.7-4.8-6.9"/>
					<path class="st1" d="M229.7,53.2c0,0.1,0,0.1,0.1,0.2c-1.4-2.3-2.9-4.5-4.4-6.7"/>
					<path class="st1" d="M230.6,53c-0.2-0.2-0.4-0.4-0.5-0.6c-1.3-1.9-2.6-3.8-3.9-5.8"/>
					<path class="st1" d="M231.6,52.9c-1.4-2.2-2.9-4.4-4.3-6.7"/>
					<path class="st1" d="M232.7,52.9c-1.5-2.2-2.9-4.4-4.3-6.6"/>
					<path class="st1" d="M233.9,53c-1.2-2-2.8-4.3-4.1-6.3"/>
					<path class="st1" d="M234.8,53c-1.4-2.1-2.8-4.3-4.2-6.4"/>
					<path class="st1" d="M236,53.1c-1.7-2.4-3.3-4.7-5-7.1"/>
					<path class="st1" d="M237.2,52.9c-1.1-1.5-2.1-3-3.2-4.5c-0.3-0.4-1.1-1.6-1.3-2.1"/>
					<path class="st1" d="M238.3,53.1c-1.6-2.2-3.1-4.5-4.5-6.8"/>
					<path class="st1" d="M239.3,53.1c-1.5-2.2-2.9-4.4-4.4-6.5"/>
					<path class="st1" d="M240.3,53c-1.3-2.1-2.7-4.2-4.1-6.3"/>
					<path class="st1" d="M241.4,53c0.1,0.1,0.1-0.1,0.1-0.2c-1.4-2-2.7-4-4.1-6"/>
					<path class="st1" d="M242.5,53c-1.4-2.2-2.9-4.4-4.3-6.6"/>
					<path class="st1" d="M243.5,53c-1.4-2.1-2.7-4.2-4.1-6.4"/>
					<path class="st1" d="M244.8,53.1c-1.3-2.1-2.6-4.2-4-6.3"/>
					<path class="st1" d="M246,53c-1.4-2.2-2.8-4.4-4.3-6.6"/>
					<path class="st1" d="M247.3,53.1c-1.6-2.2-3.1-4.5-4.5-6.7"/>
					<path class="st1" d="M248.3,53.1c-1.4-2.1-2.8-4.2-4.2-6.3"/>
					<path class="st1" d="M249.4,52.8c-1.6-2.2-3.1-4.4-4.5-6.7"/>
					<path class="st1" d="M250.5,52.9c-1.5-2.2-3-4.4-4.5-6.7"/>
					<path class="st1" d="M251.6,53c-1.5-2.2-3.1-4.4-4.6-6.7"/>
					<path class="st1" d="M252.6,52.9c-1.4-2-3.2-4.4-4.5-6.4"/>
					<path class="st1" d="M253.7,52.9c-1.6-2.2-3.2-4.4-4.7-6.7"/>
					<path class="st1" d="M254.8,52.9c-1.4-2-3.2-4.5-4.6-6.5"/>
					<path class="st1" d="M256,53.1c-1.6-2.3-3.2-4.5-4.8-6.8"/>
					<path class="st1" d="M257,53c-1.5-2.2-3-4.4-4.6-6.7"/>
					<path class="st1" d="M258.1,52.9c-1.4-2.1-2.8-4.2-4.2-6.4"/>
					<path class="st1" d="M259.5,53.1c-0.2,0-0.4-0.3-0.5-0.4c-1.4-2.2-2.9-4.4-4.3-6.6"/>
					<path class="st1" d="M260.3,53.1c-1.4-2.2-2.9-4.5-4.3-6.7"/>
					<path class="st1" d="M261.3,53c-0.1-0.4-0.3-0.8-0.6-1.1c-1.2-1.7-2.4-3.4-3.3-5.2"/>
					<path class="st1" d="M262.2,52.9c-1.3-2.2-2.7-4.5-4.2-6.7"/>
					<path class="st1" d="M263.3,52.9c-1.4-2.2-2.8-4.4-4.1-6.6"/>
					<path class="st1" d="M264.3,52.9c-1.2-2.1-2.8-4.6-4.1-6.7"/>
					<path class="st1" d="M265.5,53c-1.4-2.3-2.8-4.6-4.2-6.9"/>
					<path class="st1" d="M266.4,53.2c0-0.4-0.3-0.8-0.5-1.2c-1.1-1.8-2.3-3.6-3.4-5.4"/>
					<path class="st1" d="M267.5,53c-1.4-2.3-2.8-4.6-4.2-6.9"/>
					<path class="st1" d="M268.6,53c-1.3-2.2-2.7-4.3-4-6.5"/>
					<path class="st1" d="M269.7,53C269.6,53,269.7,53.1,269.7,53C269.8,53,269.8,52.9,269.7,53c-1.3-2.1-2.9-4.7-4.2-6.8"/>
					<path class="st1" d="M270.9,53c-1.4-2.2-2.7-4.4-4.2-6.5"/>
					<path class="st1" d="M271.9,52.8c-1.3-2-2.9-4.6-4.2-6.7"/>
					<path class="st1" d="M272.7,52.8C272.7,52.8,272.7,52.9,272.7,52.8C272.8,52.9,272.8,52.8,272.7,52.8c-1.2-2.1-2.7-4.6-4-6.6"
						/>
					<path class="st1" d="M274,53.1c-1.3-2.2-2.9-4.9-4.4-7"/>
					<path class="st1" d="M275,53.1c-1.3-2.3-2.7-4.6-4.1-6.9"/>
					<path class="st1" d="M276,53c-1.3-2.2-2.7-4.3-4-6.5"/>
					<path class="st1" d="M277.1,53C277.1,53,277.1,53.1,277.1,53C277.2,53,277.2,52.9,277.1,53c-1.3-2.1-3-4.8-4.3-6.9"/>
					<path class="st1" d="M278.3,53c-1.4-2.2-2.7-4.4-4.2-6.5"/>
					<path class="st1" d="M279.3,52.8c-1.3-2-2.9-4.6-4.2-6.7"/>
					<path class="st1" d="M280.2,52.8C280.1,52.8,280.2,52.9,280.2,52.8C280.3,52.9,280.2,52.8,280.2,52.8c-1.2-2.1-2.9-4.9-4.1-6.8
						"/>
					<path class="st1" d="M281.5,53.1c-1.3-2.2-2.9-4.8-4.3-7"/>
					<path class="st1" d="M282.4,53.1c-1.3-2.3-2.7-4.6-4.1-6.9"/>
					<path class="st1" d="M284.6,53c-1.4-2.3-2.9-4.6-4.3-7"/>
					<path class="st1" d="M283.6,53c-1.4-2.3-2.9-4.6-4.3-7"/>
					<path class="st1" d="M285.5,53c-1.4-2.4-2.9-4.8-4.4-7.2"/>
					<path class="st1" d="M286.8,53c-1.6-2.3-3-4.7-4.4-7.1"/>
					<path class="st1" d="M287.8,53.1c-1.4-2.3-2.8-4.6-4.3-7"/>
					<path class="st1" d="M288.9,53c-1.4-2.5-2.9-4.9-4.5-7.4"/>
					<path class="st1" d="M290.4,53.1c-1.6-2.4-3.1-4.8-4.7-7.2"/>
					<path class="st1" d="M291.3,53.1c0.1,0,0.1-0.2,0-0.3c-1.6-2.3-3.1-4.6-4.7-7"/>
					<path class="st1" d="M292.5,53c0-0.3-0.2-0.6-0.4-0.8c-1.5-1.9-3.1-4.5-4.3-6.5"/>
					<path class="st1" d="M293.4,52.9c-1.4-2.2-3.2-4.9-4.6-7.2"/>
					<path class="st1" d="M294.4,52.9c-1.3-2.1-3.1-5.1-4.4-7.2"/>
					<path class="st1" d="M295.2,52.7c-0.5-0.7-1.2-2.3-1.7-3c-0.6-1-1.6-2.6-2.1-3.7"/>
					<path class="st1" d="M295.4,51.2c-0.2-0.4-1.9-3.4-2.7-4.9"/>
				</g>
				<g>
					<path class="st1" d="M97,63.1c2.1,0,194.2,0,196.3,0"/>
					<path class="st1" d="M96.8,62.1c1.5,0.1,92.2,0.2,93.7,0.2"/>
					<path class="st1" d="M97,61.5c1.4-0.1,2.8-0.1,4.3-0.2"/>
					<path class="st1" d="M96.8,60.6c1.3,0,2.6,0,3.9,0"/>
					<path class="st1" d="M96.8,59.8c1.4-0.1,2.7-0.1,4.1,0"/>
					<path class="st1" d="M96.4,59c1.4-0.1,2.8-0.2,4.3-0.1"/>
					<path class="st1" d="M96.6,57.9c1.4-0.1,2.9,0,4.3,0.1"/>
					<path class="st1" d="M96.6,56.9c1.3-0.1,2.6-0.1,3.9-0.1"/>
					<path class="st1" d="M96.7,55.9c1.1-0.1,2.3-0.1,3.4,0"/>
					<path class="st1" d="M96.7,54.9c1.1,0,2.2,0,3.3,0.1"/>
					<path class="st1" d="M282.6,54.8c3.7-0.1,9.1,0.1,12.8,0.1"/>
					<path class="st1" d="M283.6,55.8c2.5,0,9.4-0.1,11.8-0.1"/>
					<path class="st1" d="M283.5,56.8c2.1,0,10.3,0,12.1,0.1"/>
					<path class="st1" d="M282.6,57.8c3.3,0,9.8,0.1,13.1,0.1"/>
					<path class="st1" d="M282.4,62.3c6.3,0,11.1,0,12.1,0"/>
					<path class="st1" d="M282.4,61.4c5.8,0,11.1,0,12.6,0"/>
					<path class="st1" d="M96.5,53.8c1.9,0.1,4.3,0,6.2,0"/>
					<path class="st1" d="M282,53.7c3-0.1,10.7-0.1,13.6,0"/>
					<path class="st1" d="M217.9,54.1c4.5,0.1,9.1,0.1,13.6,0.2"/>
					<path class="st1" d="M235.7,54.2c0.3,0,0.5,0,0.8,0"/>
					<path class="st1" d="M107.9,53.7c10.8,0.5,21.7,0.6,32.6,0.3"/>
					<path class="st1" d="M146.4,53.9c10.3,0,46.4,0.1,56.8,0.1"/>
					<path class="st1" d="M191.6,62.3c2.5,0,5,0.1,7.5,0.1"/>
					<path class="st1" d="M102.2,61.4c0.8,0,1.7,0,2.5,0"/>
					<path class="st1" d="M102,60.5c0.6,0,1.3,0,1.9,0"/>
				</g>
			</g>
			<g>
				<g>
					<path class="st0" d="M102.9,44v21.5c0,1.4-1.1,2.5-2.5,2.5h-0.4c-1.4,0-2.5-1.1-2.5-2.5V44c0-1.4,1.1-2.5,2.5-2.5h0.4
						C101.8,41.5,102.9,42.6,102.9,44z"/>
					<path class="st0" d="M108.4,44v21.5c0,1.4-1.1,2.5-2.5,2.5h-0.4c-1.4,0-2.5-1.1-2.5-2.5V44c0-1.4,1.1-2.5,2.5-2.5h0.4
						C107.3,41.5,108.4,42.6,108.4,44z"/>
				</g>
				<g>
					<g>
						<g>
							<g>
								<path class="st1" d="M98.5,52c0-3.4-0.1-6-0.1-9.4"/>
								<path class="st1" d="M99.4,51.5c-0.1-3.7-0.2-5.7-0.3-9.3"/>
								<path class="st1" d="M100.1,51.6c0-3.6-0.1-6.2-0.1-9.7"/>
								<path class="st1" d="M101.2,51.8c0-3.6-0.1-6.2-0.1-9.7"/>
								<path class="st1" d="M102.1,52.4c0-3.6-0.1-6.2-0.1-9.7"/>
							</g>
							<g>
								<path class="st1" d="M98.9,67.7C99,66.4,99,65.2,99,64"/>
								<path class="st1" d="M98,67.2c0.1-1.2,0.1-2.5,0.1-3.7"/>
								<path class="st1" d="M99.7,67.9c0-1.2,0-2.4,0-3.6"/>
								<path class="st1" d="M100.5,67.9c0-1.3,0-2.7,0-4"/>
								<path class="st1" d="M101.4,67.6c0-1.3,0-2.7,0-4"/>
								<path class="st1" d="M102.1,67.1c0-1.3,0-2.7,0-4"/>
							</g>
						</g>
						<path class="st1" d="M99.6,63.4c0.7,0.3,1.5,0.1,2-0.3"/>
					</g>
					<g>
						<g>
							<g>
								<path class="st1" d="M104.1,52c0-3.4-0.1-6-0.1-9.4"/>
								<path class="st1" d="M105,51.5c-0.1-3.7-0.2-5.7-0.3-9.3"/>
								<path class="st1" d="M105.7,51.6c0-3.6-0.1-6.2-0.1-9.7"/>
								<path class="st1" d="M106.8,51.8c0-3.6-0.1-6.2-0.1-9.7"/>
								<path class="st1" d="M107.7,52.4c0-3.6-0.1-6.2-0.1-9.7"/>
							</g>
							<g>
								<path class="st1" d="M104.5,67.7c0.1-1.2,0.1-2.5,0.1-3.7"/>
								<path class="st1" d="M103.6,67.2c0.1-1.2,0.1-2.5,0.1-3.7"/>
								<path class="st1" d="M105.3,67.9c0-1.2,0-2.4,0-3.6"/>
								<path class="st1" d="M106.1,67.9c0-1.3,0-2.7,0-4"/>
								<path class="st1" d="M107,67.6c0-1.3,0-2.7,0-4"/>
								<path class="st1" d="M107.7,67.1c0-1.3,0-2.7,0-4"/>
							</g>
						</g>
						<path class="st1" d="M105.2,63.4c0.7,0.3,1.5,0.1,2-0.3"/>
					</g>
				</g>
			</g>
			<g>
				<g>
					<g>
						<path class="st1" d="M249.7,45.1c-0.1-1.1-0.1-2.1-0.2-3.2"/>
						<path class="st1" d="M250.6,45.2c-0.2-1.1-0.3-2.2-0.2-3.4"/>
						<path class="st1" d="M251.5,45c0-0.9-0.1-1.8-0.1-2.7"/>
						<path class="st1" d="M252.3,45.4c0.1-1,0.1-1.9,0-2.9"/>
						<path class="st1" d="M253.1,45.1C253.1,45.1,253.1,45.1,253.1,45.1C253.2,45.1,253.2,45.1,253.1,45.1c0-1,0-1.9,0-2.8"/>
						<path class="st1" d="M254.2,45c-0.2-0.9-0.2-1.8-0.2-2.7"/>
						<path class="st1" d="M255.1,45.1C255,45.1,255,45.2,255.1,45.1C255.1,45.2,255.1,45.1,255.1,45.1c0.1-1,0.1-1.9-0.1-2.9"/>
						<path class="st1" d="M256.2,45.3c0.1-0.9,0-1.9-0.3-2.8"/>
						<path class="st1" d="M257.2,45.3c-0.1-0.9-0.1-1.8-0.1-2.7"/>
						<path class="st1" d="M258.2,45.4c0-1,0-2,0-2.9"/>
						<path class="st1" d="M259.2,45.2C259.1,45.2,259.1,45.3,259.2,45.2C259.3,45.3,259.3,45.2,259.2,45.2c0.1-0.9,0-1.8,0-2.6"/>
						<path class="st1" d="M260,45.2c0-0.8,0.1-1.5,0-2.3"/>
						<path class="st1" d="M260.9,45.3c0-0.9,0-1.7-0.2-2.6"/>
						<path class="st1" d="M261.9,45.4c-0.1-0.7-0.1-1.4-0.2-2.1"/>
						<path class="st1" d="M262.7,45.2c0.1-0.8,0-1.5-0.1-2.3"/>
						<path class="st1" d="M263.6,44.9c0-0.9-0.1-1.7-0.1-2.6"/>
						<path class="st1" d="M264.6,44.9c0-0.7,0-1.5-0.2-2.2"/>
						<path class="st1" d="M265.5,45c-0.1-0.8-0.1-1.6-0.2-2.4"/>
						<path class="st1" d="M266.4,45c0-0.8-0.1-1.6-0.1-2.4"/>
						<path class="st1" d="M267.4,45c-0.1-0.7-0.1-1.5-0.2-2.2"/>
						<path class="st1" d="M268.4,45.1c0-0.8-0.1-1.6,0-2.4"/>
						<path class="st1" d="M269.3,44.7c-0.1-0.7-0.1-1.4-0.1-2.1"/>
						<path class="st1" d="M270.3,45c0.1-0.8,0-1.6-0.1-2.4"/>
						<path class="st1" d="M271.3,45.1c0-0.8,0-1.5-0.1-2.3"/>
						<path class="st1" d="M272.1,44.8c0.1-0.7,0.1-1.4,0.1-2.1"/>
						<path class="st1" d="M272.9,44.7c0-0.7,0-1.4-0.1-2.2"/>
						<path class="st1" d="M273.7,44.7c0-0.9-0.1-1.7-0.2-2.6"/>
						<path class="st1" d="M274.5,45c0.1-0.9,0.1-1.8,0.1-2.7"/>
						<path class="st1" d="M275.3,44.8C275.2,44.7,275.2,44.8,275.3,44.8C275.3,44.8,275.3,44.8,275.3,44.8c0.1-0.8,0.1-1.6,0-2.4"
							/>
						<path class="st1" d="M276.2,44.6c0-0.7-0.1-1.4-0.1-2.2"/>
						<path class="st1" d="M276.9,44.8c0-0.8-0.1-1.5-0.1-2.3"/>
						<path class="st1" d="M277.7,44.6c0.1-0.8,0.1-1.6-0.1-2.4"/>
						<path class="st1" d="M278.9,44.8c-0.1-0.8-0.1-1.5,0-2.3"/>
						<path class="st1" d="M279.7,44.8c0-0.8,0-1.6,0-2.4"/>
						<path class="st1" d="M280.6,44.9c0.1-0.8,0.1-1.7-0.1-2.5"/>
						<path class="st1" d="M281.6,44.6c0-0.7,0-1.3,0-2"/>
						<path class="st1" d="M282.4,44.6c0.1-0.6,0.1-1.2-0.1-1.7"/>
					</g>
					<g>
						<path class="st1" d="M280.3,35.4c0.9,0.1,1.9,0.1,2.8,0"/>
						<path class="st1" d="M280,34.5c1.1,0,2.2-0.1,3.4-0.2"/>
						<path class="st1" d="M279.2,33.4c1.6,0,3.1,0,4.7-0.3"/>
						<path class="st1" d="M280.3,32.4c1,0.1,2.1,0.2,3.1,0.1"/>
					</g>
					<g>
						<path class="st1" d="M276.6,4.8c2.4-0.3,4.8,0.1,7.2-0.1c0,0,0.1,0,0.1-0.1c0,0,0-0.1-0.1-0.1"/>
						<path class="st1" d="M278.6,5.6c1.6,0,3.2,0,4.8,0.1"/>
						<path class="st1" d="M279.7,6.3c1.3,0,2.7,0,4,0.1"/>
					</g>
					<g>
						<path class="st1" d="M281.1,10.9c0.9,0,1.8,0,2.7,0.1"/>
						<path class="st1" d="M281.1,10.1c0.7,0,1.4,0,2.1-0.1"/>
						<path class="st1" d="M281.3,9.1C281.3,9.1,281.2,9.1,281.3,9.1C281.2,9.2,281.3,9.2,281.3,9.1c0.8,0.1,1.5,0,2.2-0.1"/>
					</g>
					<path class="st1" d="M279.2,18.8c1.4,0,2.7,0,4.1,0"/>
					<g>
						<path class="st1" d="M249.1,4.8c2.9,0,5.7,0,8.6,0"/>
						<path class="st1" d="M249.2,5.5c1.2,0.1,2.3,0.1,3.5,0.1"/>
						<path class="st1" d="M249.3,6.4c0.9,0.1,1.9,0.1,2.8,0.1"/>
						<path class="st1" d="M249.3,7.4c0.9-0.1,1.8-0.1,2.7,0.1"/>
					</g>
					<g>
						<path class="st1" d="M258.4,40.2c2.6,0,5.2,0,7.8-0.1"/>
						<path class="st1" d="M258.4,39.3c1.7,0,3.4,0,5-0.1"/>
					</g>
					<g>
						<path class="st1" d="M259.1,11.2c1.2,0,2.4,0,3.6,0"/>
						<path class="st1" d="M259,10.1c1.1,0.2,2.2,0.2,3.3,0.1"/>
						<path class="st1" d="M259.8,9.3c0.8,0,1.5,0,2.3,0"/>
					</g>
					<g>
						<path class="st1" d="M257.3,24.7c0.7,0,1.4,0,2,0.1"/>
						<path class="st1" d="M257.4,23.7c0.6,0,1.2,0,1.8,0"/>
						<path class="st1" d="M257.4,22.9c0.7-0.1,1.3-0.1,2,0"/>
					</g>
					<g>
						<path class="st1" d="M248.8,30.9c0.8,0,1.7,0,2.5,0"/>
						<path class="st1" d="M248.6,30c0.9-0.1,1.7-0.1,2.6,0"/>
						<path class="st1" d="M248.8,32c0.9,0,1.7,0,2.6,0"/>
						<path class="st1" d="M248.8,33c0.8-0.1,1.6-0.1,2.5-0.1"/>
						<path class="st1" d="M248.6,33.9c0.7,0.1,1.5,0.1,2.2,0.1"/>
						<path class="st1" d="M248.7,36.5c0.7,0,1.5,0,2.2,0"/>
					</g>
					<g>
						<path class="st1" d="M249.1,17c0.9,0,1.7,0,2.6,0"/>
						<path class="st1" d="M249.1,16.3c0.8,0,1.5-0.1,2.3-0.1"/>
						<path class="st1" d="M249.2,15.5c0.9-0.1,1.7-0.2,2.6-0.3"/>
						<path class="st1" d="M249.3,14.6c0.8-0.1,1.5-0.1,2.3-0.1"/>
						<path class="st1" d="M249.1,13.7c0.8-0.2,1.7-0.2,2.5-0.1"/>
						<path class="st1" d="M249.3,12.9c0.7-0.1,1.4-0.1,2.1-0.2"/>
						<path class="st1" d="M249.3,18c0.7-0.1,1.4-0.2,2.1-0.2"/>
						<path class="st1" d="M249.3,18.9c0.7-0.1,1.3-0.1,2-0.1"/>
						<path class="st1" d="M249.3,19.6c0.7,0.1,1.5,0.1,2.2,0.1"/>
					</g>
					<path class="st1" d="M253.1,19.7c1.1,0,2.2,0.1,3.3,0.1"/>
					<path class="st1" d="M258.8,4.8c1.2,0,2.4,0,3.6-0.1"/>
					<g>
						<path class="st1" d="M269.9,4.5c1.2,0,2.3,0,3.5,0"/>
						<path class="st1" d="M269.9,5.4c0.8,0,1.6,0.1,2.4,0.1"/>
					</g>
				</g>
				<g>
					<path class="st2" d="M251.9,44.9c-0.8-1.6-1.8-3.2-2.8-4.7"/>
					<path class="st2" d="M256.9,45.5c-2.1-2.9-4-5.9-5.7-9"/>
					<path class="st2" d="M260.9,44.7c-2.5-4.6-5.1-9.2-7.7-13.8"/>
					<path class="st2" d="M265.1,44.7c-2.2-4.8-4.7-9.5-7.6-14"/>
					<path class="st2" d="M270.1,45.6c-3.2-5.8-6.4-11.6-9.6-17.4"/>
					<path class="st2" d="M273.8,44.6c-2.9-7.1-6.9-13.1-10.8-19.6"/>
					<path class="st2" d="M278.4,44.2c-3.6-6.4-7.2-12.8-10.8-19.2"/>
					<path class="st2" d="M282.2,44.2c-0.1,0,0.1,0.2,0.1,0.1c0.1-0.1,0-0.2,0-0.2c-2.8-4.7-5.6-9.5-8.3-14.2"/>
					<path class="st2" d="M282.7,37.4c-1.4-2.6-3-5.2-4.7-7.6"/>
					<path class="st2" d="M274.7,21.6c-0.5-0.9-1-1.8-1.6-2.7"/>
					<path class="st2" d="M277.9,20.5c-1.4-2.3-2.7-4.6-4-6.9"/>
					<path class="st2" d="M281.9,20.1c-2.8-4.2-5.6-8.5-8.2-12.9"/>
					<path class="st2" d="M282.7,14.7c-1.5-2.5-3-5.1-4.5-7.6c-0.3-0.5-0.6-1-0.9-1.5"/>
				</g>
			</g>
			<g>
				<g>
					<path class="st1" d="M59.1,101.8C59.1,101.8,59.1,101.9,59.1,101.8C59.2,101.8,59.1,101.8,59.1,101.8c-0.2-0.4-0.5-0.8-0.7-1.1
						"/>
					<path class="st1" d="M60.3,101.8c-0.4-0.4-0.7-0.9-0.9-1.4"/>
					<path class="st1" d="M61.7,101.5c-0.3-0.3-0.6-0.7-0.8-1.1"/>
					<path class="st1" d="M63.1,101.4c-0.3-0.4-0.6-0.8-0.9-1.2"/>
					<path class="st1" d="M64.2,101.3c-0.3-0.5-0.7-0.9-1-1.3"/>
					<path class="st1" d="M65.5,101.4c-0.4-0.5-0.9-1-1.4-1.5"/>
					<path class="st1" d="M66.2,100.9c-0.3-0.5-0.7-0.9-1.1-1.3"/>
					<path class="st1" d="M66.7,100.5C66.7,100.5,66.7,100.6,66.7,100.5C66.8,100.5,66.8,100.5,66.7,100.5c-0.3-0.4-0.7-0.8-1-1.2"
						/>
					<path class="st1" d="M67.8,100.4c-0.4-0.5-0.8-0.9-1.2-1.4"/>
					<path class="st1" d="M68.8,100c-0.4-0.5-0.7-0.9-1.1-1.4"/>
					<path class="st1" d="M69.7,99.5C69.8,99.6,69.8,99.6,69.7,99.5c-0.4-0.4-0.7-1-1.1-1.4"/>
					<path class="st1" d="M70.9,98.9c-0.5-0.4-0.9-0.9-1.3-1.5"/>
					<path class="st1" d="M71.5,98.2c-0.4-0.5-0.9-1-1.3-1.5"/>
					<path class="st1" d="M72.5,97.7c-0.4-0.4-0.8-0.9-1.2-1.3"/>
					<path class="st1" d="M73.2,97.2c-0.3-0.5-0.7-1-1.2-1.3"/>
					<path class="st1" d="M74,96.6c-0.4-0.5-0.8-1-1.2-1.4"/>
					<path class="st1" d="M74.7,95.5c-0.3-0.3-0.6-0.7-0.9-1.1"/>
					<path class="st1" d="M75.5,94.7c-0.4-0.5-0.8-0.9-1.3-1.4"/>
					<path class="st1" d="M76.2,94c-0.5-0.6-1-1.2-1.6-1.7"/>
					<path class="st1" d="M76.7,93.3c-0.4-0.4-0.7-0.9-1-1.4"/>
					<path class="st1" d="M77.3,92.5c-0.3-0.5-0.7-0.9-1-1.4"/>
					<path class="st1" d="M78,91.6c-0.5-0.6-1-1.2-1.5-1.9"/>
					<path class="st1" d="M78.6,90.5c-0.4-0.8-0.9-1.4-1.6-2"/>
					<path class="st1" d="M79,89.3c-0.4-0.9-1-1.7-1.6-2.5"/>
					<path class="st1" d="M79.6,88.2c-0.6-0.8-1.2-1.7-1.8-2.5"/>
					<path class="st1" d="M80.1,87.2c-0.7-1-1.4-2-2.1-3.1"/>
					<path class="st1" d="M80.6,86.1c-0.9-1-1.8-2.1-2.5-3.3"/>
					<path class="st1" d="M80.6,84.4c-0.9-1.1-1.7-2.3-2.5-3.6"/>
					<path class="st1" d="M80.8,83c-0.8-1.3-1.7-2.4-2.6-3.5"/>
					<path class="st1" d="M80.7,81.2c-1-1.3-1.9-2.6-2.9-3.9"/>
					<path class="st1" d="M80.5,79.5c-1-1.5-2.1-2.9-3.2-4.2"/>
					<path class="st1" d="M80.4,77.6c-2.3-3.2-4.7-6.5-7-9.7"/>
					<path class="st1" d="M80.3,75.9C78.1,73,76,70.1,74,67"/>
					<path class="st1" d="M80.1,73.8c-1.8-2.5-3.6-5-5.4-7.5"/>
					<path class="st1" d="M79.9,71.9c-1.6-2.2-3.2-4.4-4.8-6.7"/>
					<path class="st1" d="M80,70.2c-1.5-1.9-3-3.8-4.4-5.7"/>
					<path class="st1" d="M80.2,68.7c-1.3-1.8-2.6-3.6-3.9-5.3"/>
					<path class="st1" d="M80.4,67.1c-1.4-1.7-2.7-3.5-3.8-5.3"/>
					<path class="st1" d="M80.9,65.9c-1.2-1.4-2.2-2.8-3.2-4.3"/>
					<path class="st1" d="M81.4,64.7c-0.6-0.8-1.2-1.7-1.7-2.5"/>
					<path class="st1" d="M82.1,64.1c-0.5-0.8-0.9-1.6-1.4-2.4"/>
					<path class="st1" d="M83.2,63.4c-0.6-0.8-1.2-1.6-1.7-2.5"/>
					<path class="st1" d="M83.6,62.3c-0.5-0.8-1-1.5-1.5-2.3"/>
					<path class="st1" d="M84.4,61.8c-0.6-0.9-1.1-1.8-1.7-2.7"/>
					<path class="st1" d="M85.5,61.4c-0.6-1-1.2-2-1.8-3"/>
					<path class="st1" d="M86.4,60.6c-0.6-0.9-1.2-1.8-1.7-2.7"/>
					<path class="st1" d="M87.2,59.9c-0.7-0.9-1.3-1.9-1.8-2.8"/>
					<path class="st1" d="M87.7,59.4c-0.4-0.9-0.9-1.7-1.5-2.5"/>
					<path class="st1" d="M88.9,59.2c-0.5-0.9-1-1.7-1.5-2.6"/>
					<path class="st1" d="M89.6,58.7C89,57.8,88.5,56.9,88,56"/>
					<path class="st1" d="M90.6,58.2c-0.5-0.9-1.1-1.8-1.6-2.8"/>
					<path class="st1" d="M91.4,57.4c-0.4-0.8-0.9-1.6-1.2-2.4"/>
					<path class="st1" d="M92.3,56.9c-0.3-0.5-0.5-0.9-0.8-1.4"/>
				</g>
				<g>
					<g>
						<path class="st1" d="M65.2,63.8c-0.1-0.2-0.2-0.5-0.4-0.7"/>
						<path class="st1" d="M66.1,63.6c-0.3-0.6-0.6-1.1-0.9-1.7"/>
						<path class="st1" d="M66.9,63.1c-0.2-0.5-0.4-0.9-0.6-1.4"/>
						<path class="st1" d="M67.7,62.4c-0.3-0.6-0.6-1.2-0.9-1.8"/>
						<path class="st1" d="M68.6,62c-0.3-0.6-0.7-1.2-1-1.9"/>
						<path class="st1" d="M69.3,61.3c-0.4-0.7-0.8-1.3-1.2-2"/>
						<path class="st1" d="M70,60.3c-0.6-0.9-1.1-1.8-1.7-2.7"/>
						<path class="st1" d="M70.5,59.1c-0.6-1-1.2-2-1.8-3"/>
						<path class="st1" d="M70.8,58c-0.6-1-1.2-2.1-1.9-3.1"/>
						<path class="st1" d="M71.2,56.6c0,0.1,0.1,0,0.1,0c0-0.1,0-0.1-0.1-0.2c-0.9-1-1.6-2.1-2.1-3.3"/>
						<path class="st1" d="M71.4,54.7c-1.3-1.9-6-9.2-7.1-11.3"/>
						<path class="st1" d="M71.7,53.2c-1.9-2.8-3.7-5.7-5.3-8.7"/>
						<path class="st1" d="M70.7,49.8c-0.6-1-1.3-2.1-2-3.1"/>
						<path class="st1" d="M65.1,46.7c-0.6-1.2-1.3-2.3-2-3.4"/>
						<path class="st1" d="M63.5,45.7c-0.6-0.9-1.2-1.9-1.8-2.9"/>
						<path class="st1" d="M61.9,45.2c-0.5-0.9-1-1.8-1.5-2.7"/>
						<path class="st1" d="M60.4,44.8c-0.5-0.9-1-1.7-1.5-2.6"/>
						<path class="st1" d="M59.3,45c-0.5-0.8-0.9-1.7-1.3-2.5"/>
						<path class="st1" d="M57.9,44.9c-0.5-0.8-0.9-1.5-1.4-2.3"/>
						<path class="st1" d="M56.7,45.1c-0.4-0.6-0.9-1.3-1.3-1.9"/>
						<path class="st1" d="M55.8,45.7c-0.3-0.7-0.7-1.4-1.1-2.1"/>
						<path class="st1" d="M55.1,46.3c-0.5-0.7-0.9-1.5-1.3-2.3"/>
						<path class="st1" d="M54.3,46.9c-0.2-0.5-0.5-1-0.8-1.5"/>
						<path class="st1" d="M53.5,47.3c-0.4-0.5-0.7-1-0.9-1.5"/>
						<path class="st1" d="M52.7,48.3c-0.1-0.5-0.4-1-0.7-1.5"/>
						<path class="st1" d="M52.1,49.1c-0.2-0.3-0.5-0.7-0.6-1.1"/>
						<path class="st1" d="M51.5,50.2c-0.1-0.3-0.3-0.5-0.4-0.8"/>
					</g>
					<g>
						<path class="st1" d="M52.2,71.2c0-0.4-0.1-0.7-0.4-1"/>
						<path class="st1" d="M53.4,71.5c-0.2-0.4-0.4-0.8-0.6-1.2"/>
						<path class="st1" d="M54.6,71.8c-0.1-0.6-0.4-1.2-0.8-1.7"/>
						<path class="st1" d="M55.9,72c-0.5-0.8-1-1.6-1.3-2.4"/>
						<path class="st1" d="M57,72c-0.4-0.7-0.9-1.4-1.3-2.1"/>
						<path class="st1" d="M58.2,72.3c-0.4-0.8-0.9-1.7-1.4-2.4"/>
						<path class="st1" d="M59.6,72.4c-0.7-0.9-1.2-1.8-1.8-2.8"/>
						<path class="st1" d="M61.1,72.7c-0.6-0.8-1.2-1.7-1.8-2.5"/>
						<path class="st1" d="M62,71.9c-0.5-0.8-0.9-1.5-1.4-2.3"/>
						<path class="st1" d="M63.2,72c0,0.1,0.1,0.1,0.1,0.2c-0.6-0.9-1.2-1.9-1.8-2.9"/>
						<path class="st1" d="M64.2,71.7c-0.6-0.8-1.2-1.6-1.8-2.5"/>
						<path class="st1" d="M65.2,71.2c-0.6-0.7-1.1-1.4-1.6-2.2"/>
						<path class="st1" d="M66,70.9c-0.3-0.6-0.7-1.3-1.1-1.9"/>
						<path class="st1" d="M67.2,70.6c-0.6-0.7-1.1-1.5-1.5-2.4"/>
						<path class="st1" d="M68,69.9c-0.5-0.6-0.9-1.3-1.3-2"/>
						<path class="st1" d="M68.9,69.1c-0.3-0.7-0.7-1.3-1.2-1.9"/>
						<path class="st1" d="M69.9,68.9c-0.5-0.8-1-1.6-1.6-2.4"/>
						<path class="st1" d="M70.5,68c-0.4-0.6-0.7-1.1-1.1-1.7"/>
						<path class="st1" d="M71.4,67.6c-0.5-0.7-0.9-1.4-1.4-2.2"/>
						<path class="st1" d="M72.1,66.6c-0.4-0.8-0.8-1.5-1.4-2.2"/>
						<path class="st1" d="M72.8,65.5c-0.4-0.6-0.8-1.3-1.3-1.9"/>
						<path class="st1" d="M73.5,64.5c-0.5-0.7-1-1.5-1.5-2.2"/>
						<path class="st1" d="M74.2,63.5c-0.6-0.7-1.1-1.5-1.7-2.2"/>
						<path class="st1" d="M74.5,62.3C74.5,62.3,74.4,62.4,74.5,62.3c-0.1,0,0-0.1-0.1-0.1c-0.4-0.5-0.8-1-1.2-1.5"/>
						<path class="st1" d="M75.1,61.3c-0.4-0.6-0.8-1.2-1.3-1.8"/>
						<path class="st1" d="M75.5,60.4c-0.5-0.8-1.1-1.6-1.6-2.3"/>
						<path class="st1" d="M75.9,59.2c-0.6-0.8-1.2-1.7-1.7-2.5"/>
						<path class="st1" d="M76.3,57.6c-0.6-0.7-1.1-1.5-1.7-2.2"/>
						<path class="st1" d="M76.4,56.2c-0.7-0.9-1.4-1.8-2.2-2.7"/>
						<path class="st1" d="M76.3,54.4c-0.9-1-1.7-2.1-2.4-3.2"/>
						<path class="st1" d="M76.2,52.4C76.2,52.4,76.3,52.5,76.2,52.4C76.2,52.5,76.2,52.5,76.2,52.4c-1.2-1.1-2.2-2.3-3-3.7"/>
						<path class="st1" d="M75.7,50.5c-1.3-1.7-2.7-3.4-4-5"/>
						<path class="st1" d="M75.1,48.2c-1.2-1.6-2.4-3.1-3.7-4.6"/>
						<path class="st1" d="M73.6,44.9c-0.8-1-1.6-2-2.3-3"/>
					</g>
				</g>
				<g>
					<path class="st1" d="M16.6,62.9c-0.3-0.6-0.7-1.3-1-1.9"/>
					<path class="st1" d="M17.5,63.7c-0.2-0.5-0.5-0.9-0.7-1.4"/>
					<path class="st1" d="M18.6,64.5c-0.2-0.5-0.5-1.1-0.8-1.5"/>
					<path class="st1" d="M20,65.6c-0.3-0.6-0.5-1.1-0.8-1.7"/>
					<path class="st1" d="M21.3,65.9c-0.3-0.6-0.6-1.2-1-1.7"/>
					<path class="st1" d="M22.8,65.9c-0.3-0.6-0.7-1.2-1-1.7"/>
					<path class="st1" d="M23.9,65.9c-0.3-0.6-0.6-1.2-1-1.7"/>
					<path class="st1" d="M25.2,66c-0.4-0.7-0.8-1.4-1.2-2.1"/>
					<path class="st1" d="M26.2,65.7c0,0.1,0.1,0.1,0.1,0.1c-0.4-0.8-0.8-1.5-1.3-2.2"/>
					<path class="st1" d="M27.7,65.5c-0.5-0.7-0.9-1.4-1.3-2.1"/>
					<path class="st1" d="M28.7,65c-0.4-0.6-0.8-1.2-1.2-1.8"/>
					<path class="st1" d="M29.8,64.7c-0.4-0.7-0.9-1.4-1.3-2.1"/>
					<path class="st1" d="M30.6,64c-0.5-0.8-1-1.6-1.5-2.4"/>
					<path class="st1" d="M31.6,63.4c-0.5-0.8-1-1.5-1.6-2.2"/>
					<path class="st1" d="M32.6,62.5c-0.6-0.8-1.3-1.6-1.9-2.4"/>
					<path class="st1" d="M33.3,61.6c-0.6-0.8-1.2-1.6-1.8-2.4"/>
					<path class="st1" d="M33.9,60.3c-0.7-0.8-1.4-1.7-2.1-2.6"/>
					<path class="st1" d="M34.6,59.3c-0.7-0.9-1.5-1.8-2.2-2.8"/>
					<path class="st1" d="M34.7,57.8c-0.6-0.9-1.3-1.7-2-2.6"/>
					<path class="st1" d="M34.8,55.8c-0.9-1.1-1.9-2.3-2.8-3.4"/>
					<path class="st1" d="M34.9,54.1c-0.9-1.1-1.7-2.1-2.6-3.2"/>
				</g>
				<g>
					<path class="st1" d="M16.9,72.2c-0.6-0.8-1.1-1.5-1.5-2.4"/>
					<path class="st1" d="M18,72.7c-0.7-1.1-1.3-2.2-2-3.3"/>
					<path class="st1" d="M19.3,73c-0.8-1.2-1.5-2.4-2.1-3.6"/>
					<path class="st1" d="M20.8,73.3c-0.9-1-1.6-2.2-2.2-3.4"/>
					<path class="st1" d="M21.7,73.3c-0.7-1.1-1.4-2.2-2.1-3.4"/>
					<path class="st1" d="M22.8,73.2c-0.7-0.9-1.3-1.9-1.9-3"/>
					<path class="st1" d="M24.1,73.1c-0.8-0.9-1.6-2-2.2-3.1"/>
					<path class="st1" d="M25.4,73c-0.8-1.1-1.6-2.1-2.4-3.2"/>
					<path class="st1" d="M26.4,72.7c-0.6-0.8-1.2-1.7-1.7-2.6"/>
					<path class="st1" d="M27.8,72.6c-0.8-0.9-1.5-1.8-2.1-2.8"/>
					<path class="st1" d="M28.7,72.1C28.7,72.2,28.8,72.2,28.7,72.1c-0.6-0.9-1.3-1.9-2-2.7"/>
					<path class="st1" d="M29.8,71.5c-0.8-0.8-1.4-1.7-2-2.6"/>
					<path class="st1" d="M30.8,71c-0.7-0.8-1.4-1.7-2.1-2.5"/>
					<path class="st1" d="M32,70.5c-0.6-0.8-1.3-1.6-1.9-2.4"/>
					<path class="st1" d="M33.1,69.6c-0.8-0.8-1.6-1.7-2.3-2.7"/>
					<path class="st1" d="M33.8,68.9c-0.7-0.7-1.3-1.4-1.8-2.2"/>
					<path class="st1" d="M34.6,68.3C34.6,68.3,34.6,68.4,34.6,68.3C34.7,68.3,34.7,68.2,34.6,68.3c-0.6-0.8-1.2-1.5-1.8-2.3"/>
					<path class="st1" d="M35.4,67.5c-0.5-0.6-1-1.2-1.5-1.8"/>
					<path class="st1" d="M36.4,66.9c-0.4-0.6-0.9-1.2-1.4-1.6"/>
					<path class="st1" d="M34.8,90.5c-0.5-0.7-1-1.5-1.5-2.2"/>
					<path class="st1" d="M34.9,89.3c-0.6-0.7-1.1-1.5-1.6-2.3"/>
					<path class="st1" d="M34.7,87.7c-0.5-0.7-1-1.5-1.5-2.2"/>
					<path class="st1" d="M34.6,85.8c-0.5-0.7-1-1.5-1.5-2.2"/>
					<path class="st1" d="M34.7,84.9c-0.6-0.8-1.1-1.6-1.7-2.4"/>
					<path class="st1" d="M35.1,83.3c-0.8-1-1.5-2-2.2-3"/>
					<path class="st1" d="M35.1,81.7c-0.9-1-1.6-2.1-2.3-3.3"/>
					<path class="st1" d="M35.3,80.2c-0.8-0.8-1.5-1.8-2-2.8"/>
					<path class="st1" d="M35.6,79.1c-0.7-0.9-1.4-1.9-2.1-2.8"/>
					<path class="st1" d="M36,77.7c-0.9-1-1.8-2.1-2.5-3.3"/>
					<path class="st1" d="M36.1,76c-0.8-0.9-1.5-1.8-2.1-2.8"/>
					<path class="st1" d="M36.4,74.8c-0.7-0.9-1.3-1.8-2-2.6"/>
					<path class="st1" d="M37,73.8c-0.7-0.8-1.4-1.7-2-2.6"/>
					<path class="st1" d="M37.2,72.4c-0.7-0.9-1.4-1.7-2.1-2.6"/>
					<path class="st1" d="M37.9,71.2c-0.9-0.8-1.6-1.7-2.2-2.6"/>
					<path class="st1" d="M38.6,70.4c-0.8-0.8-1.6-1.7-2.3-2.7"/>
					<path class="st1" d="M39,69.2c-0.6-0.7-1.3-1.5-1.9-2.2"/>
					<path class="st1" d="M39.1,67.8c-0.4-0.3-0.7-0.7-1.1-1.1c-0.5-0.6-1-1.2-1.5-1.9"/>
					<path class="st1" d="M38.6,65.6c-0.3-0.4-0.6-0.8-0.9-1.2"/>
					<path class="st1" d="M15.3,71.6c-0.6-0.9-1-1.8-1.3-2.8"/>
					<path class="st1" d="M14,71c-0.3-0.9-0.8-1.8-1.3-2.6"/>
					<path class="st1" d="M12.8,70.1c-0.5-0.8-0.9-1.6-1.2-2.5"/>
					<path class="st1" d="M11.5,69.2c-0.5-0.7-0.8-1.5-1-2.4"/>
					<path class="st1" d="M10.2,68.3c-0.3-0.8-0.6-1.5-0.9-2.3"/>
					<path class="st1" d="M8.6,66.9c-0.2-0.5-0.3-1-0.5-1.5"/>
				</g>
				<g>
					<path class="st1" d="M7.8,45.3c-0.1-0.2-0.1-0.4-0.2-0.6"/>
					<path class="st1" d="M8.4,44.8c-0.1-0.2-0.2-0.4-0.3-0.6"/>
					<path class="st1" d="M9.3,44.5c-0.2-0.3-0.4-0.5-0.6-0.8"/>
					<path class="st1" d="M10.1,43.9c-0.3-0.4-0.5-0.8-0.8-1.2"/>
					<path class="st1" d="M11,43.5c-0.2-0.4-0.4-0.9-0.7-1.3"/>
					<path class="st1" d="M11.9,42.9c-0.2-0.5-0.5-1.1-0.9-1.5"/>
					<path class="st1" d="M12.9,42.3C12.8,42.3,12.8,42.4,12.9,42.3C12.9,42.3,12.9,42.3,12.9,42.3c-0.4-0.7-0.8-1.3-1.1-2"/>
					<path class="st1" d="M13.8,41.8C13.7,41.9,13.8,41.8,13.8,41.8c-0.2-0.7-0.6-1.3-0.9-1.9"/>
					<path class="st1" d="M15.1,41.6c-0.5-0.9-0.9-1.7-1.3-2.6"/>
					<path class="st1" d="M15.9,41.1c-0.4-0.9-0.8-1.7-1.3-2.6"/>
					<path class="st1" d="M17.2,40.9c-0.5-0.9-1-1.9-1.4-2.9"/>
					<path class="st1" d="M18.3,40.7c-0.3-0.9-0.7-1.7-1.2-2.6"/>
					<path class="st1" d="M19.3,40.4c-0.4-0.8-0.7-1.6-1.1-2.4"/>
					<path class="st1" d="M20.5,40.4c-0.6-1-1.1-2-1.7-3"/>
					<path class="st1" d="M21.6,40.3c-0.5-1-1-2-1.5-2.9"/>
					<path class="st1" d="M22.8,40.2c-0.6-1-1.1-2-1.5-3"/>
					<path class="st1" d="M24,40.2c-0.6-1.3-1-2-1.7-3.2"/>
					<path class="st1" d="M25.6,40.9c-0.7-1.4-1.3-2.7-2-4.1"/>
					<path class="st1" d="M26.9,40.9c-0.7-1.1-1.3-2.3-1.8-3.6"/>
					<path class="st1" d="M28.3,41.5c-0.6-1.3-1.3-2.6-1.9-4"/>
					<path class="st1" d="M29.4,41.6c-0.7-1.4-1.4-2.7-2-4.1"/>
					<path class="st1" d="M31.2,42.7c-0.8-1.4-1.6-2.9-2.2-4.4"/>
					<path class="st1" d="M32.7,43.4c-0.8-1.6-1.6-3.2-2.3-4.9"/>
					<path class="st1" d="M33.7,43.5c-0.6-1.4-1.2-2.9-1.9-4.3"/>
					<path class="st1" d="M34.9,43.7c-0.6-1.3-1.1-2.5-1.7-3.8"/>
					<path class="st1" d="M35.9,43.8c-0.4-0.9-0.8-1.8-1.3-2.6"/>
					<path class="st1" d="M36.4,43.4c-0.1-0.5-0.3-1-0.6-1.4"/>
				</g>
				<g>
					<path class="st1" d="M33.7,64.3c-0.2-0.4-0.4-0.8-0.7-1.1"/>
					<path class="st1" d="M34.9,64.2c-0.5-0.7-1.1-1.4-1.6-2.1"/>
					<path class="st1" d="M36.1,64.2c-0.8-0.8-1.5-1.7-2.1-2.7"/>
					<path class="st1" d="M37,63.9c-0.8-1-1.6-2-2.4-3.1"/>
					<path class="st1" d="M38.5,63.9c-1.3-1.3-2.4-2.8-3.5-4.3"/>
					<path class="st1" d="M39.4,63.4c-1.5-1.8-3-3.6-4.5-5.4"/>
					<path class="st1" d="M40.6,63c-1.6-1.9-3.6-4.2-5.1-6.1"/>
					<path class="st1" d="M40.6,60.7c-1.8-1.9-3.5-3.9-5.1-6"/>
					<path class="st1" d="M42.1,60.3c-1.9-2-5.2-5.8-6.9-8"/>
					<path class="st1" d="M41.2,57.5c-1.4-1.5-2.8-3.1-4.1-4.7"/>
					<path class="st1" d="M41.2,55.8c-1.1-1.2-2.1-2.5-3.2-3.7"/>
					<path class="st1" d="M41.1,54c-0.8-1-1.7-2-2.5-3"/>
					<path class="st1" d="M41.3,52.6c0.1-0.1,0-0.2-0.1-0.3c-0.8-0.8-1.6-1.7-2.2-2.7"/>
					<path class="st1" d="M41.7,51.1c-0.8-0.8-1.6-1.6-2.2-2.5"/>
					<path class="st1" d="M41.7,49.5c-0.5-0.7-1.1-1.4-1.7-2"/>
					<path class="st1" d="M42,48.4c-0.5-0.6-1.1-1.3-1.6-1.9"/>
					<path class="st1" d="M42.5,47.5c-0.6-0.6-1.2-1.2-1.6-2"/>
					<path class="st1" d="M42.8,46.5C42.7,46.6,42.8,46.6,42.8,46.5C42.9,46.5,42.8,46.5,42.8,46.5c-0.5-0.6-1-1.2-1.4-1.8"/>
					<path class="st1" d="M43.5,45.9c-0.6-0.6-1.1-1.3-1.6-1.9"/>
					<path class="st1" d="M44,45c-0.5-0.7-1-1.3-1.6-2"/>
					<path class="st1" d="M44.5,44.1C44.5,44.1,44.5,44.1,44.5,44.1C44.6,44.1,44.6,44,44.5,44.1c-0.5-0.6-1-1.3-1.4-1.9"/>
					<path class="st1" d="M45.4,43c-0.5-0.7-1.1-1.3-1.6-2"/>
					<path class="st1" d="M46.2,42.3c-0.6-0.6-1.1-1.2-1.6-1.9"/>
				</g>
				<g>
					<path class="st1" d="M45.3,68.7c-1.4-1.7-2.8-3.5-4.2-5.2"/>
					<path class="st1" d="M46,68.1c0.1,0,0.1-0.1,0-0.2c-0.3-0.4-0.6-0.7-0.9-1.1c-1.5-1.8-2.9-3.6-4.2-5.5"/>
					<path class="st1" d="M44.6,69.5c-1.5-1.9-3-3.8-4.6-5.7"/>
					<path class="st1" d="M44.1,70.6c-1.6-2-3.1-3.9-4.7-5.9"/>
					<path class="st1" d="M43.5,71.7c-1.5-1.8-3-3.6-4.3-5.6"/>
					<path class="st1" d="M43,72.5c-1.1-1.2-2.2-2.5-3.1-3.9"/>
					<path class="st1" d="M42.5,73.3c-1-1-1.9-2.1-2.7-3.2"/>
					<path class="st1" d="M42.1,74.3c-0.7-0.9-1.4-1.8-2.2-2.6"/>
					<path class="st1" d="M41.8,75.2c-0.7-0.8-1.4-1.7-2.1-2.5"/>
					<path class="st1" d="M41.2,76.1c-0.6-0.7-1.1-1.4-1.7-2.2"/>
					<path class="st1" d="M41.1,77.3c-0.6-0.6-1.2-1.3-1.7-2"/>
					<path class="st1" d="M40.8,78.5c-0.5-0.5-1-1.1-1.5-1.7"/>
					<path class="st1" d="M40.7,79.5c-0.2,0-0.3-0.1-0.5-0.3c-0.3-0.3-0.6-0.7-0.9-1"/>
					<path class="st1" d="M40.4,80.7C40.5,80.8,40.5,80.8,40.4,80.7c-0.4-0.4-0.8-0.9-1.2-1.4"/>
					<path class="st1" d="M40.3,82.3c-0.4-0.5-0.8-0.9-1.1-1.5"/>
					<path class="st1" d="M40.5,83.5c-0.5-0.4-0.9-0.8-1.2-1.4"/>
					<path class="st1" d="M40.6,84.6c-0.4-0.3-0.8-0.8-1.1-1.3"/>
					<path class="st1" d="M40.8,85.9c-0.6-0.4-1-0.9-1.4-1.5"/>
					<path class="st1" d="M41.1,87.5c-0.4-0.4-0.8-0.8-1.1-1.2"/>
					<path class="st1" d="M41.6,88.9c-0.4-0.3-0.8-0.6-1.1-1.1"/>
					<path class="st1" d="M43.1,62.8c-0.4-0.5-0.8-1-1.2-1.6"/>
				</g>
				<g>
					<path class="st1" d="M84.3,69.9c-0.2-0.3-0.4-0.7-0.6-1"/>
					<path class="st1" d="M84.9,69.3c-0.3-0.5-0.6-0.9-0.9-1.3"/>
					<path class="st1" d="M85.4,68.5c-0.4-0.5-0.7-1-1-1.5"/>
					<path class="st1" d="M86,67.9c-0.3-0.5-0.6-1-0.9-1.6"/>
					<path class="st1" d="M86.7,67c-0.3-0.6-0.6-1.1-1-1.7"/>
					<path class="st1" d="M87.7,66.4c-0.4-0.6-0.8-1.2-1.2-1.8"/>
					<path class="st1" d="M88.8,65.9c-0.4-0.7-0.8-1.3-1.2-2"/>
					<path class="st1" d="M90,65.3c-0.4-0.6-0.8-1.3-1.2-1.9"/>
					<path class="st1" d="M91,64.9c-0.3-0.7-0.7-1.3-1.1-2"/>
					<path class="st1" d="M92,64.3c-0.5-0.6-0.9-1.2-1.1-1.9"/>
					<path class="st1" d="M93,63.8c-0.4-0.8-0.9-1.5-1.3-2.3"/>
					<path class="st1" d="M94.1,63.7c-0.5-0.7-1-1.6-1.3-2.4"/>
					<path class="st1" d="M95.6,63.5c0,0.2-0.2-0.3-0.2-0.4c-0.2-0.3-0.3-0.5-0.5-0.8c-0.3-0.5-0.6-1-0.9-1.5"/>
					<path class="st1" d="M96.5,62.8c-0.5-0.7-1-1.5-1.4-2.3"/>
					<path class="st1" d="M96.5,60.7c-0.2-0.2-0.4-0.5-0.6-0.8"/>
				</g>
				<g>
					<path class="st1" d="M95.3,58.2c0.5,0,1,0,1.4,0"/>
					<path class="st1" d="M95.2,57.3c0.4,0,0.9,0,1.3,0"/>
					<path class="st1" d="M94.2,55.8c0.8,0,1.6,0,2.4,0"/>
					<path class="st1" d="M94.2,54.7c0.7,0,1.5,0,2.2-0.1"/>
					<path class="st1" d="M94.1,52.4c0.7,0,1.4,0,2.1,0"/>
					<path class="st1" d="M94.1,51.4c0.7,0,1.4,0,2.1,0.1"/>
					<path class="st1" d="M94.2,50.5c0.7,0,1.4,0,2,0"/>
					<path class="st1" d="M94.1,49.4c0.6-0.1,1.3-0.1,2-0.1"/>
				</g>
				<g>
					<path class="st1" d="M96.3,47.1c-0.2-0.5-0.4-0.9-0.8-1.2"/>
					<path class="st1" d="M96.1,48.1c-0.6-0.9-1.3-1.9-1.9-2.8"/>
					<path class="st1" d="M95.5,48.6c-0.6-0.9-1.2-1.9-1.8-2.8c-0.2-0.3-0.3-0.5-0.6-0.7"/>
					<path class="st1" d="M94.2,48.4c-0.8-1.1-1.5-2.3-2.1-3.5"/>
					<path class="st1" d="M93.1,48.4c-0.7-1.3-1.5-2.6-2.3-3.9"/>
					<path class="st1" d="M92,48.1c-0.9-1.4-1.7-2.9-2.5-4.4"/>
					<path class="st1" d="M90.7,47.8c-0.8-1.5-1.5-3-2.3-4.4"/>
					<path class="st1" d="M89.5,47.6c-0.7-1.5-1.5-3-2.2-4.4c-0.1-0.2-0.2-0.5-0.4-0.7"/>
					<path class="st1" d="M88,46.7c-1.1-1.9-2-3.8-2.8-5.9"/>
					<path class="st1" d="M86.4,45.5c-1.2-3-2.5-6-3.9-8.9"/>
					<path class="st1" d="M85.2,44.9c-1.2-2.4-2.3-4.8-3.4-7.2"/>
					<path class="st1" d="M83.4,43.5c-0.8-1.6-1.6-3.2-2.4-4.7"/>
					<path class="st1" d="M84.3,38.6c0-0.3-0.2-0.6-0.3-0.9c-0.5-1-0.9-1.9-1.4-2.9"/>
					<path class="st1" d="M84.9,37.3c-0.5-1.1-1.3-2.7-1.9-3.7"/>
					<path class="st1" d="M85.3,35.8c-0.7-1.5-1.4-3-2.2-4.5"/>
					<path class="st1" d="M85.6,34.4c-0.7-1.6-1.5-3.2-2.4-4.7"/>
					<path class="st1" d="M86,32.9c-0.9-1.6-1.8-3.2-2.7-4.8"/>
					<path class="st1" d="M86.3,31.2c-0.9-1.8-1.9-2.9-2.9-4.7"/>
					<path class="st1" d="M86.5,29.5c-0.9-1.5-1.7-2.9-2.6-4.4c-0.1-0.3-0.3-0.5-0.4-0.8"/>
					<path class="st1" d="M86.4,27.5c-1.3-1.9-2.5-3.8-3.7-5.8"/>
					<path class="st1" d="M86.5,25.9c-1.6-2.1-3.1-4.2-4.5-6.5"/>
					<path class="st1" d="M86.2,24.1C84.4,21.8,74,6.7,72.5,4.2"/>
					<path class="st1" d="M85.8,22.1C83.7,19,76,8.1,74.1,4.9"/>
					<path class="st1" d="M85.1,19.3c-2.4-3.3-6.6-9.2-8.7-12.8"/>
					<path class="st1" d="M83.4,15.4c-1.6-2.2-3.1-4.5-4.7-6.7"/>
					<path class="st1" d="M75.1,10c-1.5-2.2-2.9-4.4-4.4-6.6"/>
					<path class="st1" d="M72.7,8.3c-1.4-1.8-2.7-3.7-3.9-5.7"/>
					<path class="st1" d="M70.4,6.9c-0.9-1.6-1.9-3.2-2.8-4.7"/>
					<path class="st1" d="M68.9,6.1c-0.9-1.5-1.7-3-2.7-4.4"/>
					<path class="st1" d="M67.5,5.5c-0.8-1.3-1.6-2.6-2.4-4"/>
					<path class="st1" d="M66,4.9c-0.7-1.3-1.5-2.6-2.4-3.8"/>
					<path class="st1" d="M64.8,4.7c-0.9-1.3-1.8-2.7-2.7-4"/>
					<path class="st1" d="M63.5,4.4c-0.7-1.2-1.5-2.3-2.4-3.3"/>
					<path class="st1" d="M62,4.1c-0.8-1.1-1.6-2.2-2.3-3.3"/>
					<path class="st1" d="M60.8,4.2c-0.8-1.1-1.5-2.2-2.4-3.3"/>
					<path class="st1" d="M59.6,4.2c0-0.1-0.1-0.2-0.1-0.3c-0.8-1-1.5-2.1-2.3-3.1"/>
					<path class="st1" d="M58.4,4.2c-0.7-1-1.5-2-2.2-3c-0.1-0.2-0.2-0.3-0.4-0.4"/>
					<path class="st1" d="M56.9,4.1c-0.8-1-1.6-2-2.3-3"/>
					<path class="st1" d="M55.2,3.6c-0.6-0.7-1.1-1.4-1.7-2"/>
					<path class="st1" d="M54.1,3.7C53.6,3.2,53,2.6,52.5,2"/>
					<path class="st1" d="M52.9,3.8c-0.5-0.6-1-1.1-1.6-1.7"/>
					<path class="st1" d="M51.6,3.9c-0.4-0.6-0.9-1.2-1.4-1.8"/>
					<path class="st1" d="M50.3,4c-0.3-0.5-0.7-0.9-1.1-1.3"/>
					<path class="st1" d="M49.1,4.2c-0.3-0.3-0.5-0.6-0.7-0.9"/>
					<path class="st1" d="M48.2,4.6c-0.4-0.3-0.6-0.6-0.8-1"/>
					<path class="st1" d="M47.2,5.1c-0.2-0.3-0.4-0.6-0.7-0.9"/>
					<path class="st1" d="M46.3,5.5c-0.3-0.3-0.5-0.6-0.7-0.9"/>
					<path class="st1" d="M45.3,5.9c-0.2-0.3-0.4-0.5-0.7-0.8"/>
					<path class="st1" d="M44.3,6.3c-0.2-0.2-0.4-0.5-0.6-0.7"/>
					<path class="st1" d="M43.4,6.9c-0.1-0.2-0.3-0.5-0.4-0.7"/>
					<path class="st1" d="M42.7,7.4c-0.2-0.1-0.4-0.3-0.5-0.5"/>
				</g>
				<g>
					<path class="st1" d="M47.7,14.1c-0.2-0.4-0.4-0.8-0.6-1.2"/>
					<path class="st1" d="M48.4,13.4c-0.2-0.4-0.4-0.7-0.6-1.1"/>
					<path class="st1" d="M49.1,12.9c0.1,0,0.1,0,0.2,0c-0.2-0.4-0.5-0.8-0.6-1.2"/>
					<path class="st1" d="M50.3,12.4c-0.2-0.4-0.4-0.8-0.7-1.2"/>
					<path class="st1" d="M51,11.8c-0.2-0.4-0.4-0.9-0.7-1.3"/>
					<path class="st1" d="M51.8,11.4c-0.3-0.4-0.5-0.9-0.7-1.4"/>
					<path class="st1" d="M52.8,11c-0.3-0.5-0.6-1-0.9-1.5"/>
					<path class="st1" d="M53.6,10.5C53.6,10.5,53.6,10.6,53.6,10.5C53.6,10.5,53.6,10.5,53.6,10.5c-0.3-0.6-0.5-1.2-0.8-1.8"/>
					<path class="st1" d="M54.8,10.3c-0.4-0.6-0.7-1.2-0.9-1.8"/>
					<path class="st1" d="M56,10.3c-0.3-0.6-0.7-1.3-1.1-1.9"/>
					<path class="st1" d="M57,10.1c-0.3-0.7-0.7-1.4-1.1-2"/>
					<path class="st1" d="M58.1,10c-0.5-0.8-0.9-1.5-1.4-2.3"/>
					<path class="st1" d="M59.2,9.7c-0.4-0.8-0.8-1.5-1.2-2.2"/>
					<path class="st1" d="M60.6,10c-0.5-0.7-0.9-1.5-1.4-2.2"/>
					<path class="st1" d="M61.7,10.1c-0.4-0.7-0.8-1.4-1.3-2.1"/>
					<path class="st1" d="M63,10.3c-0.5-0.8-1-1.6-1.6-2.4"/>
					<path class="st1" d="M64.4,10.6c-0.6-0.8-1.1-1.6-1.6-2.5"/>
					<path class="st1" d="M65.7,11c-0.4-0.8-0.9-1.6-1.3-2.4"/>
					<path class="st1" d="M67.1,11.5c-0.4-0.7-0.8-1.3-1.2-2"/>
					<path class="st1" d="M68.5,12.3c-0.5-0.8-1-1.6-1.5-2.4"/>
					<path class="st1" d="M70.5,13.6c-0.7-1.1-1.4-2.2-2.1-3.3"/>
					<path class="st1" d="M71.9,14.5C71.9,14.5,71.9,14.6,71.9,14.5C72,14.5,72,14.5,71.9,14.5c-0.4-0.9-0.9-1.8-1.5-2.6"/>
					<path class="st1" d="M73.3,16c-0.3-0.6-0.6-1.2-0.9-1.9"/>
					<path class="st1" d="M74.3,17c-0.1-0.4-0.3-0.7-0.6-1"/>
					<path class="st1" d="M43.3,40.2c-0.9-1.2-1.8-2.4-2.7-3.6"/>
					<path class="st1" d="M44.2,39.9c-1.3-2-3.3-4.6-4.7-6.7"/>
					<path class="st1" d="M42.6,36.1c-1-1.4-2.5-3.8-3.4-5.2"/>
					<path class="st1" d="M41.7,33.1c-0.7-1.1-2-3.1-2.7-4.1"/>
					<path class="st1" d="M41.3,31.3c0-0.1-0.5-1.1-0.6-1.2c-0.5-0.8-1-1.6-1.5-2.3"/>
					<path class="st1" d="M40.7,28.5c-0.6-0.8-1.1-1.6-1.6-2.5"/>
					<path class="st1" d="M40.8,27.1c-0.5-0.8-1-1.5-1.5-2.3"/>
					<path class="st1" d="M40.9,25.8c-0.4-0.7-0.9-1.5-1.4-2.2"/>
					<path class="st1" d="M41.1,24.3c-0.3-0.6-0.6-1.1-1-1.7"/>
					<path class="st1" d="M41.5,23.2c-0.4-0.7-0.8-1.3-1.2-2"/>
					<path class="st1" d="M41.8,22c-0.3-0.6-0.6-1.1-1-1.6"/>
					<path class="st1" d="M42.2,20.9c-0.3-0.5-0.6-1-1-1.5"/>
					<path class="st1" d="M42.8,20c-0.3-0.5-0.6-1-1-1.5"/>
					<path class="st1" d="M43.3,19.2c-0.3-0.5-0.7-1-1-1.5"/>
					<path class="st1" d="M43.8,18.2c-0.3-0.5-0.6-1-0.9-1.5"/>
					<path class="st1" d="M44.4,17.1c-0.3-0.4-0.5-0.9-0.8-1.3"/>
					<path class="st1" d="M45,16.4c-0.3-0.5-0.6-1-0.9-1.5"/>
					<path class="st1" d="M45.8,15.9c-0.3-0.5-0.6-1-0.9-1.5"/>
					<path class="st1" d="M46.4,15.2c-0.3-0.5-0.6-0.9-0.9-1.4"/>
					<path class="st1" d="M47,14.8c-0.3-0.5-0.6-1-0.8-1.4"/>
					<path class="st2" d="M44.7,40.5c-1.2-1.9-2.5-3.7-3.8-5.5"/>
				</g>
				<g>
					<path class="st1" d="M78,48c-1.4-2.3-2.9-4.6-4.3-6.9"/>
					<path class="st1" d="M78.6,47.2c-1.6-2.5-3.1-5-4.5-7.6"/>
					<path class="st1" d="M79.2,46.7c-1.5-2.6-3-5.2-4.5-7.8"/>
					<path class="st1" d="M78.6,43.8c-1.1-2.2-2.2-4.3-3.4-6.5"/>
					<path class="st1" d="M78.5,41.4c-0.9-1.6-1.7-3.2-2.7-4.8"/>
					<path class="st1" d="M78.5,39.3c-0.7-1.2-1.4-2.4-2-3.6"/>
					<path class="st1" d="M78.6,37.4c-0.5-1.1-1.1-2.2-1.8-3.2"/>
					<path class="st1" d="M78.7,35.7c-0.4-0.9-0.9-1.8-1.4-2.6"/>
					<path class="st1" d="M78.8,33.9c-0.3-0.7-0.7-1.4-1.1-2"/>
					<path class="st1" d="M78.9,32.2c-0.4-0.7-0.7-1.4-1.1-2.1"/>
					<path class="st1" d="M78.9,30.2c-0.3-0.5-0.6-1.1-0.9-1.7"/>
					<path class="st1" d="M78.7,28.4c-0.3-0.5-0.5-1.1-0.8-1.6"/>
					<path class="st1" d="M78.6,26.7c-0.2-0.4-0.5-0.9-0.8-1.3"/>
					<path class="st2" d="M79.8,47c0.1,0.1-0.1,0.1-0.2,0c-1.5-2.3-3-4.7-4.5-7"/>
				</g>
			</g>
			<g>
				<g>
					<g>
						<path class="st3" d="M80.9,95.7c-7.7,12.5-25.4,15.5-36.8,6.2c-3.7-2.9-6.5-6.8-8.1-11.2c1.8,4.3,4.7,8.1,8.3,10.9
							C55.7,110.5,72.9,107.6,80.9,95.7L80.9,95.7z"/>
						<path class="st3" d="M39.7,13.9C51.4-2.6,77.2,1.6,83.3,20.9c1.8,5.8,1.4,12.2-1.2,17.7c2.4-5.5,2.6-11.9,0.8-17.6
							C76.7,2.2,51.7-1.9,39.7,13.9L39.7,13.9z"/>
						<path class="st3" d="M7.5,60.4C3.4,50.2,11.7,38.5,22.7,39c-2.6,0.1-5.1,0.8-7.3,2C8.6,44.6,5.2,53.1,7.5,60.4L7.5,60.4z"/>
						<path class="st3" d="M66.6,9c-9.4-3.3-20.6,1-25.2,9.8c-1.5,2.9-2.4,6.1-2.5,9.4c0-1.6,0.1-3.3,0.5-4.9l0.3-1.2l0.4-1.2
							C43.6,10.5,56.4,4.7,66.6,9L66.6,9z"/>
						<path class="st3" d="M91,52.6c-3.9-0.3-7.7-3-9.4-6.5C84,49.1,87.3,51.4,91,52.6L91,52.6z"/>
						<path class="st3" d="M59.7,102.3c9.2-0.2,17.7-7,19.8-16c0.7-2.9,0.8-6.1,0.3-9.1c0.4,1.5,0.6,3,0.6,4.6
							C80.7,93,70.9,102.8,59.7,102.3L59.7,102.3z"/>
						<path class="st3" d="M22.7,67.4c4.8-0.3,9.2-3.2,11.1-7.6c0.6-1.4,1-3,1.1-4.6C35.5,61.8,29.4,68,22.7,67.4L22.7,67.4z"/>
					</g>
				</g>
				<g>
					<g>
						<g>
							<path class="st3" d="M59.5,70.5c-8.5,0.6-16.3-7.2-15.7-15.7c0.1,2.1,0.6,4.1,1.4,5.9C47.6,66.4,53.3,70.2,59.5,70.5
								L59.5,70.5z"/>
						</g>
					</g>
					<g>
						<path class="st3" d="M64.1,65.8c10-4.6,9.1-19.2-1.5-22.3c-5.7-1.7-12.1,1.5-14.3,7c1.3-3.8,4.6-6.7,8.5-7.6
							C71.3,40,77.8,59.8,64.1,65.8L64.1,65.8z"/>
					</g>
				</g>
			</g>
		</g>
		<g>
			<g>
				<path class="st2" d="M131.1,63.1c-1.5-2.2-3-4.5-4.5-6.7"/>
				<path class="st2" d="M136,63.3c-1.9-3-3.9-6-6-8.8"/>
				<path class="st2" d="M141.8,63.4c-2.5-2.8-4.7-5.9-6.5-9.2"/>
				<path class="st2" d="M147.4,63.9c-2.3-2.4-4.3-5.1-6-8"/>
				<path class="st2" d="M121.4,64c-2.5-2.8-4.7-5.9-6.5-9.2"/>
				<path class="st2" d="M127.1,64.5c-2.3-2.4-4.3-5.1-6-8"/>
				<path class="st2" d="M152,63.6c-2.2-2.3-4.2-4.9-5.9-7.7"/>
				<path class="st2" d="M157,63.7c-2.4-2.5-4.6-5.3-6.6-8.2"/>
				<path class="st2" d="M162.8,64.4c-1.9-2.7-3.8-5.4-5.7-8"/>
				<path class="st2" d="M168.8,64.4c-2.2-2.7-4.2-5.5-6.2-8.4"/>
				<path class="st2" d="M173.2,63.3c-1.7-2.5-3.3-5-5-7.6"/>
				<path class="st2" d="M179,63.3c-1.4-2.4-3-4.6-4.8-6.7"/>
				<path class="st2" d="M183.8,62.9c-1.5-2.2-3-4.3-4.5-6.5"/>
				<path class="st2" d="M189.2,63c-1.4-1.9-2.7-3.9-4.1-5.8"/>
				<path class="st2" d="M115.1,64.4c-1.4-1.9-2.7-3.9-4.1-5.8"/>
				<path class="st2" d="M194.8,63.3c-1.6-2.5-3.1-4.9-4.7-7.4"/>
				<path class="st2" d="M199.8,63.4c-1.3-2.8-2.9-5.5-4.7-8"/>
				<path class="st2" d="M205.5,63.4c-0.1,0.2-0.4,0-0.5-0.2c-1.9-3-3.7-6.1-5.5-9.2"/>
				<path class="st2" d="M209.5,63.4c-1.2-2.9-2.7-5.7-4.5-8.2"/>
				<path class="st2" d="M213.7,63c-1.1-2.8-2.5-5.5-4.2-8"/>
				<path class="st2" d="M218.1,63.1c-1.1-3.1-2.6-6.1-4.5-8.7"/>
				<path class="st2" d="M222.7,62.6c-1.2-2.6-2.6-5.2-4-7.8"/>
				<path class="st2" d="M227.5,63.2c-1.4-2.4-2.8-4.9-4.1-7.3"/>
				<path class="st2" d="M232.3,63.9c-1.4-2.5-2.7-5.1-4.1-7.6"/>
				<path class="st2" d="M236,63.7c-0.9-3-2.2-5.9-3.8-8.7"/>
				<path class="st2" d="M241.1,63.3c-1.7-2.9-3.5-5.9-5.2-8.8"/>
				<path class="st2" d="M245.1,62.6c-1-2.8-2.5-5.5-4.4-7.9"/>
				<path class="st2" d="M251.8,63.8c-1.4-3-3-5.8-4.9-8.5"/>
				<path class="st2" d="M256.2,63.8c-1.3-2.7-2.7-5.4-4-8.1"/>
				<path class="st2" d="M261.2,64.3c-1.3-1.7-2.4-3.6-3.2-5.6c-0.5-1.4-1-2.9-2-4"/>
				<path class="st2" d="M265.5,63.5c-1.5-3.1-3.1-6.2-4.7-9.3"/>
				<path class="st2" d="M271.7,63.7c-1.8-2.8-3.5-5.7-4.9-8.7"/>
				<path class="st2" d="M276.1,63.8c-1.1-2-2.3-4-3.4-6"/>
				<path class="st2" d="M280.7,63.7c0.2-0.3-0.1-0.7-0.3-1c-1.1-1.5-2.2-2.9-3.3-4.4"/>
			</g>
			<g>
				<path class="st2" d="M102.5,63.4c-1.7-2.5-3.5-5-5.2-7.5"/>
				<path class="st2" d="M107.8,62.8c-2-2.4-3.9-5-5.7-7.6"/>
				<path class="st2" d="M109,59.6c-0.8-1.1-1.5-2.2-2.3-3.3"/>
			</g>
			<g>
				<g>
					<path class="st2" d="M52.9,71.5c-2.2-2.9-4.3-5.9-6.4-8.9"/>
					<path class="st2" d="M56.9,71c-1.6-2.6-3.3-5.1-5-7.6"/>
					<path class="st2" d="M62,70.6c-1.5-2.3-2.9-4.5-4.4-6.8"/>
					<path class="st2" d="M65.9,69c-1.1-2-2.3-4-3.5-5.9"/>
					<path class="st2" d="M69.6,67c-1.4-1.5-2.6-3.2-3.6-5"/>
					<path class="st2" d="M72.5,64.5c-1.7-1.9-3.1-4-4.3-6.2"/>
					<path class="st2" d="M74.4,61.8c-1.4-2.4-3.1-4.7-5-6.7"/>
					<path class="st2" d="M75.7,56.4c0-0.1,0.1,0.1,0.1,0.1c-0.1,0-0.2-0.1-0.2-0.1c-1.9-3.2-4.2-6.2-6.6-9"/>
					<path class="st2" d="M76,50.5c-2.5-3.3-5.2-6.4-8-9.5"/>
				</g>
				<g>
					<path class="st2" d="M44.3,104.1c-2.5-2.7-4.7-5.7-6.5-8.9c-1-1.7-1.8-3.4-3.2-4.9"/>
					<path class="st2" d="M48.9,106.1c-5.1-7-9.8-14.2-14.1-21.7"/>
					<path class="st2" d="M54.1,107.8c-6.7-10.1-13.6-20.2-20.7-30.1"/>
					<path class="st2" d="M39.9,81.7c-1.9-3.1-3.8-6.1-5.7-9.2"/>
					<path class="st2" d="M40.3,75.6c-1.4-1.9-2.7-3.9-3.9-6"/>
					<path class="st2" d="M58.3,108.2c-1.8-2.9-3.6-5.8-5.3-8.7"/>
					<path class="st2" d="M62.7,109.1c-1.8-2.7-3.5-5.5-5.1-8.3"/>
					<path class="st2" d="M66.7,107.6c-0.4-0.4-1.3-0.1-1.4,0.4c-0.2,0.6,0.4,1.2,1,1.1c0.6-0.1,0.9-0.9,0.5-1.4
						c-1.7-2.2-3.3-4.5-4.8-6.9"/>
					<path class="st2" d="M69.6,105.8c-1.1-1.9-2.3-3.7-3.4-5.6"/>
					<path class="st2" d="M74,104.7c-1.7-1.7-3.1-3.7-4.2-5.8"/>
					<path class="st2" d="M76.7,102c-1.3-1.6-2.6-3.1-3.9-4.7"/>
					<path class="st2" d="M79.1,99.2c-1.4-2-2.8-3.9-4.2-5.9"/>
					<path class="st2" d="M81.4,96.4c-1.4-2-2.7-3.9-4.1-5.9"/>
					<path class="st2" d="M83.3,92.5c-1.5-2.3-3.1-4.5-4.8-6.6"/>
					<path class="st2" d="M85.6,90.3c-2.7-3.5-5.4-7.1-8.1-10.6"/>
					<path class="st2" d="M86.4,85.1c-2.6-3.2-5.2-6.3-7.9-9.5"/>
					<path class="st2" d="M86.6,80.2c-3.3-4.2-6.8-8.3-10.4-12.3"/>
					<path class="st2" d="M85.2,71c-1.7-2.4-3.5-4.7-5.5-6.8"/>
					<path class="st2" d="M88.3,66.6c-1.6-2-3.1-4-4.4-6.2"/>
					<path class="st2" d="M91.8,64.6c-1.8-2.1-3.5-4.4-5.1-6.7"/>
					<path class="st2" d="M94.6,62.5c-1.5-2.4-3.1-4.7-4.8-7"/>
					<path class="st2" d="M95.8,58.1c0,0.1,0.2,0.1,0.2,0c0-0.1,0-0.2-0.1-0.3c-3.8-5.6-7.9-11.1-12.2-16.3"/>
					<path class="st2" d="M96.4,52.1c-1.6-2.4-3.3-4.8-5.2-7.1"/>
					<path class="st2" d="M12.2,69.4c-1.5-2.5-2.9-5-4.4-7.6"/>
					<path class="st2" d="M17.6,70.3c-1.8-2.8-3.6-5.6-5.4-8.4"/>
					<path class="st2" d="M21.4,70.9c-1.2-2.6-2.7-5.1-4.4-7.4"/>
					<path class="st2" d="M27.3,71.3c-1.4-2.3-2.7-4.6-3.9-6.9"/>
					<path class="st2" d="M31.6,70c-1.5-2.5-3-5.1-4.5-7.6"/>
					<path class="st2" d="M34.4,67.8c-1.2-1.8-2.4-3.7-3.6-5.5"/>
					<path class="st2" d="M34.1,52.3c-1.2-2.3-2.7-4.5-4.4-6.4"/>
					<path class="st2" d="M37.7,52.1c-1.9-2.9-3.8-5.8-5.6-8.7"/>
					<path class="st2" d="M40.7,50.2c-1.8-2.6-3.6-5.1-5.4-7.7"/>
					<path class="st2" d="M41.7,46.3c-1.8-2.8-3.8-5.5-6-8"/>
					<path class="st2" d="M43.6,44.3c-1.7-3-3.6-5.8-5.8-8.4"/>
					<path class="st2" d="M45.2,15.6c-0.6-1.1-1.3-2.2-2.1-3.1"/>
					<path class="st2" d="M48.5,13c-0.7-1.2-1.4-2.4-2-3.5"/>
					<path class="st2" d="M52.5,11.3c-0.9-1.5-1.8-3-2.6-4.5"/>
					<path class="st2" d="M55.6,10c-0.8-1.2-1.5-2.4-2.3-3.5"/>
					<path class="st2" d="M59.2,9.6c-0.8-1.5-1.7-2.9-2.8-4.3"/>
					<path class="st2" d="M62.8,9.7c-0.9-1.5-1.8-3-2.7-4.5"/>
					<path class="st2" d="M87.2,51.6c-3.1-4.3-6.2-8.6-9.2-12.9"/>
					<path class="st2" d="M82.1,38.3c-1.3-1.7-2.6-3.4-3.8-5.2"/>
					<path class="st2" d="M85,35.5c-2.4-2.8-4.7-5.7-6.7-8.8"/>
					<path class="st2" d="M86.3,32.2c-0.1-0.9-0.7-1.7-1.3-2.5c-1.9-2.2-3.7-4.4-5.6-6.6"/>
					<path class="st2" d="M86.1,25.9c-1.7-2.6-3.6-5-5.6-7.3"/>
				</g>
			</g>
		</g>
	</g>
</g>
</svg>
