<?xml version="1.0" encoding="utf-8"?>
<!-- Generator: Adobe Illustrator 26.5.0, SVG Export Plug-In . SVG Version: 6.00 Build 0)  -->
<svg version="1.1" id="Layer_1" xmlns="http://www.w3.org/2000/svg" xmlns:xlink="http://www.w3.org/1999/xlink" x="0px" y="0px"
	 viewBox="0 0 150 150" style="enable-background:new 0 0 150 150;" xml:space="preserve">
<style type="text/css">
	.st0{fill:#333333;}
	.st1{fill:#FFFFFF;stroke:#000000;stroke-width:0.5;stroke-miterlimit:10;}
	.st2{fill:#989898;}
	.st3{fill:#676767;}
	.st4{fill:#CCCBCB;}
	.st5{fill:#232121;}
	.st6{fill:#98CA3C;}
</style>
<g>
	<path class="st0" d="M58,112.5c-1.3,2.7-2.3,4.8-2.8,6.3c-0.8,2.4-1.1,4.6-0.9,6.6c0.1,1,0.3,1.9,0.6,2.9c1,0.9,2.1,1.7,3.4,2.5
		c1.1,0.6,2.5,1.4,4.4,2.4c2.2,1.1,16.6,7.8,17.7,7.8c1.5-1.2,2.9-2.6,4.3-4.1c2.4-2.7,5.2-6.9,8.5-12.4c3.9-6.7,7.4-12.6,10.5-17.8
		c-1.3-0.8-2.5-1.6-3.6-2.3c-2.9,4.4-6,9.2-9.5,14.5c-0.7,0.3-1.3,0.4-1.9,0.4c-0.6,0-1.2-0.2-1.9-0.5c-0.4-0.2-1-0.5-1.7-1
		c-3.4-2.2-6-3.8-7.8-4.9l-5.3-3.4c-0.7-0.5-1.3-0.9-1.7-1.2c-0.6-0.5-1.1-1-1.5-1.5c-0.4-0.6-0.7-1.2-0.9-1.9c0,0,0-0.1,0-0.1
		c2.1-4.8,4.4-9.5,6.8-14.1c-0.8-0.5-1.5-0.9-2.1-1.2c-0.6-0.4-1.2-0.7-1.8-1.1C67.7,93.9,63.4,102,58,112.5 M79.1,129.9
		c0.2,0.1,0.4,0.2,0.6,0.4c0.3,0.3,0.6,0.7,0.8,1.2c0.3,0.7,0.5,1.4,0.4,2.2c0,0.7-0.1,1.3-0.4,1.9c-0.3,0.7-0.7,1.2-1.2,1.6
		c-0.8,0.6-1.7,0.8-2.7,0.7c-1-0.1-1.9-0.6-2.5-1.4c-0.6-0.8-0.9-1.7-0.8-2.7c0.1-1,0.4-1.9,1.1-2.6c0.7-0.7,1.5-1.2,2.5-1.3
		C77.7,129.7,78.4,129.7,79.1,129.9 M110.1,56.7c-0.2,0.4-0.4,0.8-0.6,1.2c0.1,0.1,0.3,0.2,0.4,0.2c0,0,0,0,0,0
		c0.5,0.3,1,0.6,1.4,0.9c1.2,0.7,2.3,1.6,3.3,2.5c0.6,0.6,1,1.1,1.2,1.5c0.1,0.3,0.1,0.7,0.1,1.1c0,0.2-0.1,0.6-0.3,1.1
		c-0.3,0.8-0.6,1.5-0.9,2.3l4.1,2.8c0.1,0,0.1,0.1,0.2,0.1c0.3-0.5,0.5-1,0.7-1.5c0.4-1,0.5-1.9,0.6-2.9c0-1-0.1-2-0.5-2.8
		c-0.3-0.8-0.9-1.5-1.6-2.2c-0.5-0.5-1.2-1.1-2.2-1.8c-1.1-0.8-2.2-1.5-3.3-2.2c-0.5-0.3-1-0.6-1.5-0.9c-0.2-0.2-0.5-0.3-0.8-0.4
		C110.4,56.1,110.2,56.4,110.1,56.7 M91.2,57.2c-0.2,0-0.3,0-0.5,0c-1,0.6-1.9,1.3-2.7,2.3c-1.1,1.1-2.2,2.7-3.5,4.9
		c-4.2,6.8-8.6,14.5-13.3,23.2c1.3,0.8,2.6,1.6,3.9,2.4c2.2-4.3,4.5-8.6,7-12.8c0.1-0.2,0.2-0.3,0.3-0.5c1.8-3,3.6-6.1,5.4-9
		c0.7-1.1,1.4-2,1.9-2.6c0.8-0.8,1.7-1.3,2.6-1.5c0.7-0.1,1.5,0,2.4,0.3c0.6,0.2,1.3,0.6,2.3,1.1c5,2.8,10.1,5.9,15.1,9.4
		c0.9,0.6,1.6,1.2,2,1.6c0.7,0.7,1.1,1.4,1.3,2.1c0.2,0.8,0.1,1.8-0.3,2.8c-0.3,0.7-0.7,1.6-1.4,2.6c-1.5,2.3-3.3,5-5.2,8
		c-2.3,3.5-4.9,7.4-7.8,11.9c1.1,0.6,2.3,1.4,3.7,2.2c3.2-5.5,5.9-10,8-13.6c2.5-4.3,4.4-7.6,5.5-10c1.2-2.6,2.2-5,2.9-7.4
		c-0.2-0.5-0.4-1-0.7-1.4c-0.4-0.6-0.9-1.3-1.5-1.9c-0.7-0.7-1.5-1.3-2.5-2c-0.6-0.3-1.2-0.7-1.7-1c-1.4-0.8-2.5-1.4-3.2-1.9
		c-1.1-0.6-2.7-1.6-4.7-3c-2.1-1.4-3.6-2.4-4.7-3c-0.8-0.5-1.6-0.9-2.4-1.3c-1.9-0.9-3.7-1.5-5.4-1.8C93,57.3,92.1,57.2,91.2,57.2
		 M101,51.8c-1.2-0.2-2.3-0.1-3.2,0.4c-1.1,0.5-2.1,1.6-2.9,3.3c-0.2,0.3-0.4,0.8-0.7,1.4c1,0.1,2,0.3,3,0.5
		c0.9,0.3,1.8,0.6,2.7,1.1c0.4-0.5,0.8-0.9,1.3-1.4c0.6-0.7,1.2-1.1,1.8-1.3c0.4-0.1,0.9-0.1,1.4,0c0.4,0.1,0.8,0.2,1.4,0.4
		c0.3,0.1,0.5,0.2,0.8,0.3c0.2,0.1,0.4,0.1,0.5,0.2c0.3-0.6,0.7-1.2,1-1.7c0.1-0.1,0.2-0.3,0.2-0.4c-0.3-0.1-0.6-0.3-0.9-0.4
		c-0.3-0.1-0.6-0.3-0.9-0.4c-0.7-0.3-1.4-0.6-2.2-0.9C103,52.3,101.9,51.9,101,51.8 M96.7,34.6c-0.1-0.5-0.3-1.1-0.7-2
		c-0.2-0.5-0.5-1-0.7-1.5l-2,0c0.2,0.5,0.4,1.1,0.4,1.6c0.1,0.9,0,1.6-0.4,2.3c-0.1,0.2-0.2,0.4-0.4,0.6c-0.1,0.1-0.1,0.2-0.2,0.3
		c0.7,1.3,1.4,2.6,2,4l0.1-0.1c0.5-0.6,0.9-1.1,1.2-1.4c0.4-0.6,0.7-1.1,0.8-1.7C96.9,36,96.9,35.3,96.7,34.6 M94.2,28.7
		c-0.7-1.5-1.4-2.8-2.2-4.1c-0.4-0.7-0.8-1.3-1.1-1.8c-0.4-0.6-0.9-1.1-1.4-1.5c-0.7-0.6-1.7-1.1-2.8-1.4c-0.6-0.2-1.4-0.3-2.4-0.5
		c1,1.4,1.8,2.8,2.6,4.3c0.7,0,1.4,0,2.3,0c0.4,0,0.6,0,0.8,0.1c0.1,0.1,0.3,0.2,0.4,0.4c0,0.1,0.1,0.2,0.3,0.5
		c0,0.1,0.2,0.5,0.6,1.2c0.2,0.5,0.4,0.9,0.5,1.3c0.1,0.3,0.2,0.6,0.3,1.2c0,0.1,0.1,0.3,0.1,0.4C92.8,28.8,93.5,28.7,94.2,28.7
		 M76.6,16.2c-2-0.6-4.2-0.6-6.6-0.1c-2.1,0.4-4.2,1.3-6.3,2.5c-4.7,2.7-9.1,6.9-12.9,12.5c-1.9,2.8-3.7,5.8-5.2,9.1
		c-0.3,0.7-0.6,1.3-0.8,1.8c-0.2,0.7-0.3,1.3-0.4,1.9c0,0.3,0,0.7,0,1.1c0.1,0.7,0.3,1.5,0.7,2.2c0.2,0.4,0.4,0.8,0.8,1.4
		c0.3,0.5,0.7,1.1,1.1,1.7c0.3,0.4,0.5,0.8,0.8,1.1c0.5,0.8,0.9,1.4,1.2,1.9c0.1,0.2,0.2,0.5,0.4,0.7c0.2,0.4,0.3,0.8,0.4,1.1
		c0.1,0.2,0.1,0.5,0.2,0.7c0,0.1,0,0.2,0,0.3c1.5,0.2,3,0.5,4.4,0.7c7.1,0.9,14.3,1,21.6,0.5c3.3-0.3,6-0.8,8.1-1.5
		c2.9-1,5.1-2.4,6.6-4.4c1.2-1.5,2-3.2,2.4-5.3c0.3-1.5,0.4-3.1,0.2-4.7c0-0.4-0.1-0.8-0.2-1.2c-0.2-1.2-0.5-2.5-0.9-3.8
		c-0.2-0.6-0.4-1.2-0.7-1.9c-0.6-1.4-1.4-3.2-2.5-5.4c-1.1-2.1-2.1-3.9-3.1-5.4c-0.6-0.9-1.3-1.8-1.9-2.5c-0.8-0.9-1.5-1.7-2.3-2.3
		C80,17.6,78.3,16.7,76.6,16.2 M84.1,43c-0.8,0.3-1.5,0.5-2,0.7c-0.8,0.2-1.4,0.2-2.1,0.1c-1.1-0.2-2.2-0.8-3.2-2
		c-0.6-0.7-1.4-1.8-2.2-3.3c-1.2-2.2-2-3.9-2.6-5.2c-0.3-0.6-0.5-1.3-0.8-1.8c0-0.1,0-0.3,0-0.4c0,0,0-0.1,0-0.1c0-0.4,0-0.8,0-1.2
		c0-1,0.3-1.8,0.7-2.5c0.5-0.7,1.1-1.2,2.1-1.7c0.6-0.3,1.5-0.5,2.6-0.9c0.6-0.2,1.1-0.2,1.4-0.3c0.5,0,1,0,1.3,0.2
		c0.7,0.3,1.3,0.9,1.9,2c2,3.3,3.6,6.9,5,10.8c0.2,0.6,0.4,1.2,0.4,1.6c0,0.1,0,0.2,0,0.3c0,0.1,0,0.2,0,0.3c0.1,0.6,0,1.1-0.2,1.5
		C86.2,41.8,85.4,42.4,84.1,43 M65.1,31.5c0.5,0.3,0.9,0.7,1.3,1.1c0.3,0.4,0.6,0.9,0.9,1.5c0.1,0.3,0.4,0.8,0.8,1.6l1.8,4.2
		c0.6,1.3,0.9,2.3,1.1,3.2c0,0.1,0,0.3,0,0.4c0,0,0,0.1,0,0.1c0.2,1.2,0,2.3-0.6,3.1c-0.5,0.8-1.4,1.3-2.5,1.5
		c-0.9,0.2-2,0.2-3.2,0.1c-1-0.1-2.1-0.5-3.2-1c-1.3-0.6-2.1-1.2-2.6-1.9c-0.3-0.4-0.5-0.8-0.7-1.2c-0.2-0.5-0.3-0.9-0.4-1.2
		c-0.4-1-0.6-2-0.7-2.9c-0.2-1.3-0.2-2.5,0.1-3.6c0.4-1.5,1.3-2.9,2.6-4.1c1.2-1,2.3-1.5,3.4-1.4C64,31,64.5,31.2,65.1,31.5z"/>
	<path class="st1" d="M79.7,130.3c-0.2-0.2-0.4-0.3-0.6-0.4c-0.7-0.2-1.4-0.2-2.1-0.1c-1,0.2-1.9,0.6-2.5,1.3
		c-0.7,0.7-1,1.6-1.1,2.6c-0.1,1.1,0.2,2,0.8,2.7c0.6,0.8,1.4,1.2,2.5,1.4c1.1,0.1,2-0.1,2.7-0.7c0.5-0.4,0.9-0.9,1.2-1.6
		c0.3-0.6,0.4-1.2,0.4-1.9c0-0.8-0.1-1.5-0.4-2.2C80.3,131,80,130.6,79.7,130.3 M114.5,48c0.2-0.5,0.5-0.9,0.7-1.4l-1.8-1
		c-0.3,0.5-0.6,1-0.9,1.5c-0.2,0.3-0.4,0.6-0.5,0.9c-0.2,0.4-0.5,0.8-0.7,1.2c0,0,0,0.1-0.1,0.1c0,0,0,0.1-0.1,0.1
		c-0.1,0.2-0.3,0.5-0.4,0.7c0,0.1-0.1,0.1-0.1,0.2c0,0,0,0,0,0c-0.2,0.4-0.5,0.8-0.8,1.2c0,0,0.1,0,0.1,0c-0.1,0.1-0.1,0.2-0.2,0.3
		c-0.1,0.2-0.3,0.4-0.4,0.6c0,0.1-0.1,0.2-0.1,0.2c-0.3,0.6-0.6,1.1-0.9,1.6c0,0.1-0.1,0.2-0.1,0.2c-0.1,0.1-0.2,0.3-0.2,0.4
		c-0.3,0.6-0.6,1.2-1,1.7c-0.4,0.7-0.7,1.3-1.1,2c0.3,0.3,0.7,0.6,1.1,1c0.4,0.3,0.7,0.6,1.1,0.8c0.5-0.9,0.9-1.8,1.4-2.7
		c0.2-0.4,0.4-0.8,0.6-1.2c0.2-0.3,0.3-0.6,0.5-0.9c0.1-0.1,0.1-0.3,0.2-0.4c0.3-0.6,0.6-1.1,0.8-1.7c0,0,0,0,0,0
		c0.1-0.2,0.3-0.4,0.5-0.7c0.4-1,0.8-1.9,1.3-2.8c0,0,0-0.1,0.1-0.1c0,0,0-0.1,0-0.1C113.9,49.3,114.2,48.6,114.5,48 M98.6,31.9
		c0,0.9,0,1.7,0.1,2.6c0.2,2.5,0.8,4.9,1.7,7.1c1,2.3,2.3,4.4,4,6.1c1,1,2.1,1.9,3.2,2.6c0,0,0.1,0,0.1,0.1c0.3,0.2,0.7,0.4,1,0.6
		c0.3-0.4,0.6-0.9,0.9-1.3c-0.4-0.3-0.7-0.6-1.1-0.9c0,0-0.1-0.1-0.1-0.1c-1.8-1.6-3.2-3.7-4.4-6.2c-1.5-3.3-2.3-6.8-2.3-10.5
		L98.6,31.9 M94.2,28.7c-0.7,0-1.3,0.1-2,0.1c-0.2,0-0.5,0-0.7,0c-0.4,0-0.7,0.1-0.9,0.3c-0.2,0.2-0.2,0.5-0.1,1
		c0.1,0.2,0.2,0.5,0.3,0.9l2.5,0l2,0l3.3,0l3.3,0l4.1,0c0.2-1.2,0.3-2.2,0.5-2.8c-1.7,0-3.1,0.1-4.3,0.1c-1.5,0-2.5,0-3.1,0
		c-0.1,0-0.1,0-0.2,0C97.2,28.6,95.6,28.6,94.2,28.7 M117.7,9.8c-4.1,0-7.5,1.1-10.4,3c-2.2,1.5-4.1,3.6-5.5,6.3
		c-1.3,2.4-2.2,5.1-2.7,8c0,0.1,0,0.2-0.1,0.3c1.1-0.1,2.2-0.1,3.3-0.1c0.5-2.7,1.4-5.1,2.8-7.2c1.5-2.2,3.4-4,5.9-5.4
		c2.4-1.4,4.9-2.2,7.7-2.5c2.6-0.3,5.3-0.1,8,0.5c2.6,0.6,5.1,1.7,7.4,3.1c3.4,1.9,5.7,4.2,6.9,6.8c1.1,2.5,1.4,5.4,0.8,9
		c-0.6,3.4-1.8,6.5-3.7,9.5c-2,2.9-4.4,5.3-7.3,7.1c-2.9,1.8-6.1,2.9-9.7,3.2c-1.4,0.1-2.8,0.2-4.2,0.1c-0.5,0-1-0.1-1.5-0.2
		c-0.5-0.1-0.9-0.2-1.4-0.2c-0.3,0.6-0.6,1.1-0.9,1.7c0.4,0.1,0.8,0.2,1.3,0.3c0.4,0.1,0.8,0.1,1.2,0.2c2.5,0.2,5,0.2,7.5-0.1
		c5.3-0.7,9.8-2.5,13.6-5.4c1.9-1.5,3.6-3.4,5-5.6c1.3-2.2,2.3-4.5,2.9-6.9c1.2-5.3,0.5-10-2.2-14.1c-2.7-4.1-7.3-7.3-13.7-9.4
		C124.9,10.4,121.2,9.8,117.7,9.8z"/>
	<path class="st2" d="M47,50.3c-0.4-0.6-0.8-1.2-1.1-1.7c-0.3,0.1-0.5,0.2-0.8,0.3c0.4,0.8,0.9,1.7,1.4,2.6c0.1,0.1,0.1,0.2,0.2,0.3
		c0.3-0.1,0.7-0.3,1-0.4C47.5,51.1,47.3,50.7,47,50.3 M22.8,57.9c-0.7-0.5-1.5-0.6-2.5-0.5c-0.9,0.1-1.7,0.5-2.4,1.1
		c-0.6,0.5-1.2,1.1-1.7,1.9c-0.3,0.4-0.7,1.1-1.2,2.2c9.9-4.6,20-9.1,30.3-13.6c-0.6-1.2-1.1-2.4-1.4-3.5l-15,7.3
		c-1.6,0.7-2.8,1.4-3.6,2.1C24,55.7,23.2,56.7,22.8,57.9 M12.4,61.3c0,1.1-0.3,2-0.9,2.8c1.1-0.5,2.1-1,3.2-1.5
		C14.2,62.3,13.4,61.9,12.4,61.3 M11.3,64.2c-0.8-1-1.3-1.5-1.4-1.6c0,0.8-0.2,1.6-0.6,2.2c-0.4-0.4-1-1.1-1.7-2
		c-0.8,1.5-1.7,2.9-2.7,4.4C7,66.2,9.1,65.2,11.3,64.2 M2.3,70.9C2.3,71,2.3,71,2.3,70.9C2.3,71,2.3,71,2.3,70.9
		c3.7,0.7,6.5,1.2,8.5,1.5c0.2-1.5,0.4-2.6,0.6-3.4c0.4,0.8,1,1.3,1.7,1.7l0.4-3c0.6,0.8,1.3,1.3,2.1,1.6c-0.2-1.1,0-2.1,0.5-3
		c1.5,0.8,3.2,1.3,5.1,1.5c0.3-1.1,0.8-2.1,1.4-3c0.4-0.6,0.9-1.2,1.4-1.7c0.3-0.3,0.5-0.5,0.8-0.8l3.6,2.3l20.8-9.2
		c-0.3-0.4-0.6-0.8-0.9-1.2c-0.6-0.9-1.1-1.7-1.6-2.4c-6.3,2.3-12.5,4.7-18.7,7.3c-1.5,0.6-2.9,1.2-4.4,1.9
		c-6.6,2.8-13.1,5.8-19.5,9C3.6,70.3,2.9,70.6,2.3,70.9z"/>
	<path class="st3" d="M43.7,45.4c0.4,1.2,0.8,2.3,1.4,3.5c0.2-0.1,0.5-0.2,0.8-0.3c-0.3-0.5-0.6-1-0.8-1.4c-0.4-0.8-0.6-1.5-0.7-2.2
		L43.7,45.4 M13,70.8c-0.8-0.4-1.3-1-1.7-1.7c-0.1,0.7-0.3,1.9-0.6,3.4C8.8,72.1,6,71.6,2.3,71c3.3,1.1,6.3,1.9,9.3,2.5
		c0-1.2,0-2.1,0-2.7c0.6,0.6,1.2,1,1.8,1.4c0.3-1.3,0.5-2.3,0.7-3c0.5,0.6,1.1,1.1,1.8,1.6l0.6-3.5c1.8,0.6,3.5,1.1,4.9,1.3
		c0.4-1.2,1-2.3,1.7-3.3c0.4-0.7,0.9-1.3,1.5-1.9c1.5,0.4,2.8,1.1,3.9,2.1c6.8-3.5,13.9-6.7,21.2-9.5c0-0.2-0.1-0.5-0.2-0.7
		c-0.1-0.4-0.2-0.7-0.4-1.1c-0.1-0.2-0.2-0.5-0.4-0.7c-0.2-0.4-0.6-1.1-1.2-1.9c-0.3,0.1-0.7,0.2-1,0.4c0.4,0.7,1,1.5,1.6,2.4
		c0.3,0.4,0.6,0.8,0.9,1.2l-20.8,9.2l-3.6-2.3c-0.3,0.2-0.6,0.5-0.8,0.8c-0.5,0.5-1,1.1-1.4,1.7c-0.6,0.9-1.1,1.9-1.4,3
		c-1.9-0.2-3.6-0.7-5.1-1.5c-0.5,0.9-0.7,1.9-0.5,3c-0.8-0.3-1.6-0.8-2.1-1.6L13,70.8 M103.8,89.3c-0.3-0.2-0.6-0.4-0.8-0.5
		c-0.2,0.3-0.4,0.6-0.5,0.9c-3.9-2.1-9.4-5.2-16.7-9.2c0.1-0.3,0.2-0.4,0.2-0.5c0.1-0.2,0.2-0.4,0.3-0.5c-1.1-0.7-2.3-1.3-3.5-2
		c-2.5,4.2-4.9,8.4-7.1,12.8c-0.1,0.3-0.3,0.6-0.4,0.8c-0.2,0.4-0.4,0.8-0.6,1.1c2.3,1.5,3.6,2.3,3.7,2.4l-0.3,0.5
		c-1.2-0.7-2.4-1.4-3.8-2c-2.1,4.4-3.3,6.8-3.5,7.3c-1.4,3.2-1.8,5.1-1.3,5.6c1.1,1.1,2.9,2.4,5.4,4.1c2.8,1.7,4.7,2.9,5.7,3.5
		c1,0.6,2.5,1.6,4.5,2.8c0.5,0.4,1,0.6,1.4,0.8c0.5,0.2,1,0.4,1.5,0.5c0.6,0.1,1.1,0,1.6-0.2c0.1,0,1.1-1.5,2.9-4.3
		c1.8-2.7,3.3-5,4.5-6.8c-0.3-0.2-0.8-0.4-1.4-0.8c-0.4-0.2-0.8-0.4-1.1-0.6c-0.1,0.1-0.3,0.2-0.4,0.4c-7-3.9-11.5-6.5-13.5-7.6
		c-1.5-0.9-2.6-1.5-3.2-1.8c0.2-0.3,0.5-0.8,0.9-1.4l0.3-0.6c5.7,3.1,11.3,6.5,16.9,10.1c-0.1,0.1-0.3,0.3-0.5,0.5
		c0.3,0.2,0.8,0.4,1.4,0.7c0.6,0.3,0.9,0.5,1,0.5c0.5-0.7,1-1.5,1.4-2.2c0.2-0.3,0.4-0.6,0.6-0.9c2.7-4.2,5.1-8,7.3-11.4
		c-0.5-0.3-0.9-0.6-1.2-0.8C104.9,90,104.3,89.6,103.8,89.3 M87.8,89.9C87.8,89.9,87.8,89.9,87.8,89.9c0.2-0.3,0.4-0.5,0.8-0.6
		c0.1,0,0.3,0,0.4,0c0.1,0,0.2,0.1,0.3,0.2c0.2,0.1,0.4,0.2,0.4,0.3c0.1,0.1,0.1,0.3,0.1,0.6c0,0.2,0,0.4-0.1,0.6c0,0,0,0.1,0,0.1
		c0.3,0.2,0.7,0.4,1.1,0.7l1.6,0.9c0-0.1,0.1-0.2,0.3-0.3c0.3-0.2,0.6-0.3,1-0.3c0.4,0.1,0.7,0.3,0.9,0.7c0.2,0.4,0.1,0.7-0.1,1.1
		l0.8,0.4c0.1,0.1,0.2,0.1,0.2,0.2c0,0,0,0.1,0,0.3c-0.2,0.3-0.4,0.6-0.7,1c-0.1,0.1-0.2,0.2-0.2,0.2c-0.1,0-0.2,0-0.4-0.1l-1.5-0.7
		C92.4,95,92.3,95,92.1,95c-0.2,0-0.4,0-0.7,0.1c-0.5,0.1-1,0.4-1.5,0.6c-0.2,0.1-0.3,0.1-0.3,0.1c-0.1,0-0.2-0.1-0.3-0.1
		c-0.6-0.4-1.3-0.7-2.1-1.1c-0.3-0.2-0.5-0.3-0.5-0.5c0-0.1,0-0.2,0-0.3l0.1-1.2c0-0.2,0-0.4,0-0.5c0-0.1-0.1-0.2-0.2-0.3
		c0,0-0.1-0.1-0.3-0.2c-0.1-0.1-0.3-0.2-0.5-0.4c-0.1-0.1-0.1-0.2-0.1-0.2c0-0.1,0.1-0.1,0.2-0.2c0.2-0.2,0.4-0.5,0.6-0.9
		c0.1-0.2,0.2-0.3,0.2-0.3c0.1,0,0.1,0,0.2,0C87.1,89.6,87.4,89.7,87.8,89.9 M85.3,92.9c-0.2,0-0.4,0-0.5,0c-0.1,0-0.3-0.1-0.5-0.2
		c-0.1-0.1-0.2-0.2-0.2-0.2c0-0.1,0-0.1,0.1-0.2c0.1,0,0.2-0.1,0.2-0.1c0.1,0,0.2,0.1,0.4,0.2c0.2,0,0.5,0,0.8-0.2
		c0.1-0.1,0.2-0.1,0.3-0.1c0.1,0,0.2,0.2,0.2,0.3c0,0.1-0.1,0.2-0.2,0.3C85.8,92.8,85.6,92.9,85.3,92.9 M80.3,105.3l0.2-0.3
		c0.2-0.2,0.4-0.4,0.4-0.4c0.2-0.2,0.5-0.3,0.8-0.4c0.2-0.1,0.4-0.1,0.5-0.1c0.2,0,0.4,0,0.7,0.1c0.5,0.1,1,0.3,1.3,0.5
		c0.5,0.3,0.7,0.6,0.8,1.1c0.1,0.2,0.1,0.5,0,0.7c0,0.2-0.1,0.4-0.1,0.5c0,0.1-0.1,0.2-0.2,0.4l-0.1,0.3l-0.6,1.1
		c-0.1,0.1-0.1,0.2-0.2,0.2c-0.1,0.1-0.3,0-0.5-0.1c0,0-0.1,0-0.1-0.1c0,0.1-0.1,0.2-0.2,0.3l-0.6,1.1c-0.2,0.3-0.4,0.6-0.6,0.6
		c-0.2,0.1-0.4,0.1-0.7,0c-0.4-0.1-0.9-0.3-1.4-0.6c-0.3-0.2-0.5-0.3-0.6-0.5c-0.1-0.2-0.2-0.4-0.2-0.6c0-0.2,0-0.5,0.1-0.7
		c0.3-0.7,0.5-1.2,0.6-1.3c0,0,0-0.1,0.1-0.1l-0.3-0.2c-0.1-0.1-0.2-0.1-0.2-0.2C79.4,106.7,79.7,106.2,80.3,105.3 M83.5,104.9
		c-0.6-0.2-1.1-0.2-1.5-0.2c-0.4,0.1-0.8,0.3-1.1,0.7c-0.2,0.2-0.4,0.6-0.7,1.1l3.7,1.9c0.2-0.4,0.4-0.8,0.5-1
		c0.2-0.4,0.3-0.7,0.3-1c0-0.4,0-0.8-0.2-1C84.3,105.2,84,105,83.5,104.9 M83.3,106c0,0.1-0.1,0.2-0.2,0.3c-0.1,0.1-0.2,0.3-0.2,0.4
		l-0.1,0.3c0,0.1-0.1,0.2-0.2,0.2c-0.1,0-0.1,0-0.2,0c-0.1-0.1-0.1-0.1-0.1-0.3c0-0.1,0-0.2,0.1-0.3c0-0.1,0.2-0.4,0.5-0.8
		c0.1-0.1,0.2-0.2,0.2-0.2c0.1,0,0.2,0,0.3,0.2C83.4,105.8,83.3,105.9,83.3,106 M80.4,107.3c0,0-0.1,0.3-0.3,0.7
		c-0.2,0.5-0.3,0.9-0.3,1.1c0.1,0.3,0.3,0.5,0.6,0.7c0.2,0.1,0.5,0.3,0.9,0.4c0.2,0.1,0.3,0.1,0.3,0.2c0.1,0,0.3,0,0.3,0
		c0.1,0,0.2-0.1,0.3-0.3c0.3-0.4,0.6-0.9,0.7-1.3c0-0.1,0.1-0.1,0.1-0.2c-0.5-0.3-1.2-0.6-2-1c-0.2-0.1-0.3-0.2-0.4-0.2L80.4,107.3
		 M93.9,93.5c0-0.1,0-0.2,0-0.4c0-0.2-0.1-0.3-0.1-0.4c-0.1-0.1-0.3-0.1-0.5-0.2c-0.2,0-0.3,0-0.3,0.1c0,0-0.1,0.1-0.3,0.2l0,0
		L93.9,93.5C93.9,93.5,93.9,93.5,93.9,93.5 M88.2,90.2c0.2,0.1,0.4,0.2,0.5,0.3c0.1,0.1,0.2,0.1,0.3,0.2c0,0,0-0.1,0-0.1
		c0-0.1,0-0.3,0.1-0.3c0-0.1,0-0.2-0.1-0.2c0-0.1-0.1-0.1-0.2-0.1c-0.2-0.1-0.4,0-0.6,0.1C88.3,90.1,88.3,90.1,88.2,90.2 M86.2,90.8
		c0,0,0,0.1,0.1,0.2c0.3,0.2,0.5,0.4,0.8,0.6c0.1,0.1,0.2,0.2,0.2,0.3c0,0.1,0,0.2,0,0.4c-0.1,0.3-0.1,0.8-0.1,1.3
		c0,0.1,0,0.3,0.1,0.3c0,0.1,0.2,0.2,0.4,0.3c0.5,0.2,1.1,0.5,1.7,0.9c0.1,0.1,0.2,0.1,0.2,0.1l0.2-0.1c0.5-0.2,1.1-0.4,1.7-0.6
		c0.3-0.1,0.5-0.1,0.7-0.1c0.1,0,0.3,0.1,0.5,0.2c0.5,0.3,1,0.5,1.5,0.7c0.2-0.2,0.4-0.5,0.5-0.7l-3.3-1.9c-0.3-0.1-1-0.6-2.3-1.4
		c-1.2-0.8-2.1-1.2-2.4-1.3c-0.1,0.2-0.2,0.4-0.4,0.6C86.3,90.7,86.2,90.7,86.2,90.8 M95.3,65.7c-1.1-0.6-2.3-0.9-3.4-0.7
		c-0.6,0.1-1,0.2-1.3,0.4c-2.7,3.8-5.2,7.6-7.6,11.7c1.1,0.6,2.3,1.2,3.4,1.9c0,0,0.1,0.1,0.1,0.1c0.2-0.3,0.4-0.6,0.6-1l14.7,8.3
		c0.4,0.2,0.8,0.4,1.1,0.6c0.1,0.1,0.2,0.1,0.4,0.2c0.2,0.1,0.3,0.2,0.4,0.3c0,0.1,0.1,0.1,0.1,0.1c-0.2,0.2-0.3,0.4-0.5,0.7
		c1.3,0.9,2.5,1.8,3.8,2.6c2.4-3.7,4.4-6.9,6.3-9.8c0.2-0.4,0.5-0.7,0.7-1.1c0.1-0.4,0-0.8-0.1-1.2c-0.2-0.6-0.7-1.2-1.6-2
		c-2.2-2-4.9-4-8.1-6C102.6,69.8,99.6,68.1,95.3,65.7 M103.5,74.2c0,0.8-0.2,1.5-0.6,2.2c-0.1,0.1-0.2,0.3-0.3,0.5
		c-0.1,0.2-0.2,0.3-0.2,0.5c-0.1,0.2-0.1,0.3-0.2,0.3c0,0-0.1,0-0.2,0c-0.5-0.1-1-0.4-1.7-0.7c-0.7-0.4-1.2-0.7-1.6-0.9
		c-0.3-0.2-0.6-0.2-0.8-0.2c-0.2,0-0.4,0.1-0.6,0.2c-0.3,0.3-0.6,0.6-0.7,1c-0.1,0.2-0.1,0.5-0.1,0.8c0,0.2,0,0.3,0,0.4
		c0.1,0.2,0.2,0.4,0.6,0.6c0.3,0.2,0.6,0.3,0.8,0.3c0.2,0,0.5-0.1,0.9-0.3c0.2-0.1,0.3-0.1,0.4-0.1c0.1,0,0.2,0,0.2,0
		c0.1,0,0.1,0.1,0.1,0.2c0,0.1-0.1,0.2-0.3,0.3c-0.2,0.1-0.5,0.3-0.8,0.4c-0.4,0.1-0.6,0.1-0.8,0.1c-0.1,0-0.3-0.1-0.5-0.2
		c-0.6-0.3-0.9-0.7-1-1.1c0-0.1-0.1-0.3,0-0.5l0-0.5c0-0.2,0.1-0.5,0.2-0.7c0.3-0.7,0.8-1.1,1.3-1.3c0-0.2,0.2-0.6,0.6-1.2
		c0.3-0.6,0.5-1,0.7-1.2c0.3-0.4,0.5-0.7,0.7-0.8c0.2-0.2,0.3-0.3,0.4-0.3c0.3-0.2,0.7-0.2,1.2-0.1c0.3,0.1,0.6,0.2,1.1,0.5
		c0.7,0.4,1.1,0.8,1.3,1.2C103.5,73.7,103.5,73.9,103.5,74.2 M104.1,87.9l0.2,0.1c0,0,0,0,0,0L104.1,87.9 M102.8,75.5l0.2-1.2
		c0-0.3,0-0.5-0.1-0.7c-0.1-0.2-0.2-0.3-0.4-0.5c-0.1-0.1-0.4-0.3-0.9-0.6l-0.3-0.1c-0.2-0.1-0.3-0.1-0.4-0.1
		c-0.3-0.1-0.6,0-0.8,0.1c-0.1,0-0.1,0.1-0.2,0.2L99.6,73c-0.1,0.1-0.3,0.5-0.7,1.2c-0.4,0.7-0.6,1.1-0.6,1.2c0.2,0,0.4,0.1,0.7,0.3
		c0.3,0.2,0.5,0.3,0.7,0.3l0.3,0.1l0.5,0.4c0.6,0.3,1.1,0.5,1.5,0.6l0.6-1.1C102.7,75.8,102.7,75.6,102.8,75.5 M100.9,73.8
		c0.1-0.1,0.1-0.2,0.2-0.2c0.1,0,0.1,0,0.2,0c0.1,0,0.1,0.1,0.1,0.1c0,0.1,0,0.2-0.1,0.4l-0.4,0.7c-0.1,0.1-0.1,0.2-0.1,0.3
		c0,0.2-0.1,0.3-0.2,0.3c-0.1,0-0.2,0-0.3-0.1c-0.1-0.1-0.2-0.1-0.2-0.2c0-0.1,0-0.1,0.1-0.2L100.9,73.8 M66.4,32.7
		c-0.4-0.5-0.8-0.9-1.3-1.1C64.5,31.2,64,31,63.4,31c-1.1-0.1-2.2,0.4-3.4,1.4c-1.3,1.2-2.2,2.5-2.6,4.1c-0.3,1.1-0.3,2.3-0.1,3.6
		c0.1,0.8,0.3,1.6,0.6,2.4c0.3,0.9,0.8,1.8,1.3,2.8c0.2,0.3,0.7,0.7,1.5,1.2c1.2,0.7,2.5,1.1,4,1.4c1.2,0.2,2.2,0.2,3.2-0.1
		c1.1-0.3,1.9-0.8,2.5-1.6c0.5-0.7,0.7-1.6,0.6-2.7c0-0.1,0-0.3,0-0.4c-0.1-0.9-0.5-2-1.1-3.2l-1.8-4.2c-0.4-0.8-0.6-1.3-0.8-1.6
		C67.1,33.6,66.7,33.1,66.4,32.7 M82,43.1c0.6-0.1,1.2-0.3,2-0.7c1.3-0.5,2.1-1.2,2.4-1.9c0.2-0.4,0.2-0.8,0.2-1.3
		c0-0.1,0-0.2,0-0.3c-0.1-0.4-0.2-0.9-0.4-1.6c-1.4-3.9-3.1-7.5-5-10.8c-0.6-1.1-1.2-1.8-1.9-2c-0.4-0.2-0.8-0.2-1.3-0.2
		c-0.3,0-0.8,0.1-1.4,0.3c-1.2,0.3-2,0.6-2.6,0.9c-0.9,0.4-1.6,1-2.1,1.7c-0.4,0.7-0.7,1.5-0.7,2.5c0,0.4,0,0.8,0,1.2
		c0,0,0,0.1,0,0.1c0.2,0.6,0.5,1.1,0.7,1.7c0.6,1.3,1.4,3,2.6,5.2c0.8,1.5,1.5,2.6,2.2,3.3c1,1.1,2,1.8,3.2,2
		C80.5,43.3,81.2,43.3,82,43.1z"/>
	<path class="st4" d="M11.3,64.3C11.3,64.3,11.3,64.2,11.3,64.3c-2.2,0.9-4.4,1.9-6.5,2.9c-0.5,0.7-0.9,1.4-1.4,2.1
		c-0.4,0.5-0.7,1-1.1,1.6c0.6-0.3,1.3-0.6,1.9-0.9c6.4-3.2,12.9-6.2,19.5-9c1.5-0.6,2.9-1.3,4.4-1.9c6.2-2.6,12.4-5,18.7-7.3
		c-0.1-0.1-0.1-0.2-0.2-0.3c-0.5-0.9-1-1.7-1.4-2.6c-10.2,4.4-20.3,9-30.3,13.6c0,0,0,0.1-0.1,0.1c0,0-0.1,0-0.1-0.1
		c-1.1,0.5-2.1,1-3.2,1.5C11.4,64.2,11.4,64.2,11.3,64.3 M113,50.9C113,50.9,113,50.9,113,50.9c0.2-0.3,0.3-0.6,0.4-0.8
		c-0.5,0.9-0.9,1.8-1.3,2.8c0,0,0.1-0.1,0.1-0.1c0,0,0.1-0.1,0.1-0.1c0.3,0.1,0.6,0.2,0.9,0.3c0.3-0.6,0.6-1.2,0.9-1.7
		C113.7,51.1,113.4,51,113,50.9 M110.6,50.3c-0.1-0.1-0.3-0.2-0.4-0.3c-0.2-0.1-0.4-0.3-0.5-0.4c-0.4,0.5-0.7,0.9-0.9,1.3
		c0.4,0.2,0.7,0.4,1.1,0.5C110.1,51.1,110.3,50.7,110.6,50.3 M101.9,31.5c0-0.1,0-0.3,0-0.4l-3.3,0c0,0.3,0,0.5,0,0.8l3.3,0.1
		C101.9,31.8,101.9,31.7,101.9,31.5 M102.1,28.5c0-0.4,0.1-0.7,0.2-1.1c-1.1,0-2.2,0-3.3,0.1c-0.1,0.3-0.1,0.7-0.2,1.1
		c0.1,0,0.1,0,0.2,0C99.6,28.5,100.6,28.5,102.1,28.5z"/>
	<path class="st5" d="M118.5,71.4c0.2-0.3,0.4-0.7,0.6-1c-0.1,0-0.1-0.1-0.2-0.1l-4.1-2.8c-0.1,0.3-0.3,0.6-0.4,0.9
		c0.5,0.3,1.1,0.6,1.7,1C117,70,117.8,70.7,118.5,71.4 M84.4,64.4c1.3-2.1,2.5-3.7,3.5-4.9c0.9-1,1.8-1.7,2.7-2.3
		c-1.7,0.1-3.4,0.5-4.9,1.3c-0.4,0.2-0.8,0.5-1.2,0.7C78.8,67.8,73.3,76.6,68,85.6c-0.2,0.3-0.3,0.6-0.5,0.9
		c-5.4,9.3-16.6,30.8-16.8,32.2c-0.2,1.7,0,3.4,0.7,5c0.7,1.7,1.9,3.2,3.5,4.7c-0.3-1-0.6-1.9-0.6-2.9c-0.2-2,0.1-4.2,0.9-6.6
		c0.5-1.5,1.4-3.6,2.8-6.3c5.5-10.6,9.7-18.6,12.6-24.1c0.6,0.4,1.2,0.7,1.8,1.1c0.6,0.4,1.3,0.8,2.1,1.2c-2.4,4.6-4.6,9.3-6.8,14.1
		c0,0.1,0,0.1,0,0.1c0.1,0.7,0.4,1.3,0.9,1.9c0.4,0.5,0.9,1,1.5,1.5c0.4,0.3,1,0.7,1.7,1.2l5.3,3.4c1.7,1.1,4.3,2.7,7.8,4.9
		c0.8,0.5,1.3,0.8,1.7,1c0.7,0.3,1.3,0.5,1.9,0.5c0.6,0,1.3-0.1,1.9-0.4c3.5-5.3,6.6-10.1,9.5-14.5c1.1,0.7,2.3,1.4,3.6,2.3
		c-3,5.1-6.5,11.1-10.5,17.8c-3.3,5.5-6.1,9.7-8.5,12.4c-1.4,1.6-2.8,3-4.3,4.1c1.6,0,3.3-0.3,4.9-1c1.9-0.7,3.6-1.8,4.9-3.1
		c5.9-10.7,11.3-20.2,16-28.6c0.2-0.4,0.4-0.8,0.6-1.1c5.7-10.2,10.4-18.7,14.3-25.6c0.1-0.8,0.2-1.6,0.2-2.2
		c0.1-1.8-0.2-3.4-0.7-4.7c-0.7,2.3-1.7,4.8-2.9,7.4c-1.1,2.3-2.9,5.7-5.5,10c-2.1,3.6-4.8,8.2-8,13.6c-1.4-0.8-2.6-1.5-3.7-2.2
		c2.9-4.4,5.5-8.4,7.8-11.9c2-3,3.7-5.7,5.2-8c0.7-1,1.2-1.9,1.4-2.6c0.4-1,0.5-1.9,0.3-2.8c-0.2-0.7-0.6-1.4-1.3-2.1
		c-0.5-0.5-1.1-1-2-1.6c-5.1-3.5-10.1-6.6-15.1-9.4c-0.9-0.5-1.7-0.9-2.3-1.1c-0.9-0.3-1.7-0.4-2.4-0.3c-0.9,0.2-1.8,0.7-2.6,1.5
		c-0.6,0.6-1.2,1.4-1.9,2.6c-1.9,3-3.7,6-5.4,9c-0.1,0.2-0.2,0.3-0.3,0.5c-2.4,4.2-4.7,8.4-7,12.8c-1.3-0.8-2.6-1.6-3.9-2.4
		C75.8,78.9,80.2,71.2,84.4,64.4 M92,65c1.1-0.2,2.2,0.1,3.4,0.7c4.3,2.4,7.3,4.1,9,5.2c3.2,2,5.9,4,8.1,6c0.9,0.7,1.4,1.4,1.6,2
		c0.1,0.4,0.2,0.8,0.1,1.2c-0.2,0.3-0.5,0.7-0.7,1.1c-1.8,2.8-3.9,6.1-6.3,9.8c-1.3-0.8-2.5-1.7-3.8-2.6c0.2-0.2,0.3-0.4,0.5-0.7
		c0,0-0.1-0.1-0.1-0.1c-0.1-0.1-0.2-0.2-0.4-0.3c-0.2-0.1-0.3-0.2-0.4-0.2c-0.3-0.2-0.6-0.4-1.1-0.6l-14.7-8.3
		c-0.2,0.4-0.4,0.7-0.6,1c0,0,0,0,0.1,0c-0.1,0-0.2-0.1-0.2-0.1c-1.1-0.7-2.3-1.3-3.4-1.9c2.4-4,4.9-7.9,7.6-11.7
		C90.9,65.2,91.4,65.1,92,65 M103,88.8c0.3,0.2,0.6,0.3,0.8,0.5c0.4,0.3,1,0.7,1.8,1.2c0.3,0.2,0.7,0.5,1.2,0.8
		c-2.2,3.4-4.7,7.2-7.3,11.4c-0.2,0.3-0.4,0.6-0.6,0.9c-0.5,0.7-1,1.5-1.4,2.2c-0.1,0-0.5-0.2-1-0.5c-0.6-0.3-1-0.6-1.4-0.7
		c0.2-0.2,0.4-0.4,0.5-0.5c-5.6-3.6-11.2-6.9-16.9-10.1l-0.3,0.6c-0.4,0.7-0.7,1.1-0.9,1.4c0.6,0.3,1.6,0.9,3.2,1.8
		c2,1.1,6.5,3.6,13.5,7.6c0.1-0.1,0.3-0.3,0.4-0.4c0.3,0.2,0.7,0.4,1.1,0.6c0.6,0.3,1,0.6,1.4,0.8c-1.2,1.8-2.7,4.1-4.5,6.8
		c-1.9,2.9-2.9,4.3-2.9,4.3c-0.5,0.2-1,0.3-1.6,0.2c-0.5-0.1-1-0.2-1.5-0.5c-0.4-0.2-0.8-0.5-1.4-0.8c-2-1.3-3.5-2.2-4.5-2.8
		c-1-0.6-2.9-1.8-5.7-3.5c-2.5-1.6-4.4-3-5.4-4.1c-0.5-0.5-0.1-2.4,1.3-5.6c0.2-0.5,1.4-2.9,3.5-7.3c1.4,0.6,2.7,1.3,3.8,2l0.3-0.5
		c-0.1,0-1.3-0.8-3.7-2.4c0.2-0.4,0.4-0.8,0.6-1.1c0.1-0.3,0.3-0.6,0.4-0.8c2.2-4.4,4.5-8.6,7.1-12.8c1.2,0.6,2.4,1.3,3.5,2
		c-0.1,0.1-0.2,0.3-0.3,0.5c0,0.1-0.1,0.2-0.2,0.5c7.3,4,12.9,7.1,16.7,9.2C102.6,89.4,102.8,89.1,103,88.8 M94.2,56.9
		c-0.1,0.2-0.2,0.4-0.3,0.6c1.7,0.3,3.5,0.9,5.4,1.8c0.2-0.3,0.4-0.5,0.6-0.8c-0.9-0.4-1.8-0.8-2.7-1.1C96.2,57.2,95.2,57,94.2,56.9
		 M92.7,35.8c-0.1,0.1-0.2,0.2-0.2,0.3c-0.1,0.1-0.3,0.3-0.4,0.4c0.4,1.3,0.7,2.6,0.9,3.8c0.1,0.4,0.1,0.8,0.2,1.2l1.6-1.7
		C94.1,38.4,93.5,37,92.7,35.8 M81.5,18.9c0.8,0.7,1.6,1.5,2.3,2.3c0.6,0.7,1.2,1.5,1.9,2.5l0,0c0.3,0,0.7,0,1.1,0
		c-0.7-1.5-1.6-2.9-2.6-4.3c-0.2,0-0.5-0.1-0.8-0.1C82.8,19.2,82.1,19.1,81.5,18.9 M71.1,43.7c0,0,0-0.1,0-0.1
		c0.1,1-0.1,1.9-0.6,2.7c-0.5,0.8-1.4,1.3-2.5,1.6c-1,0.2-2,0.2-3.2,0.1c-1.5-0.3-2.9-0.7-4-1.4c-0.8-0.5-1.4-0.9-1.5-1.2
		c-0.6-1-1-1.9-1.3-2.8c-0.3-0.8-0.5-1.6-0.6-2.4C57.3,41,57.6,42,58,43c0.1,0.3,0.3,0.7,0.4,1.2c0.2,0.4,0.4,0.9,0.7,1.2
		c0.5,0.7,1.3,1.3,2.6,1.9c1.2,0.6,2.2,0.9,3.2,1c1.2,0.2,2.3,0.1,3.2-0.1c1.1-0.2,1.9-0.8,2.5-1.5C71.1,46,71.3,44.9,71.1,43.7
		 M82.1,43.6c0.6-0.1,1.2-0.4,2-0.7c1.3-0.5,2.1-1.2,2.4-1.9c0.2-0.4,0.2-1,0.2-1.5c0-0.1,0-0.2,0-0.3c0,0.5,0,0.9-0.2,1.3
		c-0.3,0.8-1.1,1.4-2.4,1.9c-0.8,0.3-1.5,0.6-2,0.7c-0.8,0.2-1.4,0.2-2.1,0.1c-1.1-0.2-2.2-0.8-3.2-2c-0.7-0.7-1.4-1.8-2.2-3.3
		c-1.2-2.2-2-3.9-2.6-5.2c-0.3-0.6-0.5-1.2-0.7-1.7c0,0.1,0,0.3,0,0.4c0.2,0.6,0.5,1.2,0.8,1.8c0.6,1.3,1.4,3,2.6,5.2
		c0.8,1.5,1.5,2.6,2.2,3.3c1,1.1,2,1.8,3.2,2C80.6,43.8,81.3,43.8,82.1,43.6z"/>
	<path class="st6" d="M80.6,105l-0.2,0.3c-0.6,0.9-0.9,1.4-0.8,1.5c0,0,0.1,0.1,0.2,0.2l0.3,0.2c0,0,0,0-0.1,0.1
		c-0.1,0.1-0.3,0.5-0.6,1.3c-0.1,0.2-0.1,0.5-0.1,0.7c0,0.3,0.1,0.5,0.2,0.6c0.1,0.1,0.3,0.3,0.6,0.5c0.5,0.3,1,0.5,1.4,0.6
		c0.3,0.1,0.6,0.1,0.7,0c0.2-0.1,0.4-0.3,0.6-0.6l0.6-1.1c0.1-0.1,0.1-0.2,0.2-0.3c0,0,0,0,0.1,0.1c0.2,0.1,0.3,0.2,0.5,0.1
		c0.1,0,0.1-0.1,0.2-0.2l0.6-1.1l0.1-0.3c0.1-0.2,0.1-0.3,0.2-0.4c0-0.1,0.1-0.3,0.1-0.5c0-0.3,0-0.5,0-0.7
		c-0.1-0.4-0.4-0.8-0.8-1.1c-0.3-0.2-0.8-0.4-1.3-0.5c-0.3-0.1-0.5-0.1-0.7-0.1c-0.1,0-0.3,0-0.5,0.1c-0.3,0.1-0.6,0.2-0.8,0.4
		C80.9,104.7,80.8,104.8,80.6,105 M80.1,108c0.2-0.5,0.3-0.7,0.3-0.7l0.2,0.1c0.1,0,0.2,0.1,0.4,0.2c0.8,0.4,1.5,0.7,2,1
		c0,0-0.1,0.1-0.1,0.2c-0.2,0.5-0.4,0.9-0.7,1.3c-0.1,0.2-0.2,0.2-0.3,0.3c-0.1,0-0.2,0.1-0.3,0c-0.1,0-0.2-0.1-0.3-0.2
		c-0.4-0.2-0.7-0.3-0.9-0.4c-0.3-0.2-0.5-0.4-0.6-0.7C79.8,108.9,79.8,108.6,80.1,108 M82,104.7c0.4-0.1,0.9,0,1.5,0.2
		c0.5,0.1,0.9,0.3,1,0.6c0.2,0.2,0.2,0.6,0.2,1c0,0.3-0.1,0.7-0.3,1c-0.1,0.2-0.3,0.6-0.5,1l-3.7-1.9c0.3-0.6,0.6-0.9,0.7-1.1
		C81.2,105.1,81.6,104.8,82,104.7 M83.1,106.3c0.1-0.1,0.2-0.2,0.2-0.3c0-0.1,0.1-0.2,0-0.3c-0.1-0.1-0.2-0.2-0.3-0.2
		c0,0-0.1,0.1-0.2,0.2c-0.3,0.5-0.4,0.7-0.5,0.8c-0.1,0.1-0.1,0.2-0.1,0.3c0,0.1,0,0.2,0.1,0.3c0,0,0.1,0.1,0.2,0
		c0.1,0,0.2-0.1,0.2-0.2l0.1-0.3C83,106.6,83,106.4,83.1,106.3 M84.9,92.9c0.1,0,0.2,0,0.5,0c0.3-0.1,0.5-0.1,0.6-0.2
		c0.1-0.1,0.2-0.2,0.2-0.3c0-0.2,0-0.3-0.2-0.3c-0.1,0-0.2,0-0.3,0.1c-0.3,0.1-0.6,0.2-0.8,0.2c-0.2-0.1-0.3-0.2-0.4-0.2
		c-0.1,0-0.2,0-0.2,0.1c-0.1,0-0.1,0.1-0.1,0.2c0,0.1,0.1,0.2,0.2,0.2C84.6,92.8,84.7,92.9,84.9,92.9 M87.8,89.9
		C87.8,89.9,87.8,89.9,87.8,89.9c-0.4-0.1-0.7-0.3-1-0.4c-0.1,0-0.2,0-0.2,0c-0.1,0-0.2,0.1-0.2,0.3c-0.2,0.3-0.4,0.6-0.6,0.9
		c-0.1,0.1-0.2,0.2-0.2,0.2c0,0.1,0,0.1,0.1,0.2c0.2,0.2,0.4,0.3,0.5,0.4c0.2,0.1,0.3,0.2,0.3,0.2c0.1,0.1,0.2,0.2,0.2,0.3
		c0,0.1,0.1,0.3,0,0.5l-0.1,1.2c0,0.1,0,0.3,0,0.3c0,0.1,0.2,0.3,0.5,0.5c0.8,0.4,1.5,0.7,2.1,1.1c0.1,0.1,0.3,0.1,0.3,0.1
		c0.1,0,0.2-0.1,0.3-0.1c0.5-0.3,1-0.5,1.5-0.6c0.3-0.1,0.5-0.1,0.7-0.1c0.1,0,0.2,0.1,0.4,0.2l1.5,0.7c0.2,0.1,0.3,0.1,0.4,0.1
		c0,0,0.1-0.1,0.2-0.2c0.3-0.4,0.5-0.7,0.7-1c0-0.1,0.1-0.2,0-0.3c0-0.1-0.1-0.1-0.2-0.2l-0.8-0.4c0.2-0.3,0.2-0.7,0.1-1.1
		c-0.2-0.4-0.5-0.6-0.9-0.7c-0.4-0.1-0.7,0-1,0.3c-0.1,0.1-0.2,0.2-0.3,0.3l-1.6-0.9c-0.4-0.2-0.8-0.5-1.1-0.7c0,0,0-0.1,0-0.1
		c0.1-0.2,0.1-0.4,0.1-0.6c0-0.2,0-0.4-0.1-0.6c-0.1-0.1-0.2-0.2-0.4-0.3c-0.1-0.1-0.2-0.1-0.3-0.2c-0.1,0-0.2,0-0.4,0
		C88.2,89.5,87.9,89.6,87.8,89.9 M86.4,91c-0.1-0.1-0.1-0.1-0.1-0.2c0,0,0-0.1,0.1-0.2c0.2-0.2,0.3-0.4,0.4-0.6
		c0.4,0.1,1.2,0.5,2.4,1.3c1.3,0.8,2.1,1.3,2.3,1.4l3.3,1.9c-0.1,0.2-0.3,0.4-0.5,0.7c-0.5-0.2-1-0.4-1.5-0.7
		c-0.3-0.1-0.4-0.2-0.5-0.2c-0.2,0-0.4,0-0.7,0.1c-0.6,0.2-1.2,0.4-1.7,0.6l-0.2,0.1c-0.1,0-0.1,0-0.2-0.1c-0.6-0.3-1.1-0.6-1.7-0.9
		c-0.2-0.1-0.4-0.2-0.4-0.3c0-0.1-0.1-0.2-0.1-0.3c0-0.5,0-0.9,0.1-1.3c0-0.2,0-0.3,0-0.4c0-0.1-0.1-0.2-0.2-0.3
		C86.9,91.4,86.7,91.2,86.4,91 M88.8,90.5c-0.2-0.1-0.4-0.2-0.5-0.3c0-0.1,0.1-0.1,0.1-0.1c0.2-0.1,0.4-0.2,0.6-0.1
		c0.1,0,0.2,0.1,0.2,0.1c0,0,0,0.1,0.1,0.2c0,0.1,0,0.2-0.1,0.3c0,0,0,0.1,0,0.1C89,90.6,88.9,90.6,88.8,90.5 M94,93.1
		c0,0.2,0,0.3,0,0.4c0,0,0,0,0,0.1l-1.2-0.7l0,0c0.1-0.1,0.2-0.2,0.3-0.2c0,0,0.1,0,0.3-0.1c0.2,0,0.4,0.1,0.5,0.2
		C93.9,92.8,93.9,92.9,94,93.1 M102.9,76.4c0.4-0.7,0.6-1.4,0.6-2.2c0-0.3,0-0.5-0.1-0.7c-0.1-0.4-0.6-0.8-1.3-1.2
		c-0.5-0.3-0.8-0.4-1.1-0.5c-0.4-0.1-0.8-0.1-1.2,0.1c-0.1,0-0.2,0.2-0.4,0.3c-0.1,0.2-0.4,0.4-0.7,0.8c-0.2,0.2-0.4,0.6-0.7,1.2
		c-0.3,0.6-0.5,1-0.6,1.2c-0.5,0.2-1,0.6-1.3,1.3c-0.1,0.3-0.2,0.5-0.2,0.7l0,0.5c0,0.2,0,0.4,0,0.5c0.1,0.4,0.4,0.7,1,1.1
		c0.2,0.1,0.4,0.2,0.5,0.2c0.2,0.1,0.5,0,0.8-0.1c0.3-0.1,0.6-0.2,0.8-0.4c0.2-0.1,0.3-0.2,0.3-0.3c0-0.1-0.1-0.1-0.1-0.2
		c-0.1,0-0.1-0.1-0.2,0c-0.1,0-0.2,0-0.4,0.1c-0.4,0.2-0.7,0.3-0.9,0.3c-0.2,0-0.5-0.1-0.8-0.3c-0.3-0.2-0.5-0.4-0.6-0.6
		c0-0.1,0-0.2,0-0.4c0-0.3,0-0.6,0.1-0.8c0.1-0.4,0.3-0.7,0.7-1c0.2-0.2,0.4-0.2,0.6-0.2c0.2,0,0.5,0.1,0.8,0.2
		c0.4,0.2,0.9,0.5,1.6,0.9c0.6,0.3,1.2,0.6,1.7,0.7c0.1,0,0.2,0,0.2,0c0.1,0,0.1-0.1,0.2-0.3c0-0.1,0.1-0.3,0.2-0.5
		C102.7,76.7,102.8,76.5,102.9,76.4 M103,74.3l-0.2,1.2c0,0.1-0.1,0.2-0.2,0.4l-0.6,1.1c-0.4-0.1-0.9-0.3-1.5-0.6l-0.5-0.4l-0.3-0.1
		c-0.1,0-0.4-0.2-0.7-0.3c-0.3-0.2-0.5-0.3-0.7-0.3c0-0.1,0.2-0.5,0.6-1.2c0.4-0.7,0.7-1.1,0.7-1.2l0.3-0.3c0.1-0.1,0.1-0.2,0.2-0.2
		c0.2-0.1,0.5-0.2,0.8-0.1c0.1,0,0.3,0.1,0.4,0.1l0.3,0.1c0.5,0.3,0.8,0.5,0.9,0.6c0.2,0.2,0.3,0.3,0.4,0.5
		C103,73.8,103,74,103,74.3 M101.1,73.6c0,0-0.1,0.1-0.2,0.2l-0.7,1.2c0,0.1-0.1,0.2-0.1,0.2c0,0.1,0.1,0.1,0.2,0.2
		c0.1,0.1,0.2,0.1,0.3,0.1c0.1,0,0.1-0.2,0.2-0.3c0-0.1,0.1-0.2,0.1-0.3l0.4-0.7c0.1-0.2,0.1-0.3,0.1-0.4c0-0.1-0.1-0.1-0.1-0.1
		C101.2,73.6,101.1,73.6,101.1,73.6z"/>
</g>
</svg>
