<?xml version="1.0" encoding="utf-8"?>
<!-- Generator: Adobe Illustrator 26.5.0, SVG Export Plug-In . SVG Version: 6.00 Build 0)  -->
<svg version="1.1" id="Layer_1" xmlns="http://www.w3.org/2000/svg" xmlns:xlink="http://www.w3.org/1999/xlink" x="0px" y="0px"
	 viewBox="0 0 150 150" style="enable-background:new 0 0 150 150;" xml:space="preserve">
<style type="text/css">
	.st0{fill:#FFE1B6;stroke:#010101;stroke-linecap:round;stroke-linejoin:round;stroke-miterlimit:10;}
	.st1{fill:#F3F3F3;stroke:#010101;stroke-linecap:round;stroke-linejoin:round;stroke-miterlimit:10;}
	.st2{fill:#FECF0C;stroke:#010101;stroke-linecap:round;stroke-linejoin:round;stroke-miterlimit:10;}
	.st3{fill:#4E4E4E;stroke:#010101;stroke-linecap:round;stroke-linejoin:round;stroke-miterlimit:10;}
</style>
<path class="st0" d="M44.3,94.8c0.9,3.6,7.6,2.9,11.8,2.6c4.3-0.3,9-1.3,12.9,0.9c2.7,1.5,8.6,6.1,14.8,7.6
	c6.2,1.6,13.8,2.5,18.8,6.2c4,3,12.3,12.1,18,18.3c6.5,7,14.5,11.7,21.8,17.8c2.7,2.2,5.4,5.2,8.8,6.4c3.5,1.2,7.4-0.4,10.6-1.6
	c6.1-2.4,12.1-5.2,17.7-8.5c3.4-2,6.3-4.2,8.3-7.7c-1-0.3-1.6-1.2-2.4-1.9c-1.2-1-2.6-1.7-3.9-2.5c-2.9-1.8-5.7-3.7-8.8-5.3
	c-6.3-3.2-12.8-5.9-19.1-9.3c-5.2-2.9-10.8-5.1-16-8.1c-2.1-1.2-4.4-2.4-6.4-3.7c-2.6-1.8-5-3.7-7.6-5.5c-4.2-2.8-7.8-6.5-12.4-8.7
	c0,0.1,0,0.1,0,0.2c-2.7-1.9-3.2-5.3-3.4-8.3c0,0,0.2-6-0.8-8.6c-1.8-2.9-8.2-5.4-9.7-5.6c-1.7-0.2-3.4-0.7-5.1-0.8
	c-1.8-0.1-3.1-0.1-4.7-0.7c-1.8-0.6-3-1.4-4.6-2.4c-1.6-1-6-2.7-6-2.7c-0.9-0.8-10-5.4-10.5-5.4c-2.8-1.9-7.3-4.2-10.7-4.4
	c-1.4-0.1-3.7,1.4-4.6,2.8c-1,1.5,0.6,2.8,1.8,3.6c1.7,1.1,9.3,4.5,10.1,5c1.1,0.7,2.3,1.4,3.3,2.2c2.1,1.6,9,3.8,8.7,5.3
	c-0.3,1.5-7.3-2-9-2.4c-3.4-0.9-6.7-1.1-10.1-1.5c0,0-8.5-1.6-10.3,0.1c-2,1.8-1.5,6,0.6,6.7c1.3,0.4,3.8,0.2,5.1,0.3
	c1.8,0.2,3.5,0.6,5.2,1.1c2.8,0.8,5.8,1.1,8.6,1.8c0.5,0.1,6.4,1.6,6.3,2.4c-0.2,0.9-5.6-0.9-8-1.5c-2.6-0.6-5.3-1-7.8-1.4
	c-1.2-0.2-13.8-1.8-14.5,2.4c-0.4,2.1,1.6,3.5,3.2,4c5.3,1.8,11.3,0.2,16.7,1.4c1.1,0.2,9.9,2.2,8.8,3.8c-1.2,1.7-11.4,0.6-13.1,0.9
	c-1.8,0.3-3.6,0.6-5.4,1C50.4,91.2,43.4,91.3,44.3,94.8z"/>
<g>
	<path class="st1" d="M74.6,51.6c-0.1-1.2,0.1-1.8-1-1.8c-1.1,0-4,0.9-5.8-2c-1.7-2.9-3.6-11.4-3.1-16.5c0.5-5.1,0.2-7.5,1.3-7.6
		c1.1-0.1,1.1,0.9,1.5,2.7c0.4,1.8-0.1,1.9-0.4,3.5c-0.3,1.6,0,3.1,1.2,3.7c1.2,0.6,1.9,6.2,1.9,6.2s4.2-0.9,5.4,0.9
		c1.4,2.2,0.9,4.7,1.1,5.2c0.2,0.6,2,1.7,2.2,3.3C79.1,50.8,74.6,51.6,74.6,51.6z"/>
	<path class="st1" d="M67.7,51.5c0.3-1.2,0.2-1.8,1.2-1.7c1,0.1,3.9,1.5,6-1.2c2.1-2.7,5.1-10.8,5.3-15.9c0.2-5.1,0.8-7.5-0.3-7.7
		c-1-0.2-1.2,0.7-1.8,2.5c-0.7,1.8-0.2,1.9-0.1,3.5c0.1,1.6-0.4,3.1-1.7,3.5c-1.3,0.5-2.5,5.2-2.5,5.2s-4.2-0.7-5.7,0.9
		c-1.7,2-1.5,4.5-1.8,5c-0.3,0.5-2.2,1.4-2.6,2.9C63.3,50.2,67.7,51.5,67.7,51.5z"/>
	<g>
		<path class="st2" d="M60.3,61.4c1.7-3.8-0.8-7.2-3.5-10c0,0.3,0.1,0.7,0.3,1.1c0.8,1.6,1.1,3.5,0.7,4.9c-0.4,1.4-3.7,4.5-8.8,13
			c-5.1,8.5-4.4,16.3-4.5,19.9c-0.2,3.7,1.2,7.5,3.5,7.6c0.7,0,1.2-0.4,1.6-1.2c-0.3-0.9-0.7-1.9-1-3.2C46.6,87,58.3,66,60.3,61.4z"
			/>
		<path class="st3" d="M63.2,47.9c-1-0.5-1,1.1-2.3,2.2c-1.4,1.1-2.2,0.1-2.9,0c-0.6-0.1-1.2,0.5-1.2,1.4c2.7,2.8,5.2,6.2,3.5,10
			C58.3,66,46.6,87,48.5,93.5c0.4,1.3,0.7,2.3,1,3.2c0.9-1.9,1.2-5.9,2.2-10.9c1.4-7.1,7.8-17.8,10-21.6c2.2-3.8,5.5-8.1,5.5-9.5
			c0-1.4,0-1.3,0.6-3.5C68,50.3,64.2,48.4,63.2,47.9z"/>
	</g>
	<g>
		<path class="st2" d="M80.3,62.2c1.2,6,8.2,12.5,8.3,24c0.1,7.1-0.7,10.3-2.3,11.4c0.2,1.7,0.7,2.6,1.7,2.7
			c2.3,0.2,4.1-3.4,4.4-7.1c0.3-3.7,2.1-11.2-1.9-20.4c-3.9-9.1-6.7-12.7-7-14.1c-0.3-1.4,0.3-3.3,1.3-4.7c0.1-0.2,0.2-0.4,0.3-0.5
			C82.5,55,79.2,56.7,80.3,62.2z"/>
		<path class="st3" d="M88.7,86.2c-0.1-11.5-7.2-18-8.3-24c-1.1-5.5,2.2-7.2,4.9-8.7c0.5-1.2-0.1-2.1-0.8-2c-0.8,0-1.7,0.9-2.9-0.4
			c-1.2-1.3-1-2.8-2-2.5c-1,0.4-5.1,1.7-5,2.7c0.3,2.2,0.2,2.1,0.1,3.5c-0.1,1.4,2.6,6.1,4.2,10.2c1.7,4,6.6,15.5,7,22.7
			c0.3,4.2,0.2,7.6,0.5,9.8C87.9,96.5,88.7,93.3,88.7,86.2z"/>
	</g>
	<path class="st0" d="M90,68.6c-2.4,1-3.3,3.2-4.4,5.3c-0.8,1.5-2.4,3.6-2.1,5.4c0.2,1.3,3.8,3,6,1c2.2-2,2.9-3.7,4.1-4
		c1.5-0.4,1.9,1.1,2.2,2.1c0.3,0.8-1.6,8,1.4,13.3"/>
</g>
</svg>
